<?xml version="1.0" encoding="UTF-8" standalone="no"?>
<!-- Created with Inkscape (http://www.inkscape.org/) -->

<svg
   width="56.356251mm"
   height="56.356251mm"
   viewBox="0 0 56.356251 56.356251"
   version="1.1"
   id="svg2384"
   xmlns="http://www.w3.org/2000/svg"
   xmlns:svg="http://www.w3.org/2000/svg">
  <defs
     id="defs2381" />
  <g
     id="layer1"
     transform="translate(-26.851849,-105.35049)">
    <path
       class="fil2"
       d="m 28.703932,105.35049 c -1.058333,0 -1.852083,0.79375 -1.852083,1.85208 v 0 52.65208 c 0,1.05834 0.79375,1.85209 1.852083,1.85209 v 0 h 52.652082 c 1.058334,0 1.852084,-0.79375 1.852084,-1.85209 v 0 -52.65208 c 0,-1.05833 -0.79375,-1.85208 -1.852084,-1.85208 v 0 z"
       id="path1715"
       style="clip-rule:evenodd;fill:#898989;fill-rule:nonzero;stroke-width:0.264583;image-rendering:optimizeQuality;shape-rendering:geometricPrecision;text-rendering:geometricPrecision" />
    <path
       class="fil0"
       d="m 77.387265,158.53174 c 0,1.5875 -1.058334,3.175 -2.910417,3.175 h -1.322917 c -1.5875,0 -2.910416,-1.5875 -2.910416,-3.175 v -0.79375 c 0,-1.5875 1.5875,-3.175 3.175,-3.175 h 0.79375 c 1.852083,0 3.175,1.5875 3.175,3.175 z"
       id="path1717"
       style="clip-rule:evenodd;fill:#2b2a29;fill-rule:nonzero;stroke-width:0.264583;image-rendering:optimizeQuality;shape-rendering:geometricPrecision;text-rendering:geometricPrecision" />
    <path
       class="fil3"
       d="m 54.897681,152.7109 c 0,0 5.291667,-2.11666 9.260417,-7.40833 1.852083,-2.91042 1.852083,-8.20208 1.852083,-8.20208 0,0 0.529167,0.52916 1.058334,0.26458 0.264583,0 0.529166,-0.52917 0.79375,-1.05833 0,-0.79375 0,-1.5875 0,-2.64584 0.264583,-0.79375 1.322916,-3.70416 1.322916,-4.7625 0,-1.32291 -0.79375,-2.38125 -1.5875,-2.38125 -0.264583,0 -0.79375,0.52917 -0.79375,-0.26458 0,-0.52917 0.529167,-3.70417 0.264584,-5.29167 0,0 -0.529167,-2.64583 -1.058334,-3.70416 -0.264583,-1.05834 -0.79375,-0.26459 -0.79375,-1.32292 -0.264583,-1.05833 -1.058333,-2.11667 -2.38125,-3.43958 -1.322916,-1.05834 -1.322916,-0.52917 -5.291666,-2.64584 -2.910417,-1.5875 -7.14375,0.52917 -7.14375,0.52917 -2.910417,0.79375 -7.408333,5.02708 -7.408333,5.02708 l -4.7625,7.40834 c 0,0 1.322916,6.08541 3.175,9.26041 0,0 -0.529167,0 -0.529167,0.79375 0,0.26459 2.116667,3.43959 2.116667,4.23334 0,0 0.79375,2.11666 1.058333,3.175 0.529167,2.64583 3.704167,11.90625 10.847916,12.43541 z"
       id="path1719"
       style="clip-rule:evenodd;fill:#fefefe;fill-rule:nonzero;stroke-width:0.264583;image-rendering:optimizeQuality;shape-rendering:geometricPrecision;text-rendering:geometricPrecision" />
    <path
       class="fil4"
       d="m 55.426848,118.31507 c -0.529167,1.05833 -0.264583,3.43958 0.79375,3.96875 0.79375,0 1.058333,0 1.5875,0.52917 -0.79375,0 -1.322917,0.26458 -1.5875,0.26458 -0.529167,0.26458 -0.264583,0.79375 0.264583,1.05833 0.529167,0 1.322917,0.26459 1.5875,0.52917 -0.529166,0 -1.322916,0 -1.852083,0.52917 -0.264583,0.26458 -0.264583,1.05833 0.529167,1.32291 1.058333,0.52917 1.5875,0.26459 2.910416,1.05834 0.529167,0.26458 1.5875,1.32291 1.852084,2.38125 -1.058334,0.79375 -2.38125,0.26458 -2.38125,1.32291 0,0.26459 1.058333,1.05834 1.322916,1.32292 0.529167,0.79375 1.058334,1.05833 1.058334,2.11667 -0.264584,-0.26459 -0.79375,-0.52917 -1.322917,-0.79375 -0.264583,-0.26459 -1.058333,-0.79375 -1.5875,-0.52917 -0.529167,0.26458 0.264583,1.5875 0.529167,1.85208 0.529166,0.79375 1.322916,1.05834 1.852083,1.5875 0.264583,0.52917 0.264583,0.52917 0.529167,1.32292 0.264583,0.79375 0.264583,1.85208 0.264583,1.85208 0.79375,-0.26458 0,-2.38125 0.529167,-2.11666 0.529166,0.26458 0.79375,1.32291 0.79375,1.5875 0.264583,1.05833 0.264583,2.38125 0,3.43958 0.79375,-0.52917 1.322916,-1.5875 1.5875,-2.64583 0,-0.26459 0,-1.05834 0.264583,-1.05834 0,0 0.264583,0.79375 0.264583,0.79375 0.264584,1.05834 0,3.175 -0.529166,3.96875 -0.79375,1.32292 -1.322917,2.38125 -2.910417,4.23334 -1.058333,1.32291 -2.38125,2.64583 -3.704167,3.43958 -1.058333,0.52917 -2.645833,1.5875 -3.968749,1.32292 -1.852084,-0.26459 -4.497917,-3.175 -4.7625,-3.70417 -0.79375,-0.79375 -0.79375,-1.85208 -1.322917,-2.91042 -0.264583,-0.26458 0,-0.79375 -0.529167,-1.05833 -1.058333,-1.05833 -2.38125,-0.52917 -2.910416,-4.7625 -0.264584,-1.05833 -0.529167,-2.64583 -0.264584,-3.43958 -0.529166,-0.52917 -1.058333,-1.5875 -1.058333,-2.38125 0,-0.52917 0.264583,-0.79375 0.264583,-1.32292 0.264584,-1.85208 -0.264583,-2.64583 -0.264583,-2.38125 0.529167,0.79375 -0.264583,-1.85208 0.264583,-3.175 0.264584,-2.11667 -1.058333,-3.96875 -0.264583,-5.82083 1.5875,-3.43959 6.085417,-2.64584 9.260417,-3.175 0.79375,0 0.79375,0 1.322916,-0.26459 0.264584,-0.26458 1.322917,0 1.5875,-0.26458 z"
       id="path1721"
       style="clip-rule:evenodd;fill:#c5c6c6;fill-rule:nonzero;stroke-width:0.264583;image-rendering:optimizeQuality;shape-rendering:geometricPrecision;text-rendering:geometricPrecision" />
    <path
       class="fil4"
       d="m 67.068515,134.45465 c -0.529167,-0.26458 0,-1.05833 -0.264584,-1.32291 -0.264583,-0.26459 -0.264583,0 -0.79375,0 -0.264583,-0.52917 0.264584,-1.05834 0.264584,-1.85209 -0.264584,-0.52916 -1.322917,-0.79375 -0.79375,-1.5875 0,-0.26458 1.322916,-1.85208 1.852083,-2.11666 0.529167,-0.52917 1.5875,0.26458 1.5875,1.05833 0,0.79375 -0.529167,1.32292 -0.79375,2.64583 0,1.05834 -0.264583,3.175 -1.058333,3.175 z"
       id="path1723"
       style="clip-rule:evenodd;fill:#c5c6c6;fill-rule:nonzero;stroke-width:0.264583;image-rendering:optimizeQuality;shape-rendering:geometricPrecision;text-rendering:geometricPrecision" />
    <path
       class="fil4"
       d="m 66.010181,134.45465 c 0.264584,0 0.79375,0.26459 1.058334,0.79375 0,0.26459 0,0.52917 -0.264584,0.79375 -0.79375,1.32292 -0.79375,-1.32291 -0.79375,-1.5875 z"
       id="path1725"
       style="clip-rule:evenodd;fill:#c5c6c6;fill-rule:nonzero;stroke-width:0.264583;image-rendering:optimizeQuality;shape-rendering:geometricPrecision;text-rendering:geometricPrecision" />
    <path
       class="fil2"
       d="m 59.395598,140.0109 c 0,-0.79375 -1.5875,-0.52916 -1.852083,0 0,0 0,1.85209 -1.322917,2.38125 -1.058333,0.52917 -5.027083,0.79375 -5.291666,0.79375 -0.529167,0 -1.322917,-0.26458 -1.852084,-0.52916 0.264584,0.26458 1.5875,1.85208 2.645834,1.85208 1.322916,0 2.910416,-0.52917 4.233333,-0.52917 1.058333,0 1.852083,-0.26458 2.645833,-1.05833 0.529167,-0.79375 0.79375,-2.64583 0.79375,-2.91042 z"
       id="path1727"
       style="clip-rule:evenodd;fill:#898989;fill-rule:nonzero;stroke-width:0.264583;image-rendering:optimizeQuality;shape-rendering:geometricPrecision;text-rendering:geometricPrecision" />
    <path
       class="fil2"
       d="m 50.928932,130.75049 c -0.264584,-0.79375 -1.058334,-1.32292 -1.058334,-1.32292 0,0 -2.38125,0 -3.704166,0 -1.058334,-0.26458 -2.645834,0.52917 -2.38125,1.85208 v 0.26459 c 0,0 -0.529167,1.5875 0.264583,1.5875 0.79375,0.26458 1.5875,-1.32292 1.5875,-1.5875 -0.264583,-0.26459 1.058333,-1.05834 1.852083,-0.79375 1.058334,0 1.5875,0.26458 1.5875,0.26458 0,0 0.264584,0 0.529167,0 0,0 0,0 0,0 l -0.264583,0.52917 c 0,0 -0.264584,0.79375 -1.322917,1.5875 -0.79375,0.52916 -2.38125,0.79375 -2.38125,0.79375 -0.264583,0 1.852083,0.52916 2.38125,0.26458 0.264583,0 1.5875,-1.85208 2.116667,-2.64583 0.264583,0.26458 0.264583,0.52916 0.264583,0.79375 0,1.05833 0.79375,-0.79375 0.529167,-1.5875 z"
       id="path1729"
       style="clip-rule:evenodd;fill:#898989;fill-rule:nonzero;stroke-width:0.264583;image-rendering:optimizeQuality;shape-rendering:geometricPrecision;text-rendering:geometricPrecision" />
    <path
       class="fil2"
       d="m 66.274765,129.16299 1.322916,-1.32292 c 0,0 0,0 0,0 0,0 0.264584,0 0.264584,0 0,0 -0.264584,-0.26458 0,0 0.264583,0.26458 -0.264584,2.64583 -0.264584,3.175 0,0.52917 0,2.64583 -0.264583,2.64583 -0.264583,-0.26458 -0.79375,-1.05833 -1.058333,-1.05833 -0.529167,-0.26458 0,-0.79375 0,-1.05833 0,-0.52917 -0.79375,-1.5875 0,-2.38125 z"
       id="path1731"
       style="clip-rule:evenodd;fill:#898989;fill-rule:nonzero;stroke-width:0.264583;image-rendering:optimizeQuality;shape-rendering:geometricPrecision;text-rendering:geometricPrecision" />
    <path
       class="fil2"
       d="m 60.189348,136.8359 c 0,0 1.058333,1.05834 1.322917,2.11667 0,1.32292 0.529166,1.32292 0.79375,1.05833 0.264583,-0.26458 0,-1.05833 0.264583,-1.05833 0.264583,0.26458 0.79375,1.5875 0.264583,2.91042 -0.264583,1.5875 0.529167,2.91041 0.529167,3.70416 -0.264583,0.79375 -0.79375,1.85209 -2.116667,3.70417 -1.5875,1.85208 -4.497916,2.64583 -6.085416,3.175 -1.322917,0.52917 -3.175,-1.5875 -5.027083,-3.175 -1.852084,-1.5875 -1.852084,-2.11667 -2.116667,-2.91042 0,-0.52916 1.5875,1.85209 3.704167,2.11667 2.38125,0.26458 6.085416,-1.05833 6.879166,-1.85208 0.79375,-0.79375 1.852083,-2.64584 1.322917,-4.23334 -0.264584,-1.05833 0.264583,-1.05833 0.529166,-1.5875 0.529167,-1.05833 -0.264583,-2.91041 -0.79375,-3.70416 -0.529166,-1.05834 0.529167,-0.26459 0.529167,-0.26459 z"
       id="path1733"
       style="clip-rule:evenodd;fill:#898989;fill-rule:nonzero;stroke-width:0.264583;image-rendering:optimizeQuality;shape-rendering:geometricPrecision;text-rendering:geometricPrecision" />
    <path
       class="fil2"
       d="m 59.660181,128.10465 c -0.529166,-0.52916 -2.116666,-0.79375 -3.96875,0 -2.116666,0.79375 -2.910416,0.26459 -2.910416,0.26459 0,0 0.264583,1.05833 -0.264583,1.5875 -0.264584,0.52916 0.264583,0 0.529166,0 0,0 -0.79375,2.91041 -0.529166,3.70416 0,0.79375 1.5875,0.52917 2.645833,1.32292 0,0 0.264583,0.52917 0.529166,0.79375 0,0 0,0.26458 0,0.26458 0,0 0.264584,1.85209 -0.264583,3.175 -0.529167,1.05834 -0.79375,1.32292 -0.79375,1.32292 0,0 3.439583,-0.52917 3.96875,0.26458 0.529167,0.52917 2.116667,-2.38125 -1.322917,-4.7625 -0.264583,-0.26458 -0.79375,-0.52916 -1.322916,-0.79375 -0.264584,-0.52916 -0.264584,-1.32291 -0.529167,-1.5875 -0.264583,-0.52916 -0.529167,-1.05833 -0.79375,-1.5875 -0.529166,-0.79375 -0.264583,-1.05833 -0.264583,-1.05833 0,-0.26458 0.529166,0.52917 1.5875,0.79375 1.058333,0.26458 1.852083,0 2.910416,-0.79375 0,0 0,0 0,0 -0.264583,0 -0.79375,0.26458 -1.322916,0.26458 -0.79375,0 0.79375,-0.52916 0.79375,-0.79375 0,-0.26458 -0.79375,0.26459 -1.058334,0.26459 -0.529166,0 -0.79375,-0.26459 -1.058333,-0.26459 -0.264583,0 -1.322917,-0.52916 -1.058333,-0.79375 0.529166,-0.52916 2.645833,-1.05833 2.910416,-0.79375 0.529167,0.26459 0.529167,0.52917 0.264584,1.05834 -0.264584,0.26458 0,0.26458 0.264583,0.26458 0,0 0.529167,0 0.79375,0 0,0 0.264583,-0.26458 0.264583,-0.26458 0.264584,0.26458 0.79375,-1.05834 0,-1.85209 z"
       id="path1735"
       style="clip-rule:evenodd;fill:#898989;fill-rule:nonzero;stroke-width:0.264583;image-rendering:optimizeQuality;shape-rendering:geometricPrecision;text-rendering:geometricPrecision" />
    <path
       class="fil2"
       d="m 50.399765,131.54424 c 0,0 -1.058333,1.85208 -1.058333,2.91041 0,1.05834 -2.38125,4.49792 -2.38125,5.29167 0,0.52917 1.058333,1.85208 1.058333,1.85208 0,0.26459 1.5875,-0.26458 1.5875,-0.26458 0,0 -0.79375,-0.79375 -0.79375,-2.11667 0.264583,-1.32291 1.058333,-2.64583 1.058333,-3.175 0.264584,-2.38125 1.322917,-3.96875 1.058334,-4.23333 -0.264584,-0.52917 -0.264584,0 -0.529167,-0.26458 z"
       id="path1737"
       style="clip-rule:evenodd;fill:#898989;fill-rule:nonzero;stroke-width:0.264583;image-rendering:optimizeQuality;shape-rendering:geometricPrecision;text-rendering:geometricPrecision" />
    <path
       class="fil0"
       d="m 53.310182,161.70674 c 0.264583,-1.05834 0.529166,-2.64584 -0.264584,-3.43959 -0.529166,1.05834 -0.79375,2.11667 -1.322916,3.175 0,0.26459 -0.264584,0.26459 -0.264584,0.26459 h -0.264583 c 0.79375,-2.11667 0.79375,-5.29167 1.322917,-7.67292 0,-0.52917 0.264583,-1.05833 0.529166,-1.32292 -2.38125,-1.05833 -3.704166,-3.43958 -5.291666,-5.29166 0,0 0,0 0,0.26458 0.264583,1.85208 1.322916,4.23333 1.5875,6.35 0.264583,2.64583 0.529166,5.55625 1.322916,7.67292 H 28.703932 v 0 c -1.058333,0 -1.852083,-0.79375 -1.852083,-1.85209 v -7.40833 c 2.910416,-1.85208 7.937499,-3.96875 9.260416,-4.7625 2.910417,-1.32292 6.085417,-2.64583 8.466667,-4.23333 -0.529167,-2.64584 -0.79375,-3.70417 -1.322917,-4.49792 -0.529167,-1.85208 -0.264583,-1.85208 -0.79375,-3.175 -0.264583,-0.79375 -2.645833,-2.91042 -1.322917,-3.70417 -0.529166,-0.79375 -0.79375,-1.5875 -1.322916,-2.64583 -0.79375,-1.5875 -2.116667,-2.38125 -2.116667,-4.49792 -0.264583,-0.52916 0,-1.05833 0,-1.5875 -0.529167,-0.52916 0,-1.85208 0.529167,-2.11666 -0.264584,0 -0.264584,-0.26459 -0.264584,-0.26459 -0.264583,-0.79375 0.264584,-1.32291 0.529167,-1.85208 0,0 -0.264583,0 -0.264583,0 -0.264584,-0.79375 0.264583,-1.32292 0.529166,-1.5875 -0.79375,-0.52917 0.529167,-1.5875 1.058334,-2.11667 0.264583,-0.52916 1.322916,-1.32291 2.38125,-0.79375 0,-0.26458 -0.264584,-0.26458 -0.264584,-0.52916 0.79375,-0.26459 1.322917,0.26458 1.852084,0.26458 0,-0.52917 -0.529167,-0.26458 -0.529167,-0.79375 0,-0.26458 1.058333,-0.26458 1.322917,-0.52917 0.264583,0 0,0 0,0 0.264583,-0.26458 0.264583,-0.26458 0.529166,-0.26458 0,0 -0.264583,0 -0.264583,-0.26458 0.264583,0 0.529167,0 0.529167,0 0.264583,0 0,0 0.264583,-0.26459 0,0 0.264583,0 0.529167,0 -0.264584,-0.52916 0.529166,-0.26458 0.79375,-0.26458 0,-0.26458 -0.264584,-0.26458 -0.264584,-0.26458 0,-0.52917 0.529167,-0.52917 1.058334,-0.26459 -0.264584,-0.52916 0.264583,-0.79375 0.79375,-0.52916 0,-0.26459 -0.264584,-0.26459 0,-0.52917 0.264583,-0.26458 0.529166,0 1.058333,-0.26458 0.264583,0 0.529167,-0.79375 1.058333,-0.52917 0,-0.26458 -0.264583,-0.26458 0,-0.26458 0.529167,-0.52917 1.322917,-0.26459 2.116667,-0.26459 0.529167,0 1.322917,-0.52916 1.5875,0 0.529166,-0.26458 1.058333,-0.26458 1.322916,0 0.264584,-0.52916 1.058334,-0.52916 1.058334,0 0.79375,-0.52916 1.058333,0.52917 1.852083,0.52917 0,0 0.264583,0 0.264583,0 0.264584,0 0.264584,0.26458 0.529167,0.52917 0.264583,0 0.79375,0 1.058333,0.26458 0,0.26458 0,0.26458 0,0.52917 0.529167,0 0.79375,0.52916 1.058334,0.79375 0.529166,0.26458 1.322916,0.26458 1.5875,0.79375 0.529166,0.52916 0.79375,1.05833 1.058333,1.5875 0.529167,0.52916 1.058333,1.05833 1.322917,1.5875 0,0.26458 0,0.52916 0.264583,0.79375 0,0.26458 0.529167,0.26458 0.529167,0.79375 0.264583,0.79375 0.529166,2.11666 0.79375,3.175 0.264583,0.52916 0,1.05833 0.264583,1.5875 0.264583,1.32291 0.264583,3.175 0.264583,4.23333 0.79375,0 1.5875,1.05833 1.5875,1.85208 0,0.26459 0,0.79375 0,1.05834 0,1.85208 -1.058333,3.43958 -1.058333,5.29166 0,0.52917 0,1.05834 -0.264583,1.85209 0,0.79375 -0.529167,1.5875 -1.5875,1.32291 0,0.52917 -0.264584,1.05834 0,1.5875 1.058333,1.05834 3.439583,0.79375 4.233333,2.11667 0.529167,0.52917 0.79375,1.05833 1.322917,1.32292 1.322916,0.52916 2.38125,1.05833 3.175,1.85208 1.058333,0.52917 1.852083,1.05833 3.175,1.5875 0.529166,0.26458 3.439583,1.32292 5.027083,2.38125 v 11.37708 0 c 0,1.05834 -0.79375,1.85209 -1.852084,1.85209 H 64.687265 c 0.264583,-2.38125 0.529166,-4.7625 0.529166,-7.14375 -0.264583,2.38125 -1.058333,4.23333 -1.852083,6.08541 -1.322917,-1.5875 -2.645833,-3.43958 -4.233333,-5.02708 -0.264584,0.52917 -0.79375,1.32292 -1.058334,2.11667 -0.529166,0.79375 -1.852083,1.85208 -1.058333,3.175 0,0.26458 0.264583,0.52916 0.264583,0.79375 z m -0.79375,-11.90625 c 0.79375,0.79375 4.762499,1.32291 4.497916,-0.79375 -1.322917,0.26458 -3.704166,0 -5.027083,-0.26459 0,0.26459 0.264583,0.79375 0.529167,1.05834 z m 20.372916,-5.55625 c 0.79375,1.05833 2.38125,2.11666 3.175,3.175 0.529167,1.05833 1.058333,2.11666 1.5875,2.91041 0.79375,1.05834 1.5875,1.5875 2.38125,2.38125 0,-1.85208 -0.264583,-3.70416 -0.529167,-5.29166 -0.264583,-0.52917 -0.529166,-0.52917 -1.058333,-0.79375 -1.322917,-0.52917 -2.38125,-1.05834 -3.704167,-1.85209 -0.79375,-0.79375 -1.852083,-1.5875 -2.910416,-1.85208 -0.264584,0.26458 0.79375,1.32292 1.058333,1.32292 z m -7.14375,-3.175 c -0.264583,0.79375 -0.264583,1.32291 -0.529167,2.11666 -0.264583,0.79375 -1.058333,1.5875 -1.322916,2.38125 -0.529167,1.05834 -1.058334,2.11667 -2.116667,2.64584 -0.264583,1.32291 -1.5875,1.85208 -2.38125,2.64583 -0.79375,0.52917 -1.5875,1.32292 -2.645833,1.5875 0.529166,0.79375 1.322916,1.5875 2.116666,2.38125 1.5875,1.5875 3.175,3.43958 4.7625,5.29167 1.322917,-3.175 1.852084,-7.67292 2.116667,-12.17084 0,-2.38125 0.529167,-4.7625 0.264583,-6.87916 0,0 0,0 0,0 0,0 -0.264583,0 -0.264583,0 z m 7.408333,9.78958 c -0.264583,-2.38125 -1.058333,-5.55625 -2.116666,-7.67292 -0.529167,-1.85208 -2.116667,-2.91041 -3.96875,-3.175 0,0 0,0 0,0 0.79375,4.23334 0.264583,8.73125 0.264583,12.96459 1.058333,-1.5875 1.5875,-3.70417 2.645833,-5.02709 0.79375,-0.52916 1.322917,-0.26458 1.5875,0.52917 0.79375,1.05833 1.322917,3.175 1.852084,4.49792 0,-0.79375 0,-1.32292 -0.264584,-2.11667 z M 42.462265,133.92549 c -0.264583,-0.79375 -1.058333,-1.85209 -1.5875,-1.32292 0.529167,1.32292 1.322917,2.11667 1.852083,3.175 -0.264583,-0.52917 0,-1.32292 -0.264583,-1.85208 z m 20.6375,-6.08542 c -0.529167,-0.52917 -1.5875,-0.52917 -2.116667,-1.5875 -0.264583,-1.05833 0.264583,-2.11667 0.264583,-3.43958 0,-0.52917 -0.264583,-1.32292 -0.264583,-1.85209 -0.264583,-1.32291 -0.529167,-2.64583 -1.5875,-3.175 -0.529167,-0.26458 -0.529167,-0.26458 -1.058333,-0.52916 -0.264584,0 -0.79375,-0.79375 -1.5875,-0.52917 -0.529167,0.26458 -1.322917,1.85208 -1.852084,2.11667 -0.264583,0 -0.264583,-0.26459 -0.793749,-0.26459 0,0.26459 -0.529167,0.52917 -0.79375,0.26459 0,0.26458 0,0.26458 -0.264584,0.52916 -0.264583,-0.52916 -0.529166,0 -0.79375,0 -0.264583,0 -0.264583,0 -0.529166,0 -0.264584,0 -0.264584,0.26459 -0.529167,0.26459 -0.264583,0 -0.529167,0 -0.79375,0 -0.79375,0 -1.5875,0 -2.38125,0 -1.322917,0.26458 -2.38125,1.05833 -3.439583,1.05833 -0.79375,0 -1.322917,0 -1.852084,0.52917 -0.264583,0.26458 -0.529166,0.52916 -0.79375,1.05833 0,0.52917 0,1.32292 0,1.85208 0,1.5875 0.264584,2.91042 0.264584,4.49792 0,0.26458 0,0.79375 0,1.05833 0,0.52917 0.264583,1.05834 0.264583,1.5875 0,0.26459 0,0.79375 0,1.05834 0,0.52916 0.264583,0.79375 0.264583,1.32291 0.264584,1.5875 0.264584,2.91042 0.529167,4.23334 0,0.26458 0.529167,0.79375 0.529167,1.32291 0.529166,1.32292 0.79375,2.64584 1.058333,3.70417 0.79375,1.85208 2.116667,3.175 3.175,4.49792 1.058333,1.05833 1.852083,2.11666 2.910417,3.175 0.264583,0.52916 1.058333,1.32291 1.5875,1.5875 0.79375,0.26458 1.5875,0.52916 2.381249,0.52916 0.529167,-0.26458 1.058334,-0.52916 1.852084,-0.79375 0.79375,-0.26458 1.5875,-0.52916 2.38125,-1.05833 0.79375,-0.79375 1.5875,-1.32292 2.116666,-1.85208 0.264584,-0.26459 0.264584,-0.79375 0.529167,-0.79375 0.264583,-0.52917 0.529167,-0.79375 0.79375,-1.32292 -1.322917,0.79375 -2.910417,1.05833 -3.704167,2.11667 -1.058333,1.05833 -1.5875,2.38125 -3.439583,2.38125 -1.058333,0.26458 -2.645833,0.26458 -3.439583,-0.26459 -0.79375,-0.52916 -1.058333,-1.5875 -1.5875,-2.38125 -0.264583,-0.26458 -0.79375,-0.52916 -1.058333,-0.79375 -0.264584,-0.26458 -0.79375,-0.26458 -1.058334,-0.52916 -0.529166,-0.52917 -0.529166,-1.5875 -0.79375,-2.11667 0,-0.26458 -0.264583,-0.26458 -0.264583,-0.52917 0.529167,0 0.79375,1.05834 1.058333,1.5875 0.79375,0.79375 2.116667,1.5875 3.439584,1.85209 3.174999,0.26458 5.820833,0.26458 7.408333,-1.5875 0.79375,-0.79375 1.322916,-1.85209 1.5875,-2.91042 0,-1.5875 0.529166,-1.32292 0.529166,-0.79375 0,0.79375 -0.264583,2.64583 -0.529166,3.175 2.645833,-1.32292 3.439583,-5.02708 3.96875,-6.61458 0.529166,1.32291 0,3.175 -0.264584,4.49791 0.79375,-1.05833 1.322917,-3.70416 1.5875,-5.55625 0,-0.26458 0,-1.05833 0,-1.32291 0.264584,0 0.79375,0.26458 1.058334,0.26458 0.529166,-0.52917 0.79375,-1.32292 0.79375,-2.11667 0,-1.85208 0.264583,-3.43958 0.79375,-4.7625 0.264583,-0.52916 0.264583,-1.05833 0.264583,-1.5875 0.264583,-1.05833 -0.529167,-2.11666 -1.322917,-1.85208 -0.264583,0 -0.79375,0.26458 -1.058333,0.52917 -0.79375,0.79375 -1.322917,1.85208 -2.38125,2.38125 -0.264583,-0.79375 -0.529167,-1.5875 -1.058333,-2.11667 z"
       id="path1739"
       style="clip-rule:evenodd;fill:#2b2a29;fill-rule:nonzero;stroke-width:0.264583;image-rendering:optimizeQuality;shape-rendering:geometricPrecision;text-rendering:geometricPrecision" />
    <path
       class="fil0"
       d="m 56.749765,122.81299 c -1.5875,0 -2.910417,0.52916 -3.96875,1.05833 -0.79375,0.26458 -1.5875,0.52917 -2.645833,0.52917 -1.322917,0 -3.175,0.26458 -4.497917,0.79375 0.529167,-0.79375 2.116667,-0.79375 3.175,-1.05834 0.529167,0 1.058333,-0.26458 1.5875,-0.26458 1.322917,0 2.38125,-0.52917 3.439583,-0.79375 0.79375,-0.26458 2.116667,-0.79375 2.910417,-0.26458 z"
       id="path1741"
       style="clip-rule:evenodd;fill:#2b2a29;fill-rule:nonzero;stroke-width:0.264583;image-rendering:optimizeQuality;shape-rendering:geometricPrecision;text-rendering:geometricPrecision" />
    <path
       class="fil0"
       d="m 56.749765,124.40049 c -0.264584,0 -2.116667,0 -2.910417,0.26458 -1.322916,0.26458 -2.116666,1.05833 -3.439583,1.05833 -0.529167,0 -1.058333,0 -1.5875,0.26459 -0.529167,0 -1.322917,0 -2.116667,0.26458 1.058334,-0.52917 2.645834,-0.79375 3.175,-0.79375 1.852084,0 3.175,-1.05833 4.7625,-1.32292 0.529167,0 1.5875,0 2.116667,0.26459 z"
       id="path1743"
       style="clip-rule:evenodd;fill:#2b2a29;fill-rule:nonzero;stroke-width:0.264583;image-rendering:optimizeQuality;shape-rendering:geometricPrecision;text-rendering:geometricPrecision" />
    <path
       class="fil0"
       d="m 59.924765,128.63382 c -0.79375,-0.52917 -1.322917,-0.79375 -2.38125,-0.79375 -1.322917,0.26458 -2.910417,1.32292 -4.233333,1.32292 -0.529167,0 -0.79375,-0.52917 -0.79375,-1.05834 0.264583,0.52917 0.79375,0 0.79375,-0.52916 0.264583,0.79375 0.79375,0.52916 1.322916,0.26458 0,0 0.264583,0 0.264583,0 0.264584,0 0.529167,-0.26458 0.79375,-0.52917 0.529167,0.79375 1.058334,-0.79375 1.5875,-0.26458 1.322917,0 2.38125,0.52917 2.645834,1.5875 z"
       id="path1745"
       style="clip-rule:evenodd;fill:#2b2a29;fill-rule:nonzero;stroke-width:0.264583;image-rendering:optimizeQuality;shape-rendering:geometricPrecision;text-rendering:geometricPrecision" />
    <path
       class="fil0"
       d="m 53.839348,136.30674 c 0.529167,0 0.79375,0 1.322917,0 0.264583,-0.79375 -0.529167,-1.5875 -0.79375,-1.85209 0.79375,-0.26458 1.322916,0.79375 1.852083,1.32292 0.529167,0.26458 1.322917,0.52917 1.322917,1.32292 -0.529167,-0.52917 -1.058334,-0.79375 -1.5875,-1.05834 0,0.26459 0,0.52917 -0.264584,0.79375 -0.264583,0.52917 -0.79375,0.26459 -1.587499,0.52917 -0.79375,0.26458 -1.322917,1.5875 -2.645834,0.79375 -0.529166,-0.79375 -2.116666,-0.26458 -1.852083,-2.11667 -0.79375,1.5875 -2.116667,2.38125 -2.38125,4.23334 -0.264583,-1.05834 0.529167,-1.85209 1.322917,-2.91042 0.529166,-1.05833 0.529166,-2.11667 1.322916,-3.175 0,0.52917 -0.264583,0.79375 -0.264583,1.32292 0.529167,-0.79375 0.79375,-1.85209 0.79375,-2.91042 0.264583,-1.05833 0,-1.85208 -0.264583,-2.91042 -1.058334,0.52917 -2.116667,0 -3.175,0.26459 -0.264584,0 -0.529167,0.26458 -1.058334,0.26458 -0.264583,0 -0.79375,-0.26458 -1.322916,-0.26458 -0.529167,0 -0.79375,1.05833 -0.79375,1.5875 -0.79375,-3.175 3.96875,-2.64584 5.820833,-2.38125 0.529167,-1.05834 0.79375,0.52916 1.058333,0.79375 0.264584,0.79375 0.529167,1.05833 0.264584,2.11666 -0.264584,1.05834 -0.79375,2.91042 -0.529167,4.23334 0.264583,1.85208 2.645833,1.05833 3.439583,0 z"
       id="path1747"
       style="clip-rule:evenodd;fill:#2b2a29;fill-rule:nonzero;stroke-width:0.264583;image-rendering:optimizeQuality;shape-rendering:geometricPrecision;text-rendering:geometricPrecision" />
    <path
       class="fil0"
       d="m 68.126848,128.8984 c -0.264583,-0.26458 -0.264583,-0.79375 -0.529167,-0.79375 -0.79375,0 -1.322916,1.05834 -1.322916,2.11667 0,0.52917 0.264583,1.05833 0.264583,1.5875 0,0.26458 -0.264583,0.26458 -0.264583,0.52917 0,0.26458 0.529166,0.26458 0.529166,0.52916 -0.264583,0.26459 -0.79375,0.26459 -0.79375,0 -0.529166,-0.26458 0.264584,-1.05833 0,-1.5875 0,-0.79375 -1.058333,-0.79375 -0.529166,-1.5875 0,0 0.264583,-0.26458 0.264583,-0.26458 0.529167,-0.52917 0.79375,-1.85208 1.852083,-1.85208 0.529167,0 0.79375,1.05833 0.529167,1.32291 z"
       id="path1749"
       style="clip-rule:evenodd;fill:#2b2a29;fill-rule:nonzero;stroke-width:0.264583;image-rendering:optimizeQuality;shape-rendering:geometricPrecision;text-rendering:geometricPrecision" />
    <path
       class="fil0"
       d="m 60.718515,129.16299 c -0.264584,0.26458 -0.529167,0.52916 -0.79375,0.52916 0.264583,0.26459 1.058333,0.26459 1.5875,0.26459 -0.264584,0.26458 -1.058334,0.26458 -1.5875,0.26458 -0.264584,-0.26458 -0.264584,-0.26458 -0.529167,-0.26458 -0.264583,0 -0.264583,0.52916 -0.79375,0.52916 0,0 0.529167,-0.52916 0.529167,-0.79375 -0.264584,0 -0.264584,0 -0.264584,0 -0.264583,0 -0.529166,0.52917 -1.058333,0.52917 0.264583,-0.26458 1.058333,-1.05833 0.264583,-1.32292 0,1.05834 -0.79375,1.32292 -1.5875,1.05834 -0.264583,-0.26459 -0.264583,-0.26459 -0.264583,-0.52917 -0.79375,-0.26458 -1.322917,0.52917 -0.529167,0.79375 -0.529166,0.26458 -1.058333,0 -1.322916,-0.26458 0.264583,-0.26459 0.264583,0 0.529166,-0.26459 0,-0.52916 2.38125,-1.32291 3.175,-1.05833 0.529167,0.26458 0.79375,0.79375 1.322917,0.79375 0.529167,0.26458 1.058333,-0.26458 1.322917,-0.26458 z"
       id="path1751"
       style="clip-rule:evenodd;fill:#2b2a29;fill-rule:nonzero;stroke-width:0.264583;image-rendering:optimizeQuality;shape-rendering:geometricPrecision;text-rendering:geometricPrecision" />
    <path
       class="fil0"
       d="m 49.870598,130.4859 c 0,0.79375 -1.058333,0.52917 -1.5875,0.26459 0.264584,1.32291 -1.5875,1.5875 -1.852083,0.52916 -1.058333,0 -0.79375,1.05834 -1.322917,1.32292 -0.264583,0.26458 -0.79375,0.52917 -1.058333,0 1.058333,0 1.058333,-0.79375 1.322917,-1.32292 0.529166,-0.52916 1.5875,-0.79375 2.38125,-0.79375 1.058333,0 1.5875,0.26459 2.116666,0 z"
       id="path1753"
       style="clip-rule:evenodd;fill:#2b2a29;fill-rule:nonzero;stroke-width:0.264583;image-rendering:optimizeQuality;shape-rendering:geometricPrecision;text-rendering:geometricPrecision" />
    <path
       class="fil0"
       d="m 66.274765,134.71924 c 0.264583,0.26458 0.529166,1.32291 0,1.5875 0,-0.52917 -0.529167,-1.32292 0,-1.5875 z"
       id="path1755"
       style="clip-rule:evenodd;fill:#2b2a29;fill-rule:nonzero;stroke-width:0.264583;image-rendering:optimizeQuality;shape-rendering:geometricPrecision;text-rendering:geometricPrecision" />
    <path
       class="fil0"
       d="m 58.866431,140.80465 c -0.264583,-0.26458 0,-0.52916 -0.264583,-0.52916 0,0 -0.529167,0 -0.79375,0 0.529167,-0.52917 1.058333,-1.05834 0.79375,-2.38125 0,0 0.264583,0 0.264583,0 0.529167,0.79375 0.79375,2.64583 0,2.91041 z"
       id="path1757"
       style="clip-rule:evenodd;fill:#2b2a29;fill-rule:nonzero;stroke-width:0.264583;image-rendering:optimizeQuality;shape-rendering:geometricPrecision;text-rendering:geometricPrecision" />
    <path
       class="fil0"
       d="m 48.018515,142.12757 c 0,-0.52917 0,-0.79375 0,-1.05833 0.264583,0 0.264583,0.26458 0.529167,0.26458 0.79375,0.26458 1.852083,-0.52917 2.645833,-0.79375 0.529167,0 1.058333,0.26458 1.852083,0.26458 0.264584,-0.26458 0.529167,-0.52916 1.058334,-0.52916 0.793749,-0.26459 1.587499,0.26458 2.645833,0 0.264583,0 0.79375,-0.26459 0.79375,0 0,0.26458 -0.529167,0.52916 -0.529167,0.52916 -1.058333,0.26459 -2.116667,0.26459 -3.175,0.52917 -0.529166,0 -0.79375,0.26458 -1.058333,0.26458 -0.264583,0 -0.264583,0 -0.529167,0 -0.79375,0 -2.116666,0.26459 -3.175,0.26459 -0.529166,-0.26459 -0.79375,-0.26459 -1.058333,0.26458 z"
       id="path1759"
       style="clip-rule:evenodd;fill:#2b2a29;fill-rule:nonzero;stroke-width:0.264583;image-rendering:optimizeQuality;shape-rendering:geometricPrecision;text-rendering:geometricPrecision" />
    <path
       class="fil0"
       d="m 61.776848,140.80465 c 0.264583,0 0.529167,0 0.79375,-0.52916 0,1.05833 -0.79375,1.32291 -1.058333,1.85208 -0.264584,0.52917 -0.264584,1.32292 -0.79375,1.5875 0,-0.52917 0,-1.32292 0,-1.85208 0.529166,-0.26459 0.79375,-1.05834 0.79375,-2.11667 0,0 0.529166,0.26458 0.264583,1.05833 z"
       id="path1761"
       style="clip-rule:evenodd;fill:#2b2a29;fill-rule:nonzero;stroke-width:0.264583;image-rendering:optimizeQuality;shape-rendering:geometricPrecision;text-rendering:geometricPrecision" />
    <path
       class="fil2"
       d="m 73.418515,152.97549 c -0.529167,-1.32292 -1.058334,-3.43959 -1.852084,-4.49792 -0.264583,-0.79375 -0.79375,-1.05833 -1.5875,-0.52917 -1.058333,1.32292 -1.5875,3.43959 -2.645833,5.02709 0,-4.23334 0.529167,-8.73125 -0.264583,-12.96459 0,0 0,0 0,0 1.852083,0.26459 3.439583,1.32292 3.96875,3.175 1.058333,2.11667 1.852083,5.29167 2.116666,7.67292 0.264584,0.79375 0.264584,1.32292 0.264584,2.11667 z"
       id="path1763"
       style="clip-rule:evenodd;fill:#898989;fill-rule:nonzero;stroke-width:0.264583;image-rendering:optimizeQuality;shape-rendering:geometricPrecision;text-rendering:geometricPrecision" />
    <path
       class="fil3"
       d="m 66.010181,141.06924 c 0,0 0,0 0,0 0.264584,2.11666 -0.264583,4.49791 -0.264583,6.87916 -0.264583,4.49792 -0.79375,8.99584 -2.116667,12.17084 -1.5875,-1.85209 -3.175,-3.70417 -4.7625,-5.29167 -0.79375,-0.79375 -1.5875,-1.5875 -2.116666,-2.38125 1.058333,-0.26458 1.852083,-1.05833 2.645833,-1.5875 0.79375,-0.79375 2.116667,-1.32292 2.38125,-2.64583 1.058333,-0.52917 1.5875,-1.5875 2.116667,-2.64584 0.264583,-0.79375 1.058333,-1.5875 1.322916,-2.38125 0.264584,-0.79375 0.264584,-1.32291 0.529167,-2.11666 0,0 0.264583,0 0.264583,0 z"
       id="path1765"
       style="clip-rule:evenodd;fill:#fefefe;fill-rule:nonzero;stroke-width:0.264583;image-rendering:optimizeQuality;shape-rendering:geometricPrecision;text-rendering:geometricPrecision" />
    <path
       class="fil0"
       d="m 57.014348,141.5984 c -0.79375,1.5875 -4.233333,1.85209 -6.085416,1.5875 0.529166,-0.26458 1.058333,-0.26458 1.852083,-0.26458 1.322917,0 2.910416,-0.26458 3.704166,-0.79375 0,0 0.529167,-0.52917 0.529167,-0.52917 z"
       id="path1767"
       style="clip-rule:evenodd;fill:#2b2a29;fill-rule:nonzero;stroke-width:0.264583;image-rendering:optimizeQuality;shape-rendering:geometricPrecision;text-rendering:geometricPrecision" />
    <path
       class="fil0"
       d="m 54.897681,143.45049 c 0.264584,0 0.529167,0 0.529167,0.52916 -0.79375,-0.26458 -2.645833,0.52917 -3.704166,0.52917 -0.264584,0 -0.529167,0 -0.529167,-0.26458 -0.529167,-0.26459 -0.529167,-0.52917 -0.79375,-0.79375 0.529167,0 0.79375,0.79375 1.322917,0.79375 0.79375,0 2.38125,-1.05834 3.174999,-0.79375 z"
       id="path1769"
       style="clip-rule:evenodd;fill:#2b2a29;fill-rule:nonzero;stroke-width:0.264583;image-rendering:optimizeQuality;shape-rendering:geometricPrecision;text-rendering:geometricPrecision" />
    <path
       class="fil2"
       d="m 71.831015,142.92132 c 1.058333,0.26458 2.116666,1.05833 2.910416,1.85208 1.322917,0.79375 2.38125,1.32292 3.704167,1.85209 0.529167,0.26458 3.704166,1.5875 4.7625,2.38125 v 6.61458 c -1.5875,-1.32292 -4.7625,-4.49792 -5.55625,-5.29167 -0.529167,-0.79375 -1.058333,-1.85208 -1.5875,-2.91041 -0.79375,-1.05834 -2.38125,-2.11667 -3.175,-3.175 -0.264583,0 -1.322917,-1.05834 -1.058333,-1.32292 z"
       id="path1771"
       style="clip-rule:evenodd;fill:#898989;fill-rule:nonzero;stroke-width:0.264583;image-rendering:optimizeQuality;shape-rendering:geometricPrecision;text-rendering:geometricPrecision" />
    <path
       class="fil3"
       d="m 47.753932,147.41924 c 1.5875,1.85208 2.910416,4.23333 5.291666,5.29166 -0.264583,0.26459 -0.529166,0.79375 -0.529166,1.32292 -0.529167,2.38125 -0.529167,5.55625 -1.322917,7.67292 h -0.529167 c -0.79375,-2.11667 -1.058333,-5.02709 -1.322916,-7.67292 -0.264584,-2.11667 -1.322917,-4.49792 -1.5875,-6.35 0,-0.26458 0,-0.26458 0,-0.26458 z"
       id="path1773"
       style="clip-rule:evenodd;fill:#fefefe;fill-rule:nonzero;stroke-width:0.264583;image-rendering:optimizeQuality;shape-rendering:geometricPrecision;text-rendering:geometricPrecision" />
    <path
       class="fil3"
       d="m 65.216431,154.56299 c 0,2.38125 -0.264583,4.7625 -0.529166,7.14375 h -7.408334 c 0,-0.26459 -0.264583,-0.52917 -0.264583,-0.79375 -0.79375,-1.32292 0.529167,-2.38125 1.058333,-3.175 0.264584,-0.79375 0.79375,-1.5875 1.058334,-2.11667 1.5875,1.5875 2.910416,3.43958 4.233333,5.02708 0.79375,-1.85208 1.5875,-3.70416 1.852083,-6.08541 z"
       id="path1775"
       style="clip-rule:evenodd;fill:#fefefe;fill-rule:nonzero;stroke-width:0.264583;image-rendering:optimizeQuality;shape-rendering:geometricPrecision;text-rendering:geometricPrecision" />
    <path
       class="fil3"
       d="m 51.458098,161.70674 c 0,0 0.264584,0 0.264584,-0.26459 0.529166,-1.05833 0.79375,-2.11666 1.322916,-3.175 0.79375,0.79375 0.529167,2.38125 0.264584,3.43959 z"
       id="path1777"
       style="clip-rule:evenodd;fill:#fefefe;fill-rule:nonzero;stroke-width:0.264583;image-rendering:optimizeQuality;shape-rendering:geometricPrecision;text-rendering:geometricPrecision" />
    <path
       class="fil5"
       d="m 56.485181,110.37757 c 0,-0.26458 -0.264583,-0.52917 -0.264583,-0.79375 1.322917,-0.52917 1.852083,0.79375 2.38125,1.5875 0.529167,-0.26458 0.529167,-0.79375 1.322917,-0.52917 0,1.05834 -0.79375,1.85209 -1.058334,2.91042 -0.264583,0 -0.264583,-0.26458 -0.264583,-0.26458 -0.264583,0.52916 -0.529167,1.5875 -1.058333,2.11666 0,0.26459 -0.529167,1.05834 -0.79375,1.32292 -0.529167,0 -0.79375,-0.79375 -0.79375,-1.05833 -0.529167,0 -0.529167,0.79375 -1.058334,0.79375 0,0 0,-0.26459 -0.264583,-0.26459 0,0 0,0.52917 -0.264583,0.52917 -0.264583,0 0,-0.26458 -0.264583,-0.52917 -0.264584,0.52917 -0.264584,1.05834 -0.79375,1.05834 0,0 0,0 -0.264584,-0.26459 0,1.05834 -0.529166,0.26459 -0.79375,-0.26458 -0.264583,0.26458 -0.264583,0.79375 -0.79375,0.79375 -0.264583,0 -0.79375,-1.32292 -1.058333,-1.5875 -0.79375,-0.79375 -2.38125,-2.91042 -3.175,-3.96875 1.5875,0 2.116667,0.79375 2.645833,1.32292 0,-0.52917 -0.264583,-1.05834 -0.529166,-1.32292 0.529166,0 1.322916,0.79375 1.5875,0.79375 -0.264584,-0.52917 -0.264584,-0.79375 -0.529167,-1.05833 0.529167,0 1.058333,0.26458 1.5875,0.26458 0,0 0,-0.26458 0,-0.26458 0.264583,0 0.264583,0 0.529167,0 0,-0.26459 -0.264584,-0.26459 -0.264584,-0.79375 0.529167,-0.26459 1.058334,0.26458 1.058334,0.52916 0.264583,0 0.264583,-0.26458 0.264583,-0.26458 0.264583,0 0.264583,0.26458 0.264583,0.26458 0.264584,-0.26458 0,-0.26458 0,-0.52916 0.264584,-0.26459 0.264584,0 0.529167,0 0,-0.52917 -0.529167,-0.79375 -0.79375,-1.32292 0.529167,0 1.058333,0.26458 1.5875,0.52917 0,0 -0.264584,-0.26459 -0.264584,-0.52917 0.529167,-0.79375 1.322917,0.52917 1.5875,0.79375 z"
       id="path1779"
       style="clip-rule:evenodd;fill:#c5c6c6;fill-rule:evenodd;stroke-width:0.264583;image-rendering:optimizeQuality;shape-rendering:geometricPrecision;text-rendering:geometricPrecision" />
    <path
       class="fil6"
       d="m 61.776848,113.81715 c -0.264583,0.52917 -0.79375,0.79375 -1.058333,1.32292 0.529166,0.26458 1.322916,0.26458 1.5875,0.79375 0.264583,0 0,0 0,0.26458 0.529166,0.26459 1.322916,0.26459 1.5875,1.05834 -0.529167,0 -0.79375,0 -1.5875,0 -1.058334,0.26458 -1.852084,0.79375 -2.38125,0.52916 0,-0.52916 0.264583,-0.79375 0.264583,-1.05833 -0.264583,-0.26458 -0.529167,0.26458 -0.79375,0.26458 -0.529167,-0.52916 0,-0.79375 0,-1.05833 -0.264583,-0.26458 -0.264583,0 -0.529167,0 0.264584,-1.05833 1.322917,-2.11667 2.910417,-2.11667 z"
       id="path1781"
       style="clip-rule:evenodd;fill:#898989;fill-rule:evenodd;stroke-width:0.264583;image-rendering:optimizeQuality;shape-rendering:geometricPrecision;text-rendering:geometricPrecision" />
    <path
       class="fil6"
       d="m 65.216431,128.63382 c 0,-2.11667 -1.322916,-2.64583 -1.5875,-4.23333 0,-1.5875 1.058334,-0.52917 1.5875,0 0,-1.05834 -1.058333,-1.05834 -1.058333,-2.11667 0.264583,0 0.264583,0.26458 0.529167,0.26458 0.264583,-0.52916 -0.529167,-0.79375 -0.529167,-1.32291 0.79375,0 1.058333,0.52916 1.5875,0.79375 0,-0.52917 -0.529167,-0.79375 -0.529167,-1.32292 0,0 0,0.26458 0.264584,0 -0.264584,-0.52917 -0.79375,-0.79375 -0.79375,-1.32292 0,0 0,-0.26458 0,-0.26458 2.645833,0.79375 2.38125,4.49792 2.645833,7.40833 -0.529167,0.26459 -1.5875,1.32292 -2.116667,2.11667 z"
       id="path1783"
       style="clip-rule:evenodd;fill:#898989;fill-rule:evenodd;stroke-width:0.264583;image-rendering:optimizeQuality;shape-rendering:geometricPrecision;text-rendering:geometricPrecision" />
    <path
       class="fil5"
       d="m 63.628931,122.81299 c -0.264583,0 -0.529166,-0.26459 -0.79375,-0.26459 0,0.79375 0.529167,1.32292 0.529167,2.11667 0,0 -0.264583,0 -0.264583,0 -0.79375,0 0.529166,1.32292 0,2.38125 -0.264584,-0.26458 -1.058334,-1.5875 -1.5875,-2.11667 -0.529167,-0.52916 0.264583,-1.5875 0,-2.91041 0,-0.79375 -0.529167,-1.32292 -0.529167,-1.85209 1.322917,0.26459 2.645833,1.05834 2.645833,2.64584 z"
       id="path1785"
       style="clip-rule:evenodd;fill:#c5c6c6;fill-rule:evenodd;stroke-width:0.264583;image-rendering:optimizeQuality;shape-rendering:geometricPrecision;text-rendering:geometricPrecision" />
    <path
       class="fil6"
       d="m 40.345598,121.49007 c 0,0.26458 -0.264583,0.52917 -0.264583,0.79375 0.529167,0 0.529167,-0.52917 1.058333,-0.52917 0,0.79375 -0.529166,1.05834 -0.529166,1.85209 0,0 0.264583,-0.26459 0.529166,-0.26459 -0.264583,0.52917 -0.264583,1.32292 -0.529166,1.85209 0,0 0,0 0,0.26458 0.264583,-0.26458 0.529166,-1.05833 1.058333,-1.05833 0,0.26458 -0.264583,1.32291 -0.529167,1.5875 -0.264583,1.32291 -0.529166,2.64583 -0.529166,3.70416 0,-0.26458 -0.264584,-1.05833 -0.264584,-1.5875 -0.264583,0 -0.264583,0.26459 -0.264583,0.26459 0,-0.52917 -0.264583,-1.5875 0,-2.11667 -0.264583,0 -0.264583,0.52917 -0.529167,0.52917 -0.264583,0 0,-1.05834 0,-1.32292 0,0 -0.264583,0.52917 -0.264583,0.52917 -0.264583,-0.26459 0,-0.79375 0,-1.05834 -0.264583,0 -0.529167,0.26459 -0.529167,0.26459 0.264584,-1.85209 0.529167,-3.175 1.5875,-3.70417 z"
       id="path1787"
       style="clip-rule:evenodd;fill:#898989;fill-rule:evenodd;stroke-width:0.264583;image-rendering:optimizeQuality;shape-rendering:geometricPrecision;text-rendering:geometricPrecision" />
    <path
       class="fil3"
       d="m 51.458098,127.57549 c 0,0.79375 0,1.5875 0.79375,1.32291 0.264584,0.79375 0,1.05834 -1.058333,1.32292 -0.264583,-0.26458 -0.529167,-0.79375 -0.529167,-1.32292 0.529167,0 0.264584,-1.05833 0.79375,-1.32291 z"
       id="path1789"
       style="clip-rule:evenodd;fill:#fefefe;fill-rule:nonzero;stroke-width:0.264583;image-rendering:optimizeQuality;shape-rendering:geometricPrecision;text-rendering:geometricPrecision" />
    <path
       class="fil3"
       d="m 47.224765,137.89424 c -0.264583,-2.38125 1.322917,-3.70417 2.116667,-4.7625 0.264583,1.5875 -1.5875,3.70416 -2.116667,4.7625 z"
       id="path1791"
       style="clip-rule:evenodd;fill:#fefefe;fill-rule:nonzero;stroke-width:0.264583;image-rendering:optimizeQuality;shape-rendering:geometricPrecision;text-rendering:geometricPrecision" />
    <path
       class="fil3"
       d="m 52.516432,134.71924 c 0.529166,0 2.116666,0.26458 2.381249,0.52916 0.264584,1.05834 -0.529166,0.79375 -0.793749,0.79375 -0.529167,0 -0.79375,0.52917 -1.322917,0.52917 -0.264583,-0.26458 -0.529167,-1.5875 -0.264583,-1.85208 z"
       id="path1793"
       style="clip-rule:evenodd;fill:#fefefe;fill-rule:nonzero;stroke-width:0.264583;image-rendering:optimizeQuality;shape-rendering:geometricPrecision;text-rendering:geometricPrecision" />
    <path
       class="fil3"
       d="m 60.453931,140.0109 c 0,0.52917 -0.264583,1.05834 -0.529166,1.32292 -0.264584,-0.26458 -0.264584,-0.26458 -0.529167,-0.52917 0.264583,-0.26458 0.264583,-1.85208 0,-2.38125 0.529167,0 1.058333,0.52917 1.058333,1.5875 z"
       id="path1795"
       style="clip-rule:evenodd;fill:#fefefe;fill-rule:nonzero;stroke-width:0.264583;image-rendering:optimizeQuality;shape-rendering:geometricPrecision;text-rendering:geometricPrecision" />
    <path
       class="fil3"
       d="m 47.224765,140.80465 c 0,0.26459 0.529167,1.05834 0.529167,1.32292 0,0.26458 -0.264584,0.79375 -0.529167,0.79375 -0.529167,-0.26458 -0.264583,-1.85208 0,-2.11667 z"
       id="path1797"
       style="clip-rule:evenodd;fill:#fefefe;fill-rule:nonzero;stroke-width:0.264583;image-rendering:optimizeQuality;shape-rendering:geometricPrecision;text-rendering:geometricPrecision" />
    <path
       class="fil3"
       d="m 51.722682,141.86299 c 0.264583,0 0.529166,0.26458 0.529166,0.26458 0.529167,0 0.79375,-0.52917 1.058334,-0.52917 0.79375,0 2.910416,-0.52916 3.439583,-0.52916 -0.264584,0.52916 -0.79375,0.79375 -1.322917,1.05833 -1.322916,0.52917 -3.439583,0.52917 -4.233333,0.79375 -1.5875,0 -2.116667,-0.52917 -2.38125,-0.79375 0.79375,0.26458 2.116667,-0.26458 2.910417,-0.26458 z"
       id="path1799"
       style="clip-rule:evenodd;fill:#fefefe;fill-rule:nonzero;stroke-width:0.264583;image-rendering:optimizeQuality;shape-rendering:geometricPrecision;text-rendering:geometricPrecision" />
    <path
       class="fil3"
       d="m 54.633098,144.50882 c 0.79375,0 1.322917,0 1.5875,0.79375 0.264583,0.52917 0.264583,1.32292 -0.529167,1.5875 -0.79375,0.52917 -3.968749,0.26458 -5.291666,0 -0.529167,0 -1.322917,-1.85208 -1.5875,-2.64583 3.175,1.5875 4.233333,0.52916 5.820833,0.26458 z"
       id="path1801"
       style="clip-rule:evenodd;fill:#fefefe;fill-rule:nonzero;stroke-width:0.264583;image-rendering:optimizeQuality;shape-rendering:geometricPrecision;text-rendering:geometricPrecision" />
    <path
       class="fil7"
       d="m 55.426848,110.11299 c 0.264583,0.26458 0.264583,1.05833 0.529167,1.05833 0.529166,-0.26458 0.264583,-0.79375 0.529166,-1.05833 0,0.26458 0,0.52916 0.264584,0.52916 0.264583,0 0.264583,-0.26458 0.264583,-0.26458 0,0.26458 0,0.79375 0.264583,0.79375 0.264584,-0.26458 0.264584,-0.52917 0.79375,-0.79375 0,0.26458 0,0.26458 0.264584,0.52917 0,0 -0.264584,0.26458 -0.264584,0.26458 0.264584,0 0.264584,0 0.529167,-0.26458 0,0 0,0.26458 0,0.26458 0.264583,-0.26458 0.529167,-0.52917 0.79375,-0.52917 0,0.26459 0,0.26459 0,0.26459 0,0 0,0 0.264583,0 0,0.26458 -0.264583,0.26458 -0.264583,0.52916 0,0.26459 0,0.26459 0,0.26459 0.264583,0 0.264583,-0.52917 0.79375,-0.52917 0,0.26458 -0.264583,0.26458 -0.264583,0.52917 0.529166,-0.26459 1.058333,-0.26459 1.322916,0 0,0.26458 0,0.26458 0,0.52916 0.264584,0.26459 0.529167,-0.26458 0.79375,0 0,0.26459 -0.264583,0.26459 -0.264583,0.26459 0,0.52916 0.529167,0.26458 0.79375,0.26458 0,0.26458 -0.264583,0.52917 0,0.52917 0,0 0,0 0.264583,0 0.264584,0 0.264584,0.26458 0.529167,0.52916 -0.264583,0.52917 0.79375,0.52917 1.058333,1.05834 -0.264583,0 -0.264583,0 -0.264583,0.26458 0.264583,0.26458 1.058333,0.26458 1.058333,0.79375 -1.058333,-0.26458 -2.645833,-0.26458 -3.704166,0.26458 0.264583,-0.26458 2.645833,-1.32291 0.529166,-1.32291 0.529167,-0.26459 0,-0.52917 -0.529166,-0.26459 0.264583,-0.26458 0.264583,-0.52916 -0.264584,-0.52916 0,-0.26459 0.264584,-0.52917 0.529167,-0.52917 -0.264583,-0.26458 -0.529167,-0.26458 -0.79375,-0.26458 0,0 0,-0.26459 0,-0.26459 -0.529167,0 -0.529167,0.52917 -1.058333,0.52917 0,-0.26458 0.264583,-0.52917 0.264583,-0.79375 -0.264583,-0.26458 -0.529167,0.26458 -0.79375,0.26458 0,-0.26458 0.264583,-0.52916 0.264583,-0.79375 -0.529166,-0.26458 -0.79375,0.52917 -1.322916,0.79375 -0.264584,-0.26458 -0.264584,-0.26458 -0.264584,-0.26458 -0.529166,0.26458 -0.529166,0.79375 -0.79375,1.05833 -0.264583,-0.52916 0,-1.32291 -0.264583,-1.85208 -0.79375,0.26458 -0.529167,1.32292 -0.79375,1.85208 -0.264583,-0.26458 -0.264583,-0.79375 -0.264583,-1.05833 -0.264584,0 0,0.52917 -0.264584,0.52917 0,-0.26459 0,-0.52917 -0.264583,-0.52917 -0.264583,0 -0.529167,0.26458 -0.529167,0.79375 -0.264583,0 -0.264583,-0.52917 -0.529166,-0.52917 -0.264583,0 0,0.26459 -0.264583,0.26459 -0.264584,-0.52917 -0.79375,-0.52917 -0.529167,0.26458 -0.264583,0 -0.529167,-0.26458 -0.79375,-0.26458 0,0 0,0.26458 0,0.52916 -0.264583,0 -0.264583,-0.26458 -0.264583,-0.26458 -0.264584,0 -0.264584,0.26458 -0.264584,0.52917 -0.529166,-0.79375 -0.79375,-1.85209 -1.322916,-2.38125 0.264583,0 0.529166,0.26458 0.79375,0.26458 0,0 0,-0.26458 0,-0.52917 0.529166,0.52917 0.79375,0.79375 1.058333,1.32292 0.79375,-0.26458 0.264583,-1.05833 0.264583,-1.5875 0.529167,0.26458 0.529167,0.79375 1.058334,1.05833 0.264583,-0.26458 0.264583,-0.52916 0.264583,-0.79375 0.264583,0.52917 0.79375,0.26459 0.79375,-0.26458 0,0 0,0 0.264583,0 0,-0.26458 0,-0.79375 0,-1.05833 z"
       id="path1803"
       style="clip-rule:evenodd;fill:#fefefe;fill-rule:evenodd;stroke-width:0.264583;image-rendering:optimizeQuality;shape-rendering:geometricPrecision;text-rendering:geometricPrecision" />
    <path
       class="fil7"
       d="m 50.135182,114.6109 c -0.264584,0 -0.529167,-0.26458 -0.79375,-0.26458 0.264583,0.52917 0.529166,0.79375 0.79375,1.32292 -0.529167,-0.26459 -0.529167,-0.52917 -1.058334,-0.52917 0,0.26458 0.264584,0.52917 0.264584,1.05833 -0.529167,-0.26458 -0.79375,-0.79375 -1.322917,-0.79375 0,0.52917 0.264583,0.79375 0.264583,1.32292 -1.058333,-1.05833 -2.116666,-2.11667 -3.704166,-2.64583 0.264583,-0.26459 0.79375,-0.26459 1.058333,0 0,0 0,0 -0.264583,0 0.79375,0.26458 1.5875,0.26458 2.38125,0.52916 -0.264584,-0.52916 -1.058334,-0.79375 -1.5875,-1.32291 0.529166,0 1.058333,0.26458 1.322916,0.26458 0,-0.26458 -0.264583,-0.26458 -0.264583,-0.52917 0.529167,0 0.79375,0.26459 1.058333,0.52917 0,-0.52917 -0.264583,-0.79375 -0.529166,-1.32292 1.058333,0.26459 1.852083,1.32292 2.38125,2.38125 z"
       id="path1805"
       style="clip-rule:evenodd;fill:#fefefe;fill-rule:evenodd;stroke-width:0.264583;image-rendering:optimizeQuality;shape-rendering:geometricPrecision;text-rendering:geometricPrecision" />
    <path
       class="fil7"
       d="m 51.458098,114.34632 c 0,0 -0.264583,-0.26458 -0.264583,-0.26458 -0.264583,0.26458 0,0.26458 0,0.52916 -0.264583,-0.79375 -0.79375,-1.32291 -1.058333,-2.11666 0.529166,0.26458 1.322916,1.05833 1.322916,1.85208 z"
       id="path1807"
       style="clip-rule:evenodd;fill:#fefefe;fill-rule:evenodd;stroke-width:0.264583;image-rendering:optimizeQuality;shape-rendering:geometricPrecision;text-rendering:geometricPrecision" />
    <path
       class="fil7"
       d="m 65.745598,117.25674 c -0.529167,0 -1.5875,0 -1.852083,-0.26459 0.529166,-0.52916 1.852083,-0.52916 1.852083,0.26459 z"
       id="path1809"
       style="clip-rule:evenodd;fill:#fefefe;fill-rule:evenodd;stroke-width:0.264583;image-rendering:optimizeQuality;shape-rendering:geometricPrecision;text-rendering:geometricPrecision" />
    <path
       class="fil7"
       d="m 66.010181,118.84424 c -0.529166,-0.52917 -1.5875,-0.79375 -2.38125,-1.5875 1.058334,0.26458 2.645834,0 2.38125,1.5875 z"
       id="path1811"
       style="clip-rule:evenodd;fill:#fefefe;fill-rule:evenodd;stroke-width:0.264583;image-rendering:optimizeQuality;shape-rendering:geometricPrecision;text-rendering:geometricPrecision" />
    <path
       class="fil7"
       d="m 66.010181,119.90257 c -0.79375,-0.52917 -1.852083,-1.05833 -2.38125,-1.5875 0,-0.26458 0,-0.26458 0,-0.52917 1.058334,0.52917 2.116667,0.79375 2.38125,2.11667 z"
       id="path1813"
       style="clip-rule:evenodd;fill:#fefefe;fill-rule:evenodd;stroke-width:0.264583;image-rendering:optimizeQuality;shape-rendering:geometricPrecision;text-rendering:geometricPrecision" />
    <path
       class="fil5"
       d="m 66.539348,121.22549 c -0.79375,-0.79375 -1.852083,-1.32292 -2.910417,-2.11667 0.79375,-0.26458 1.5875,0.52917 2.116667,1.05833 0.264583,0.26459 0.529167,0.52917 0.79375,1.05834 z"
       id="path1815"
       style="clip-rule:evenodd;fill:#c5c6c6;fill-rule:evenodd;stroke-width:0.264583;image-rendering:optimizeQuality;shape-rendering:geometricPrecision;text-rendering:geometricPrecision" />
    <path
       class="fil5"
       d="m 64.422681,120.16715 c 1.322917,0.79375 2.38125,1.85209 2.645834,3.70417 -1.058334,-1.05833 -1.5875,-2.64583 -2.645834,-3.70417 z"
       id="path1817"
       style="clip-rule:evenodd;fill:#c5c6c6;fill-rule:evenodd;stroke-width:0.264583;image-rendering:optimizeQuality;shape-rendering:geometricPrecision;text-rendering:geometricPrecision" />
    <path
       class="fil7"
       d="m 63.099765,121.22549 c 0.529166,0.79375 1.322916,1.5875 1.058333,2.64583 -0.264583,-0.26458 -0.529167,-0.79375 -1.058333,-1.05833 0,0.26458 0.264583,0.52916 0,0.79375 -0.264584,-0.52917 -0.79375,-0.79375 -1.058334,-1.32292 0.264584,0 0.264584,0.26458 0.529167,0.26458 0,-0.26458 -0.264583,-0.52916 -0.264583,-0.79375 0.529166,-0.26458 0.79375,0.26459 1.058333,0.26459 0,-0.26459 -0.264583,-0.52917 -0.264583,-0.79375 z"
       id="path1819"
       style="clip-rule:evenodd;fill:#fefefe;fill-rule:evenodd;stroke-width:0.264583;image-rendering:optimizeQuality;shape-rendering:geometricPrecision;text-rendering:geometricPrecision" />
    <path
       class="fil5"
       d="m 64.687265,122.28382 c 0.79375,0.52917 1.5875,1.05833 1.5875,2.38125 -0.264584,0 -0.264584,-0.52917 -0.529167,-0.52917 -0.264583,0 -0.264583,0.26459 -0.264583,0.26459 -0.264584,-0.79375 -0.529167,-1.5875 -0.79375,-2.11667 z"
       id="path1821"
       style="clip-rule:evenodd;fill:#c5c6c6;fill-rule:evenodd;stroke-width:0.264583;image-rendering:optimizeQuality;shape-rendering:geometricPrecision;text-rendering:geometricPrecision" />
    <path
       class="fil3"
       d="m 49.341432,131.27965 c 0,0 -0.79375,0.52917 -1.322917,0.79375 -0.529167,0.26459 -1.322917,0.26459 -1.5875,0.26459 -0.264583,0 -0.529167,-0.26459 -0.529167,-0.26459 l 0.264584,-0.52916 c 0,0 0.264583,0.52916 1.058333,0.52916 0.79375,-0.26458 1.322917,-0.79375 1.322917,-1.05833 0.264583,0.26458 0.529166,0.26458 0.79375,0.26458 z"
       id="path1823"
       style="clip-rule:evenodd;fill:#fefefe;fill-rule:nonzero;stroke-width:0.264583;image-rendering:optimizeQuality;shape-rendering:geometricPrecision;text-rendering:geometricPrecision" />
    <path
       class="fil3"
       d="m 55.691431,130.22132 c 0,0 0.79375,0.26458 1.5875,0 0.529167,0 1.058334,-0.26458 1.058334,-0.79375 0,-0.26458 -0.264584,-0.26458 -0.264584,-0.26458 0,0 0,0.79375 -0.79375,0.79375 -0.79375,0.26458 -1.058333,-0.26459 -1.058333,-0.52917 -0.264583,-0.26458 -0.79375,0.26458 -0.79375,0.26458 0,0.26459 0,0.52917 0.264583,0.52917 z"
       id="path1825"
       style="clip-rule:evenodd;fill:#fefefe;fill-rule:nonzero;stroke-width:0.264583;image-rendering:optimizeQuality;shape-rendering:geometricPrecision;text-rendering:geometricPrecision" />
    <path
       class="fil6"
       d="m 39.287265,127.57549 c 0,0 0,0 0,0 0,0 0,0 0,0 0,0 0,0 0,0 0,0 0,0 0,0 z"
       id="path1827"
       style="clip-rule:evenodd;fill:#898989;fill-rule:evenodd;stroke-width:0.264583;image-rendering:optimizeQuality;shape-rendering:geometricPrecision;text-rendering:geometricPrecision" />
    <path
       class="fil7"
       d="m 57.808098,129.16299 c 0,0.26458 0,0.26458 -0.264583,0.26458 0,0 -0.264584,0 -0.264584,-0.26458 0,0 0.264584,0 0.264584,0 0.264583,0 0.264583,0 0.264583,0 z"
       id="path1829"
       style="clip-rule:evenodd;fill:#fefefe;fill-rule:evenodd;stroke-width:0.264583;image-rendering:optimizeQuality;shape-rendering:geometricPrecision;text-rendering:geometricPrecision" />
    <path
       class="fil7"
       d="m 48.018515,131.01507 c 0,0.26458 -0.264583,0.26458 -0.264583,0.26458 -0.264584,0 -0.264584,0 -0.264584,-0.26458 0,0 0,-0.26458 0.264584,-0.26458 0,0 0.264583,0.26458 0.264583,0.26458 z"
       id="path1831"
       style="clip-rule:evenodd;fill:#fefefe;fill-rule:evenodd;stroke-width:0.264583;image-rendering:optimizeQuality;shape-rendering:geometricPrecision;text-rendering:geometricPrecision" />
  </g>
</svg>
