<?xml version="1.0" encoding="UTF-8" standalone="no"?>
<!-- Creator: CorelDRAW X8 -->

<svg
   xml:space="preserve"
   width="777"
   height="214"
   version="1.1"
   style="clip-rule:evenodd;fill-rule:evenodd;image-rendering:optimizeQuality;shape-rendering:geometricPrecision;text-rendering:geometricPrecision"
   viewBox="0 0 777 214"
   id="svg1838"
   xmlns="http://www.w3.org/2000/svg"
   xmlns:svg="http://www.w3.org/2000/svg">
 <defs
   id="defs1612">
  <style
   type="text/css"
   id="style1610">
   <![CDATA[
    .fil7 {fill:#FEFEFE}
    .fil5 {fill:#C5C6C6}
    .fil6 {fill:#898989}
    .fil3 {fill:#FEFEFE;fill-rule:nonzero}
    .fil4 {fill:#C5C6C6;fill-rule:nonzero}
    .fil2 {fill:#898989;fill-rule:nonzero}
    .fil0 {fill:#2B2A29;fill-rule:nonzero}
    .fil1 {fill:#C8C4C7;fill-rule:nonzero}
   ]]>
  </style>
 </defs>
 <g
   id="Слой_x0020_1"
   transform="translate(-147,-157)">
  <metadata
   id="CorelCorpID_0Corel-Layer" />
  <path
   class="fil0"
   d="m 389,277 c 0,1 0,1 0,1 1,1 1,1 2,1 h 3 c 1,0 2,0 2,-1 0,0 1,0 1,-1 v -18 h 8 v 20 c 0,3 0,5 -2,6 -2,2 -4,3 -6,3 h -9 c -2,0 -4,-1 -6,-3 -2,-1 -2,-3 -2,-6 v -52 c 0,-2 0,-4 2,-6 2,-2 4,-2 6,-2 h 9 c 2,0 4,0 6,2 2,2 2,4 2,6 v 20 h -8 v -18 c 0,0 -1,-1 -1,-1 0,-1 -1,-1 -2,-1 h -3 c -1,0 -1,0 -2,1 0,0 0,1 0,1 z"
   id="path1615" />
  <path
   class="fil0"
   d="m 426,277 c 0,1 0,1 0,1 1,1 1,1 2,1 h 4 c 0,0 1,0 1,-1 1,0 1,0 1,-1 v -48 c 0,0 0,-1 -1,-1 0,-1 -1,-1 -1,-1 h -4 c -1,0 -1,0 -2,1 0,0 0,1 0,1 z m -1,11 c -2,0 -4,-1 -6,-3 -1,-1 -2,-3 -2,-6 v -52 c 0,-2 1,-4 2,-6 2,-2 4,-2 6,-2 h 10 c 2,0 4,0 5,2 2,2 3,4 3,6 v 52 c 0,3 -1,5 -3,6 -1,2 -3,3 -5,3 z"
   id="path1617" />
  <path
   class="fil0"
   d="m 469,228 h -5 c -1,7 -1,13 -1,19 0,5 0,9 0,13 0,4 0,7 -1,9 0,3 0,5 0,6 0,3 -1,5 -1,7 -1,1 -2,3 -2,3 -1,1 -2,2 -4,2 -1,1 -2,1 -4,1 h -1 v -9 h 1 c 0,0 1,0 1,0 0,-1 0,-1 1,-1 0,-1 0,-1 0,-2 1,-1 1,-2 1,-4 0,-3 0,-8 1,-17 0,-8 0,-21 0,-36 h 23 v 69 h -9 z"
   id="path1619" />
  <path
   class="fil0"
   d="m 499,277 c 0,1 0,1 1,1 0,1 1,1 1,1 h 4 c 1,0 1,0 2,-1 0,0 0,0 0,-1 v -48 c 0,0 0,-1 0,-1 -1,-1 -1,-1 -2,-1 h -4 c 0,0 -1,0 -1,1 -1,0 -1,1 -1,1 z m -1,11 c -2,0 -4,-1 -5,-3 -2,-1 -3,-3 -3,-6 v -52 c 0,-2 1,-4 3,-6 1,-2 3,-2 5,-2 h 10 c 2,0 4,0 6,2 1,2 2,4 2,6 v 52 c 0,3 -1,5 -2,6 -2,2 -4,3 -6,3 z"
   id="path1621" />
  <polygon
   class="fil0"
   points="561,219 561,288 553,288 553,260 553,246 553,246 547,276 542,276 536,246 536,246 537,260 537,288 528,288 528,219 537,219 545,252 552,219 "
   id="polygon1623" />
  <polygon
   class="fil0"
   points="600,288 591,288 591,261 591,247 591,247 582,288 573,288 573,219 582,219 582,245 582,259 582,259 591,219 600,219 "
   id="polygon1625" />
  <polygon
   class="fil0"
   points="619,288 610,288 610,219 619,219 619,249 627,249 627,219 636,219 636,288 627,288 627,257 619,257 "
   id="polygon1627" />
  <path
   class="fil0"
   d="m 656,277 c 0,1 1,1 1,1 0,1 1,1 2,1 h 3 c 1,0 1,0 2,-1 0,0 0,0 0,-1 v -18 h 9 v 20 c 0,3 -1,5 -2,6 -2,2 -4,3 -6,3 h -9 c -3,0 -5,-1 -6,-3 -2,-1 -3,-3 -3,-6 v -52 c 0,-2 1,-4 3,-6 1,-2 3,-2 6,-2 h 9 c 2,0 4,0 6,2 1,2 2,4 2,6 v 20 h -9 v -18 c 0,0 0,-1 0,-1 -1,-1 -1,-1 -2,-1 h -3 c -1,0 -2,0 -2,1 0,0 -1,1 -1,1 z"
   id="path1629" />
  <polygon
   class="fil0"
   points="707,288 695,255 694,259 694,288 685,288 685,219 694,219 694,242 706,219 716,219 702,245 717,288 "
   id="polygon1631" />
  <polygon
   class="fil0"
   points="751,288 742,288 742,261 742,247 742,247 733,288 724,288 724,219 733,219 733,245 733,259 733,259 742,219 751,219 "
   id="polygon1633" />
  <polygon
   class="fil0"
   points="782,228 770,228 770,249 782,249 782,257 770,257 770,279 782,279 782,288 761,288 761,219 782,219 "
   id="polygon1635" />
  <polygon
   class="fil0"
   points="378,294 783,294 783,369 378,369 "
   id="polygon1637" />
  <path
   class="fil1"
   d="m 452,356 h -13 v -14 h -28 c -5,0 -8,-1 -10,-2 -2,-2 -3,-5 -3,-10 v -22 h 13 v 23 h 28 v -23 h 13 z"
   id="path1639" />
  <polygon
   class="fil1"
   points="480,318 459,318 459,308 514,308 514,318 493,318 493,356 480,356 "
   id="polygon1641" />
  <polygon
   class="fil1"
   points="519,308 568,308 568,318 532,318 532,326 568,326 568,336 532,336 532,345 569,345 569,356 519,356 "
   id="polygon1643" />
  <polygon
   class="fil1"
   points="621,336 590,336 590,356 577,356 577,308 590,308 590,325 621,325 621,308 634,308 634,356 621,356 "
   id="polygon1645" />
  <path
   class="fil1"
   d="m 699,356 h -12 v -26 c 0,-1 0,-3 0,-3 0,-1 0,-1 0,-1 0,0 0,1 -1,1 l -34,29 h -9 v -48 h 12 v 25 c 0,1 0,2 0,2 0,1 0,2 0,2 1,0 2,-1 3,-2 l 32,-27 h 9 z"
   id="path1647" />
  <path
   class="fil1"
   d="m 728,318 c -2,0 -3,1 -3,1 0,0 -1,1 -1,2 v 5 c 0,1 1,1 1,2 0,0 1,0 3,0 h 22 v -10 z m 35,38 h -13 v -17 h -8 l -18,17 h -19 l 21,-17 h -3 c -4,0 -7,-1 -8,-3 -2,-1 -3,-4 -3,-7 v -11 c 0,-4 1,-6 2,-8 2,-1 5,-2 9,-2 h 40 z"
   id="path1649" />
  <polygon
   class="fil1"
   points="379,159 782,159 782,212 379,212 "
   id="polygon1651" />
  <path
   class="fil0"
   d="m 407,187 c -1,-3 -1,-5 -1,-7 v 0 c 0,2 -1,4 -1,6 l -2,8 h -2 l -2,-8 c 0,-2 -1,-4 -1,-6 v 0 c 0,2 0,4 0,7 l -1,7 h -2 l 2,-18 h 2 l 2,9 c 0,2 1,4 1,6 v 0 c 1,-2 1,-4 2,-6 l 2,-9 h 2 l 1,18 h -2 z"
   id="path1653" />
  <polygon
   class="fil0"
   points="414,192 419,192 419,194 412,194 412,176 418,176 418,178 414,178 414,184 418,184 418,186 414,186 "
   id="polygon1655" />
  <path
   class="fil0"
   d="m 422,176 4,8 v 0 -8 h 2 v 8 0 l 4,-8 h 2 l -4,9 c 2,0 3,2 3,4 1,2 1,4 1,5 h -1 c -1,-1 -1,-3 -2,-4 0,-2 -1,-4 -3,-4 v 0 8 h -2 v -8 0 c -3,0 -3,2 -4,4 0,1 0,3 -1,4 h -2 c 1,-1 1,-3 2,-5 0,-2 1,-4 3,-4 l -4,-9 z"
   id="path1657" />
  <path
   class="fil0"
   d="m 440,181 c 0,2 0,5 0,7 0,1 -1,3 -1,4 h 5 v -14 h -4 z m 6,-5 v 16 h 1 v 6 h -2 v -4 h -8 v 4 h -1 l -1,-6 h 2 c 0,-1 1,-3 1,-4 1,-3 1,-5 1,-8 v -4 z"
   id="path1659" />
  <path
   class="fil0"
   d="m 450,176 2,8 c 0,1 1,2 1,3 v 0 c 0,-1 0,-2 1,-3 l 1,-8 h 2 l -2,8 c 0,2 -1,5 -2,8 -1,1 -2,2 -4,2 0,0 0,0 -1,0 l 1,-1 c 0,0 0,0 0,0 1,0 2,-2 3,-4 0,0 0,0 0,-1 l -4,-12 z"
   id="path1661" />
  <polygon
   class="fil0"
   points="466,184 466,176 468,176 468,194 466,194 466,186 461,186 461,194 459,194 459,176 461,176 461,184 "
   id="polygon1663" />
  <path
   class="fil0"
   d="m 477,187 -1,-4 c 0,-2 -1,-3 -1,-4 v 0 c 0,1 0,3 -1,4 l -1,4 z m -4,2 -1,5 h -2 l 4,-18 h 2 l 4,18 h -2 l -1,-5 z"
   id="path1665" />
  <path
   class="fil0"
   d="m 484,185 c 1,0 1,0 1,0 2,0 4,-1 4,-4 0,-1 -1,-3 -3,-3 -1,0 -1,0 -2,0 z m -2,-8 c 1,-1 2,-1 3,-1 2,0 3,1 4,2 1,0 2,2 2,3 0,2 -1,3 -1,4 -1,1 -3,2 -5,2 0,0 0,0 -1,0 v 7 h -2 z"
   id="path1667" />
  <path
   class="fil0"
   d="m 494,185 c 0,4 1,8 3,8 2,0 3,-4 3,-8 0,-3 -1,-7 -3,-7 -2,0 -3,4 -3,7 z m 8,0 c 0,7 -2,9 -5,9 -3,0 -5,-3 -5,-9 0,-6 2,-9 5,-9 3,0 5,4 5,9 z"
   id="path1669" />
  <path
   class="fil0"
   d="m 508,181 c 0,2 0,5 -1,7 0,1 0,3 -1,4 h 5 v -14 h -3 z m 5,-5 v 16 h 1 v 6 h -2 v -4 h -7 l -1,4 h -1 v -6 h 1 c 1,-1 1,-3 1,-4 1,-3 1,-5 1,-8 v -4 z"
   id="path1671" />
  <polygon
   class="fil0"
   points="523,184 523,176 525,176 525,194 523,194 523,186 518,186 518,194 516,194 516,176 518,176 518,184 "
   id="polygon1673" />
  <path
   class="fil0"
   d="m 534,187 -1,-4 c 0,-2 0,-3 0,-4 v 0 c -1,1 -1,3 -1,4 l -1,4 z m -3,2 -2,5 h -2 l 5,-18 h 2 l 4,18 h -2 l -1,-5 z"
   id="path1675" />
  <path
   class="fil0"
   d="m 545,178 c 0,0 0,0 -1,0 -2,0 -3,1 -3,3 0,3 2,4 4,4 0,0 0,0 0,0 z m -6,16 c 0,0 0,-1 0,-2 1,-2 1,-4 2,-5 0,-1 1,-1 1,-1 v 0 c -1,-1 -3,-2 -3,-5 0,-1 1,-3 2,-4 1,0 2,-1 3,-1 1,0 2,0 3,1 v 17 h -2 v -8 0 c -1,0 -2,1 -2,1 -1,1 -1,4 -2,6 0,0 0,1 0,1 z"
   id="path1677" />
  <polygon
   class="fil0"
   points="566,184 566,176 568,176 568,194 566,194 566,186 561,186 561,194 559,194 559,176 561,176 561,184 "
   id="polygon1679" />
  <path
   class="fil0"
   d="m 577,187 -1,-4 c -1,-2 -1,-3 -1,-4 v 0 c 0,1 -1,3 -1,4 l -1,4 z m -4,2 -1,5 h -2 l 4,-18 h 2 l 4,18 h -2 l -1,-5 z"
   id="path1681" />
  <path
   class="fil0"
   d="m 583,176 2,8 c 0,1 1,2 1,3 v 0 c 0,-1 0,-2 1,-3 l 1,-8 h 2 l -2,8 c -1,2 -1,5 -2,8 -1,1 -2,2 -4,2 0,0 0,0 -1,0 v -1 c 1,0 1,0 1,0 1,0 2,-2 3,-4 0,0 0,0 0,-1 l -4,-12 z"
   id="path1683" />
  <path
   class="fil0"
   d="m 594,176 v 6 c 0,2 0,4 2,4 1,0 2,-1 2,-1 v -9 h 2 v 18 h -2 v -7 0 c -1,0 -2,0 -3,0 -2,0 -3,-1 -3,-4 v -7 z"
   id="path1685" />
  <polygon
   class="fil0"
   points="610,184 610,176 612,176 612,194 610,194 610,186 605,186 605,194 603,194 603,176 605,176 605,184 "
   id="polygon1687" />
  <path
   class="fil0"
   d="m 621,187 -1,-4 c 0,-2 0,-3 0,-4 v 0 c -1,1 -1,3 -1,4 l -1,4 z m -3,2 -2,5 h -2 l 4,-18 h 3 l 4,18 h -2 l -2,-5 z"
   id="path1689" />
  <path
   class="fil0"
   d="m 632,178 c 0,0 0,0 -1,0 -2,0 -3,1 -3,3 0,3 2,4 4,4 0,0 0,0 0,0 z m -6,16 c 0,0 0,-1 0,-2 1,-2 1,-4 2,-5 0,-1 1,-1 1,-1 v 0 c -1,-1 -3,-2 -3,-5 0,-1 1,-3 2,-4 1,0 2,-1 3,-1 1,0 2,0 3,1 v 17 h -2 v -8 0 c -1,0 -2,1 -2,1 -1,1 -2,4 -2,6 0,0 0,1 0,1 z"
   id="path1691" />
  <path
   class="fil0"
   d="m 648,176 v 8 0 l 4,-8 h 2 l -4,9 c 2,0 3,2 3,4 0,2 1,4 1,5 h -2 c 0,-1 -1,-3 -1,-4 0,-2 -1,-4 -3,-4 v 0 8 h -2 v -18 z"
   id="path1693" />
  <path
   class="fil0"
   d="m 657,185 c 0,4 1,8 3,8 2,0 3,-4 3,-8 0,-3 -1,-7 -3,-7 -2,0 -3,4 -3,7 z m 8,0 c 0,7 -2,9 -5,9 -3,0 -5,-3 -5,-9 0,-6 2,-9 5,-9 3,0 5,4 5,9 z"
   id="path1695" />
  <polygon
   class="fil0"
   points="674,184 674,176 676,176 676,194 674,194 674,186 669,186 669,194 667,194 667,176 669,176 669,184 "
   id="polygon1697" />
  <path
   class="fil0"
   d="m 685,192 c 2,-1 3,-2 3,-7 0,-4 -1,-6 -3,-6 z m -1,-13 c -2,0 -3,2 -3,6 0,5 1,6 3,7 z m 2,-3 v 1 c 2,1 4,3 4,8 0,6 -2,8 -5,8 v 2 h -1 v -2 c -3,0 -5,-2 -5,-8 0,-5 2,-7 5,-8 v -1 z"
   id="path1699" />
  <polygon
   class="fil0"
   points="695,192 700,192 700,194 693,194 693,176 700,176 700,178 695,178 695,184 699,184 699,186 695,186 "
   id="polygon1701" />
  <path
   class="fil0"
   d="m 704,185 c 0,0 1,0 1,0 2,0 3,-1 3,-4 0,-1 -1,-3 -3,-3 0,0 -1,0 -1,0 z m -2,-8 c 1,-1 2,-1 3,-1 2,0 3,1 4,2 1,0 1,2 1,3 0,2 0,3 -1,4 -1,1 -2,2 -4,2 0,0 -1,0 -1,0 v 7 h -2 z"
   id="path1703" />
  <polygon
   class="fil0"
   points="715,192 720,192 720,194 712,194 712,176 719,176 719,178 715,178 715,184 719,184 719,186 715,186 "
   id="polygon1705" />
  <polygon
   class="fil0"
   points="729,184 729,176 731,176 731,194 729,194 729,186 724,186 724,194 722,194 722,176 724,176 724,184 "
   id="polygon1707" />
  <polygon
   class="fil0"
   points="741,192 741,176 743,176 743,192 744,192 744,198 742,198 742,194 734,194 734,176 736,176 736,192 "
   id="polygon1709" />
  <path
   class="fil0"
   d="m 748,176 v 7 c 0,3 0,5 0,8 v 0 c 0,-2 1,-4 2,-6 l 3,-9 h 2 v 18 h -2 v -6 c 0,-4 0,-6 0,-8 v 0 c 0,2 -1,4 -2,6 l -3,8 h -2 v -18 z"
   id="path1711" />
  <path
   class="fil0"
   d="m 764,178 c -1,0 -1,0 -1,0 -2,0 -3,1 -3,3 0,3 1,4 3,4 0,0 0,0 1,0 z m -7,16 c 0,0 0,-1 1,-2 0,-2 0,-4 1,-5 1,-1 1,-1 2,-1 v 0 c -2,-1 -3,-2 -3,-5 0,-1 0,-3 1,-4 1,0 2,-1 4,-1 1,0 2,0 3,1 v 17 h -2 v -8 h -1 c -1,0 -1,1 -2,1 -1,1 -1,4 -1,6 -1,0 -1,1 -1,1 z"
   id="path1713" />
  <path
   class="fil2"
   d="m 154,158 c -4,0 -7,3 -7,7 v 0 199 c 0,4 3,7 7,7 v 0 h 199 c 4,0 7,-3 7,-7 v 0 -199 c 0,-4 -3,-7 -7,-7 v 0 z"
   id="path1715" />
  <path
   class="fil0"
   d="m 338,359 c 0,6 -4,12 -11,12 h -5 c -6,0 -11,-6 -11,-12 v -3 c 0,-6 6,-12 12,-12 h 3 c 7,0 12,6 12,12 z"
   id="path1717" />
  <path
   class="fil3"
   d="m 253,337 c 0,0 20,-8 35,-28 7,-11 7,-31 7,-31 0,0 2,2 4,1 1,0 2,-2 3,-4 0,-3 0,-6 0,-10 1,-3 5,-14 5,-18 0,-5 -3,-9 -6,-9 -1,0 -3,2 -3,-1 0,-2 2,-14 1,-20 0,0 -2,-10 -4,-14 -1,-4 -3,-1 -3,-5 -1,-4 -4,-8 -9,-13 -5,-4 -5,-2 -20,-10 -11,-6 -27,2 -27,2 -11,3 -28,19 -28,19 l -18,28 c 0,0 5,23 12,35 0,0 -2,0 -2,3 0,1 8,13 8,16 0,0 3,8 4,12 2,10 14,45 41,47 z"
   id="path1719" />
  <path
   class="fil4"
   d="m 255,207 c -2,4 -1,13 3,15 3,0 4,0 6,2 -3,0 -5,1 -6,1 -2,1 -1,3 1,4 2,0 5,1 6,2 -2,0 -5,0 -7,2 -1,1 -1,4 2,5 4,2 6,1 11,4 2,1 6,5 7,9 -4,3 -9,1 -9,5 0,1 4,4 5,5 2,3 4,4 4,8 -1,-1 -3,-2 -5,-3 -1,-1 -4,-3 -6,-2 -2,1 1,6 2,7 2,3 5,4 7,6 1,2 1,2 2,5 1,3 1,7 1,7 3,-1 0,-9 2,-8 2,1 3,5 3,6 1,4 1,9 0,13 3,-2 5,-6 6,-10 0,-1 0,-4 1,-4 0,0 1,3 1,3 1,4 0,12 -2,15 -3,5 -5,9 -11,16 -4,5 -9,10 -14,13 -4,2 -10,6 -15,5 -7,-1 -17,-12 -18,-14 -3,-3 -3,-7 -5,-11 -1,-1 0,-3 -2,-4 -4,-4 -9,-2 -11,-18 -1,-4 -2,-10 -1,-13 -2,-2 -4,-6 -4,-9 0,-2 1,-3 1,-5 1,-7 -1,-10 -1,-9 2,3 -1,-7 1,-12 1,-8 -4,-15 -1,-22 6,-13 23,-10 35,-12 3,0 3,0 5,-1 1,-1 5,0 6,-1 z"
   id="path1721" />
  <path
   class="fil4"
   d="m 299,268 c -2,-1 0,-4 -1,-5 -1,-1 -1,0 -3,0 -1,-2 1,-4 1,-7 -1,-2 -5,-3 -3,-6 0,-1 5,-7 7,-8 2,-2 6,1 6,4 0,3 -2,5 -3,10 0,4 -1,12 -4,12 z"
   id="path1723" />
  <path
   class="fil4"
   d="m 295,268 c 1,0 3,1 4,3 0,1 0,2 -1,3 -3,5 -3,-5 -3,-6 z"
   id="path1725" />
  <path
   class="fil2"
   d="m 270,289 c 0,-3 -6,-2 -7,0 0,0 0,7 -5,9 -4,2 -19,3 -20,3 -2,0 -5,-1 -7,-2 1,1 6,7 10,7 5,0 11,-2 16,-2 4,0 7,-1 10,-4 2,-3 3,-10 3,-11 z"
   id="path1727" />
  <path
   class="fil2"
   d="m 238,254 c -1,-3 -4,-5 -4,-5 0,0 -9,0 -14,0 -4,-1 -10,2 -9,7 v 1 c 0,0 -2,6 1,6 3,1 6,-5 6,-6 -1,-1 4,-4 7,-3 4,0 6,1 6,1 0,0 1,0 2,0 0,0 0,0 0,0 l -1,2 c 0,0 -1,3 -5,6 -3,2 -9,3 -9,3 -1,0 7,2 9,1 1,0 6,-7 8,-10 1,1 1,2 1,3 0,4 3,-3 2,-6 z"
   id="path1729" />
  <path
   class="fil2"
   d="m 296,248 5,-5 c 0,0 0,0 0,0 0,0 1,0 1,0 0,0 -1,-1 0,0 1,1 -1,10 -1,12 0,2 0,10 -1,10 -1,-1 -3,-4 -4,-4 -2,-1 0,-3 0,-4 0,-2 -3,-6 0,-9 z"
   id="path1731" />
  <path
   class="fil2"
   d="m 273,277 c 0,0 4,4 5,8 0,5 2,5 3,4 1,-1 0,-4 1,-4 1,1 3,6 1,11 -1,6 2,11 2,14 -1,3 -3,7 -8,14 -6,7 -17,10 -23,12 -5,2 -12,-6 -19,-12 -7,-6 -7,-8 -8,-11 0,-2 6,7 14,8 9,1 23,-4 26,-7 3,-3 7,-10 5,-16 -1,-4 1,-4 2,-6 2,-4 -1,-11 -3,-14 -2,-4 2,-1 2,-1 z"
   id="path1733" />
  <path
   class="fil2"
   d="m 271,244 c -2,-2 -8,-3 -15,0 -8,3 -11,1 -11,1 0,0 1,4 -1,6 -1,2 1,0 2,0 0,0 -3,11 -2,14 0,3 6,2 10,5 0,0 1,2 2,3 0,0 0,1 0,1 0,0 1,7 -1,12 -2,4 -3,5 -3,5 0,0 13,-2 15,1 2,2 8,-9 -5,-18 -1,-1 -3,-2 -5,-3 -1,-2 -1,-5 -2,-6 -1,-2 -2,-4 -3,-6 -2,-3 -1,-4 -1,-4 0,-1 2,2 6,3 4,1 7,0 11,-3 0,0 0,0 0,0 -1,0 -3,1 -5,1 -3,0 3,-2 3,-3 0,-1 -3,1 -4,1 -2,0 -3,-1 -4,-1 -1,0 -5,-2 -4,-3 2,-2 10,-4 11,-3 2,1 2,2 1,4 -1,1 0,1 1,1 0,0 2,0 3,0 0,0 1,-1 1,-1 1,1 3,-4 0,-7 z"
   id="path1735" />
  <path
   class="fil2"
   d="m 236,257 c 0,0 -4,7 -4,11 0,4 -9,17 -9,20 0,2 4,7 4,7 0,1 6,-1 6,-1 0,0 -3,-3 -3,-8 1,-5 4,-10 4,-12 1,-9 5,-15 4,-16 -1,-2 -1,0 -2,-1 z"
   id="path1737" />
  <path
   class="fil0"
   d="m 247,371 c 1,-4 2,-10 -1,-13 -2,4 -3,8 -5,12 0,1 -1,1 -1,1 h -1 c 3,-8 3,-20 5,-29 0,-2 1,-4 2,-5 -9,-4 -14,-13 -20,-20 0,0 0,0 0,1 1,7 5,16 6,24 1,10 2,21 5,29 h -83 v 0 c -4,0 -7,-3 -7,-7 v -28 c 11,-7 30,-15 35,-18 11,-5 23,-10 32,-16 -2,-10 -3,-14 -5,-17 -2,-7 -1,-7 -3,-12 -1,-3 -10,-11 -5,-14 -2,-3 -3,-6 -5,-10 -3,-6 -8,-9 -8,-17 -1,-2 0,-4 0,-6 -2,-2 0,-7 2,-8 -1,0 -1,-1 -1,-1 -1,-3 1,-5 2,-7 0,0 -1,0 -1,0 -1,-3 1,-5 2,-6 -3,-2 2,-6 4,-8 1,-2 5,-5 9,-3 0,-1 -1,-1 -1,-2 3,-1 5,1 7,1 0,-2 -2,-1 -2,-3 0,-1 4,-1 5,-2 1,0 0,0 0,0 1,-1 1,-1 2,-1 0,0 -1,0 -1,-1 1,0 2,0 2,0 1,0 0,0 1,-1 0,0 1,0 2,0 -1,-2 2,-1 3,-1 0,-1 -1,-1 -1,-1 0,-2 2,-2 4,-1 -1,-2 1,-3 3,-2 0,-1 -1,-1 0,-2 1,-1 2,0 4,-1 1,0 2,-3 4,-2 0,-1 -1,-1 0,-1 2,-2 5,-1 8,-1 2,0 5,-2 6,0 2,-1 4,-1 5,0 1,-2 4,-2 4,0 3,-2 4,2 7,2 0,0 1,0 1,0 1,0 1,1 2,2 1,0 3,0 4,1 0,1 0,1 0,2 2,0 3,2 4,3 2,1 5,1 6,3 2,2 3,4 4,6 2,2 4,4 5,6 0,1 0,2 1,3 0,1 2,1 2,3 1,3 2,8 3,12 1,2 0,4 1,6 1,5 1,12 1,16 3,0 6,4 6,7 0,1 0,3 0,4 0,7 -4,13 -4,20 0,2 0,4 -1,7 0,3 -2,6 -6,5 0,2 -1,4 0,6 4,4 13,3 16,8 2,2 3,4 5,5 5,2 9,4 12,7 4,2 7,4 12,6 2,1 13,5 19,9 v 43 0 c 0,4 -3,7 -7,7 h -63 c 1,-9 2,-18 2,-27 -1,9 -4,16 -7,23 -5,-6 -10,-13 -16,-19 -1,2 -3,5 -4,8 -2,3 -7,7 -4,12 0,1 1,2 1,3 z m -3,-45 c 3,3 18,5 17,-3 -5,1 -14,0 -19,-1 0,1 1,3 2,4 z m 77,-21 c 3,4 9,8 12,12 2,4 4,8 6,11 3,4 6,6 9,9 0,-7 -1,-14 -2,-20 -1,-2 -2,-2 -4,-3 -5,-2 -9,-4 -14,-7 -3,-3 -7,-6 -11,-7 -1,1 3,5 4,5 z m -27,-12 c -1,3 -1,5 -2,8 -1,3 -4,6 -5,9 -2,4 -4,8 -8,10 -1,5 -6,7 -9,10 -3,2 -6,5 -10,6 2,3 5,6 8,9 6,6 12,13 18,20 5,-12 7,-29 8,-46 0,-9 2,-18 1,-26 0,0 0,0 0,0 0,0 -1,0 -1,0 z m 28,37 c -1,-9 -4,-21 -8,-29 -2,-7 -8,-11 -15,-12 0,0 0,0 0,0 3,16 1,33 1,49 4,-6 6,-14 10,-19 3,-2 5,-1 6,2 3,4 5,12 7,17 0,-3 0,-5 -1,-8 z M 206,266 c -1,-3 -4,-7 -6,-5 2,5 5,8 7,12 -1,-2 0,-5 -1,-7 z m 78,-23 c -2,-2 -6,-2 -8,-6 -1,-4 1,-8 1,-13 0,-2 -1,-5 -1,-7 -1,-5 -2,-10 -6,-12 -2,-1 -2,-1 -4,-2 -1,0 -3,-3 -6,-2 -2,1 -5,7 -7,8 -1,0 -1,-1 -3,-1 0,1 -2,2 -3,1 0,1 0,1 -1,2 -1,-2 -2,0 -3,0 -1,0 -1,0 -2,0 -1,0 -1,1 -2,1 -1,0 -2,0 -3,0 -3,0 -6,0 -9,0 -5,1 -9,4 -13,4 -3,0 -5,0 -7,2 -1,1 -2,2 -3,4 0,2 0,5 0,7 0,6 1,11 1,17 0,1 0,3 0,4 0,2 1,4 1,6 0,1 0,3 0,4 0,2 1,3 1,5 1,6 1,11 2,16 0,1 2,3 2,5 2,5 3,10 4,14 3,7 8,12 12,17 4,4 7,8 11,12 1,2 4,5 6,6 3,1 6,2 9,2 2,-1 4,-2 7,-3 3,-1 6,-2 9,-4 3,-3 6,-5 8,-7 1,-1 1,-3 2,-3 1,-2 2,-3 3,-5 -5,3 -11,4 -14,8 -4,4 -6,9 -13,9 -4,1 -10,1 -13,-1 -3,-2 -4,-6 -6,-9 -1,-1 -3,-2 -4,-3 -1,-1 -3,-1 -4,-2 -2,-2 -2,-6 -3,-8 0,-1 -1,-1 -1,-2 2,0 3,4 4,6 3,3 8,6 13,7 12,1 22,1 28,-6 3,-3 5,-7 6,-11 0,-6 2,-5 2,-3 0,3 -1,10 -2,12 10,-5 13,-19 15,-25 2,5 0,12 -1,17 3,-4 5,-14 6,-21 0,-1 0,-4 0,-5 1,0 3,1 4,1 2,-2 3,-5 3,-8 0,-7 1,-13 3,-18 1,-2 1,-4 1,-6 1,-4 -2,-8 -5,-7 -1,0 -3,1 -4,2 -3,3 -5,7 -9,9 -1,-3 -2,-6 -4,-8 z"
   id="path1739" />
  <path
   class="fil0"
   d="m 260,224 c -6,0 -11,2 -15,4 -3,1 -6,2 -10,2 -5,0 -12,1 -17,3 2,-3 8,-3 12,-4 2,0 4,-1 6,-1 5,0 9,-2 13,-3 3,-1 8,-3 11,-1 z"
   id="path1741" />
  <path
   class="fil0"
   d="m 260,230 c -1,0 -8,0 -11,1 -5,1 -8,4 -13,4 -2,0 -4,0 -6,1 -2,0 -5,0 -8,1 4,-2 10,-3 12,-3 7,0 12,-4 18,-5 2,0 6,0 8,1 z"
   id="path1743" />
  <path
   class="fil0"
   d="m 272,246 c -3,-2 -5,-3 -9,-3 -5,1 -11,5 -16,5 -2,0 -3,-2 -3,-4 1,2 3,0 3,-2 1,3 3,2 5,1 0,0 1,0 1,0 1,0 2,-1 3,-2 2,3 4,-3 6,-1 5,0 9,2 10,6 z"
   id="path1745" />
  <path
   class="fil0"
   d="m 249,275 c 2,0 3,0 5,0 1,-3 -2,-6 -3,-7 3,-1 5,3 7,5 2,1 5,2 5,5 -2,-2 -4,-3 -6,-4 0,1 0,2 -1,3 -1,2 -3,1 -6,2 -3,1 -5,6 -10,3 -2,-3 -8,-1 -7,-8 -3,6 -8,9 -9,16 -1,-4 2,-7 5,-11 2,-4 2,-8 5,-12 0,2 -1,3 -1,5 2,-3 3,-7 3,-11 1,-4 0,-7 -1,-11 -4,2 -8,0 -12,1 -1,0 -2,1 -4,1 -1,0 -3,-1 -5,-1 -2,0 -3,4 -3,6 -3,-12 15,-10 22,-9 2,-4 3,2 4,3 1,3 2,4 1,8 -1,4 -3,11 -2,16 1,7 10,4 13,0 z"
   id="path1747" />
  <path
   class="fil0"
   d="m 303,247 c -1,-1 -1,-3 -2,-3 -3,0 -5,4 -5,8 0,2 1,4 1,6 0,1 -1,1 -1,2 0,1 2,1 2,2 -1,1 -3,1 -3,0 -2,-1 1,-4 0,-6 0,-3 -4,-3 -2,-6 0,0 1,-1 1,-1 2,-2 3,-7 7,-7 2,0 3,4 2,5 z"
   id="path1749" />
  <path
   class="fil0"
   d="m 275,248 c -1,1 -2,2 -3,2 1,1 4,1 6,1 -1,1 -4,1 -6,1 -1,-1 -1,-1 -2,-1 -1,0 -1,2 -3,2 0,0 2,-2 2,-3 -1,0 -1,0 -1,0 -1,0 -2,2 -4,2 1,-1 4,-4 1,-5 0,4 -3,5 -6,4 -1,-1 -1,-1 -1,-2 -3,-1 -5,2 -2,3 -2,1 -4,0 -5,-1 1,-1 1,0 2,-1 0,-2 9,-5 12,-4 2,1 3,3 5,3 2,1 4,-1 5,-1 z"
   id="path1751" />
  <path
   class="fil0"
   d="m 234,253 c 0,3 -4,2 -6,1 1,5 -6,6 -7,2 -4,0 -3,4 -5,5 -1,1 -3,2 -4,0 4,0 4,-3 5,-5 2,-2 6,-3 9,-3 4,0 6,1 8,0 z"
   id="path1753" />
  <path
   class="fil0"
   d="m 296,269 c 1,1 2,5 0,6 0,-2 -2,-5 0,-6 z"
   id="path1755" />
  <path
   class="fil0"
   d="m 268,292 c -1,-1 0,-2 -1,-2 0,0 -2,0 -3,0 2,-2 4,-4 3,-9 0,0 1,0 1,0 2,3 3,10 0,11 z"
   id="path1757" />
  <path
   class="fil0"
   d="m 227,297 c 0,-2 0,-3 0,-4 1,0 1,1 2,1 3,1 7,-2 10,-3 2,0 4,1 7,1 1,-1 2,-2 4,-2 3,-1 6,1 10,0 1,0 3,-1 3,0 0,1 -2,2 -2,2 -4,1 -8,1 -12,2 -2,0 -3,1 -4,1 -1,0 -1,0 -2,0 -3,0 -8,1 -12,1 -2,-1 -3,-1 -4,1 z"
   id="path1759" />
  <path
   class="fil0"
   d="m 279,292 c 1,0 2,0 3,-2 0,4 -3,5 -4,7 -1,2 -1,5 -3,6 0,-2 0,-5 0,-7 2,-1 3,-4 3,-8 0,0 2,1 1,4 z"
   id="path1761" />
  <path
   class="fil2"
   d="m 323,338 c -2,-5 -4,-13 -7,-17 -1,-3 -3,-4 -6,-2 -4,5 -6,13 -10,19 0,-16 2,-33 -1,-49 0,0 0,0 0,0 7,1 13,5 15,12 4,8 7,20 8,29 1,3 1,5 1,8 z"
   id="path1763" />
  <path
   class="fil3"
   d="m 295,293 c 0,0 0,0 0,0 1,8 -1,17 -1,26 -1,17 -3,34 -8,46 -6,-7 -12,-14 -18,-20 -3,-3 -6,-6 -8,-9 4,-1 7,-4 10,-6 3,-3 8,-5 9,-10 4,-2 6,-6 8,-10 1,-3 4,-6 5,-9 1,-3 1,-5 2,-8 0,0 1,0 1,0 z"
   id="path1765" />
  <path
   class="fil0"
   d="m 261,295 c -3,6 -16,7 -23,6 2,-1 4,-1 7,-1 5,0 11,-1 14,-3 0,0 2,-2 2,-2 z"
   id="path1767" />
  <path
   class="fil0"
   d="m 253,302 c 1,0 2,0 2,2 -3,-1 -10,2 -14,2 -1,0 -2,0 -2,-1 -2,-1 -2,-2 -3,-3 2,0 3,3 5,3 3,0 9,-4 12,-3 z"
   id="path1769" />
  <path
   class="fil2"
   d="m 317,300 c 4,1 8,4 11,7 5,3 9,5 14,7 2,1 14,6 18,9 v 25 c -6,-5 -18,-17 -21,-20 -2,-3 -4,-7 -6,-11 -3,-4 -9,-8 -12,-12 -1,0 -5,-4 -4,-5 z"
   id="path1771" />
  <path
   class="fil3"
   d="m 226,317 c 6,7 11,16 20,20 -1,1 -2,3 -2,5 -2,9 -2,21 -5,29 h -2 c -3,-8 -4,-19 -5,-29 -1,-8 -5,-17 -6,-24 0,-1 0,-1 0,-1 z"
   id="path1773" />
  <path
   class="fil3"
   d="m 292,344 c 0,9 -1,18 -2,27 h -28 c 0,-1 -1,-2 -1,-3 -3,-5 2,-9 4,-12 1,-3 3,-6 4,-8 6,6 11,13 16,19 3,-7 6,-14 7,-23 z"
   id="path1775" />
  <path
   class="fil3"
   d="m 240,371 c 0,0 1,0 1,-1 2,-4 3,-8 5,-12 3,3 2,9 1,13 z"
   id="path1777" />
  <path
   class="fil5"
   d="m 259,177 c 0,-1 -1,-2 -1,-3 5,-2 7,3 9,6 2,-1 2,-3 5,-2 0,4 -3,7 -4,11 -1,0 -1,-1 -1,-1 -1,2 -2,6 -4,8 0,1 -2,4 -3,5 -2,0 -3,-3 -3,-4 -2,0 -2,3 -4,3 0,0 0,-1 -1,-1 0,0 0,2 -1,2 -1,0 0,-1 -1,-2 -1,2 -1,4 -3,4 0,0 0,0 -1,-1 0,4 -2,1 -3,-1 -1,1 -1,3 -3,3 -1,0 -3,-5 -4,-6 -3,-3 -9,-11 -12,-15 6,0 8,3 10,5 0,-2 -1,-4 -2,-5 2,0 5,3 6,3 -1,-2 -1,-3 -2,-4 2,0 4,1 6,1 0,0 0,-1 0,-1 1,0 1,0 2,0 0,-1 -1,-1 -1,-3 2,-1 4,1 4,2 1,0 1,-1 1,-1 1,0 1,1 1,1 1,-1 0,-1 0,-2 1,-1 1,0 2,0 0,-2 -2,-3 -3,-5 2,0 4,1 6,2 0,0 -1,-1 -1,-2 2,-3 5,2 6,3 z"
   id="path1779" />
  <path
   class="fil6"
   d="m 279,190 c -1,2 -3,3 -4,5 2,1 5,1 6,3 1,0 0,0 0,1 2,1 5,1 6,4 -2,0 -3,0 -6,0 -4,1 -7,3 -9,2 0,-2 1,-3 1,-4 -1,-1 -2,1 -3,1 -2,-2 0,-3 0,-4 -1,-1 -1,0 -2,0 1,-4 5,-8 11,-8 z"
   id="path1781" />
  <path
   class="fil6"
   d="m 292,246 c 0,-8 -5,-10 -6,-16 0,-6 4,-2 6,0 0,-4 -4,-4 -4,-8 1,0 1,1 2,1 1,-2 -2,-3 -2,-5 3,0 4,2 6,3 0,-2 -2,-3 -2,-5 0,0 0,1 1,0 -1,-2 -3,-3 -3,-5 0,0 0,-1 0,-1 10,3 9,17 10,28 -2,1 -6,5 -8,8 z"
   id="path1783" />
  <path
   class="fil5"
   d="m 286,224 c -1,0 -2,-1 -3,-1 0,3 2,5 2,8 0,0 -1,0 -1,0 -3,0 2,5 0,9 -1,-1 -4,-6 -6,-8 -2,-2 1,-6 0,-11 0,-3 -2,-5 -2,-7 5,1 10,4 10,10 z"
   id="path1785" />
  <path
   class="fil6"
   d="m 198,219 c 0,1 -1,2 -1,3 2,0 2,-2 4,-2 0,3 -2,4 -2,7 0,0 1,-1 2,-1 -1,2 -1,5 -2,7 0,0 0,0 0,1 1,-1 2,-4 4,-4 0,1 -1,5 -2,6 -1,5 -2,10 -2,14 0,-1 -1,-4 -1,-6 -1,0 -1,1 -1,1 0,-2 -1,-6 0,-8 -1,0 -1,2 -2,2 -1,0 0,-4 0,-5 0,0 -1,2 -1,2 -1,-1 0,-3 0,-4 -1,0 -2,1 -2,1 1,-7 2,-12 6,-14 z"
   id="path1787" />
  <path
   class="fil3"
   d="m 240,242 c 0,3 0,6 3,5 1,3 0,4 -4,5 -1,-1 -2,-3 -2,-5 2,0 1,-4 3,-5 z"
   id="path1789" />
  <path
   class="fil3"
   d="m 224,281 c -1,-9 5,-14 8,-18 1,6 -6,14 -8,18 z"
   id="path1791" />
  <path
   class="fil3"
   d="m 244,269 c 2,0 8,1 9,2 1,4 -2,3 -3,3 -2,0 -3,2 -5,2 -1,-1 -2,-6 -1,-7 z"
   id="path1793" />
  <path
   class="fil3"
   d="m 274,289 c 0,2 -1,4 -2,5 -1,-1 -1,-1 -2,-2 1,-1 1,-7 0,-9 2,0 4,2 4,6 z"
   id="path1795" />
  <path
   class="fil3"
   d="m 224,292 c 0,1 2,4 2,5 0,1 -1,3 -2,3 -2,-1 -1,-7 0,-8 z"
   id="path1797" />
  <path
   class="fil3"
   d="m 241,296 c 1,0 2,1 2,1 2,0 3,-2 4,-2 3,0 11,-2 13,-2 -1,2 -3,3 -5,4 -5,2 -13,2 -16,3 -6,0 -8,-2 -9,-3 3,1 8,-1 11,-1 z"
   id="path1799" />
  <path
   class="fil3"
   d="m 252,306 c 3,0 5,0 6,3 1,2 1,5 -2,6 -3,2 -15,1 -20,0 -2,0 -5,-7 -6,-10 12,6 16,2 22,1 z"
   id="path1801" />
  <path
   class="fil7"
   d="m 255,176 c 1,1 1,4 2,4 2,-1 1,-3 2,-4 0,1 0,2 1,2 1,0 1,-1 1,-1 0,1 0,3 1,3 1,-1 1,-2 3,-3 0,1 0,1 1,2 0,0 -1,1 -1,1 1,0 1,0 2,-1 0,0 0,1 0,1 1,-1 2,-2 3,-2 0,1 0,1 0,1 0,0 0,0 1,0 0,1 -1,1 -1,2 0,1 0,1 0,1 1,0 1,-2 3,-2 0,1 -1,1 -1,2 2,-1 4,-1 5,0 0,1 0,1 0,2 1,1 2,-1 3,0 0,1 -1,1 -1,1 0,2 2,1 3,1 0,1 -1,2 0,2 0,0 0,0 1,0 1,0 1,1 2,2 -1,2 3,2 4,4 -1,0 -1,0 -1,1 1,1 4,1 4,3 -4,-1 -10,-1 -14,1 1,-1 10,-5 2,-5 2,-1 0,-2 -2,-1 1,-1 1,-2 -1,-2 0,-1 1,-2 2,-2 -1,-1 -2,-1 -3,-1 0,0 0,-1 0,-1 -2,0 -2,2 -4,2 0,-1 1,-2 1,-3 -1,-1 -2,1 -3,1 0,-1 1,-2 1,-3 -2,-1 -3,2 -5,3 -1,-1 -1,-1 -1,-1 -2,1 -2,3 -3,4 -1,-2 0,-5 -1,-7 -3,1 -2,5 -3,7 -1,-1 -1,-3 -1,-4 -1,0 0,2 -1,2 0,-1 0,-2 -1,-2 -1,0 -2,1 -2,3 -1,0 -1,-2 -2,-2 -1,0 0,1 -1,1 -1,-2 -3,-2 -2,1 -1,0 -2,-1 -3,-1 0,0 0,1 0,2 -1,0 -1,-1 -1,-1 -1,0 -1,1 -1,2 -2,-3 -3,-7 -5,-9 1,0 2,1 3,1 0,0 0,-1 0,-2 2,2 3,3 4,5 3,-1 1,-4 1,-6 2,1 2,3 4,4 1,-1 1,-2 1,-3 1,2 3,1 3,-1 0,0 0,0 1,0 0,-1 0,-3 0,-4 z"
   id="path1803" />
  <path
   class="fil7"
   d="m 235,193 c -1,0 -2,-1 -3,-1 1,2 2,3 3,5 -2,-1 -2,-2 -4,-2 0,1 1,2 1,4 -2,-1 -3,-3 -5,-3 0,2 1,3 1,5 -4,-4 -8,-8 -14,-10 1,-1 3,-1 4,0 0,0 0,0 -1,0 3,1 6,1 9,2 -1,-2 -4,-3 -6,-5 2,0 4,1 5,1 0,-1 -1,-1 -1,-2 2,0 3,1 4,2 0,-2 -1,-3 -2,-5 4,1 7,5 9,9 z"
   id="path1805" />
  <path
   class="fil7"
   d="m 240,192 c 0,0 -1,-1 -1,-1 -1,1 0,1 0,2 -1,-3 -3,-5 -4,-8 2,1 5,4 5,7 z"
   id="path1807" />
  <path
   class="fil7"
   d="m 294,203 c -2,0 -6,0 -7,-1 2,-2 7,-2 7,1 z"
   id="path1809" />
  <path
   class="fil7"
   d="m 295,209 c -2,-2 -6,-3 -9,-6 4,1 10,0 9,6 z"
   id="path1811" />
  <path
   class="fil7"
   d="m 295,213 c -3,-2 -7,-4 -9,-6 0,-1 0,-1 0,-2 4,2 8,3 9,8 z"
   id="path1813" />
  <path
   class="fil5"
   d="m 297,218 c -3,-3 -7,-5 -11,-8 3,-1 6,2 8,4 1,1 2,2 3,4 z"
   id="path1815" />
  <path
   class="fil5"
   d="m 289,214 c 5,3 9,7 10,14 -4,-4 -6,-10 -10,-14 z"
   id="path1817" />
  <path
   class="fil7"
   d="m 284,218 c 2,3 5,6 4,10 -1,-1 -2,-3 -4,-4 0,1 1,2 0,3 -1,-2 -3,-3 -4,-5 1,0 1,1 2,1 0,-1 -1,-2 -1,-3 2,-1 3,1 4,1 0,-1 -1,-2 -1,-3 z"
   id="path1819" />
  <path
   class="fil5"
   d="m 290,222 c 3,2 6,4 6,9 -1,0 -1,-2 -2,-2 -1,0 -1,1 -1,1 -1,-3 -2,-6 -3,-8 z"
   id="path1821" />
  <path
   class="fil3"
   d="m 232,256 c 0,0 -3,2 -5,3 -2,1 -5,1 -6,1 -1,0 -2,-1 -2,-1 l 1,-2 c 0,0 1,2 4,2 3,-1 5,-3 5,-4 1,1 2,1 3,1 z"
   id="path1823" />
  <path
   class="fil3"
   d="m 256,252 c 0,0 3,1 6,0 2,0 4,-1 4,-3 0,-1 -1,-1 -1,-1 0,0 0,3 -3,3 -3,1 -4,-1 -4,-2 -1,-1 -3,1 -3,1 0,1 0,2 1,2 z"
   id="path1825" />
  <path
   class="fil6"
   d="m 194,242 c 0,0 0,0 0,0 0,0 0,0 0,0 0,0 0,0 0,0 0,0 0,0 0,0 z"
   id="path1827" />
  <path
   class="fil7"
   d="m 264,248 c 0,1 0,1 -1,1 0,0 -1,0 -1,-1 0,0 1,0 1,0 1,0 1,0 1,0 z"
   id="path1829" />
  <path
   class="fil7"
   d="m 227,255 c 0,1 -1,1 -1,1 -1,0 -1,0 -1,-1 0,0 0,-1 1,-1 0,0 1,1 1,1 z"
   id="path1831" />
  <path
   class="fil0"
   d="m 924,362 c 0,4 -3,7 -7,7 H 805 c -4,0 -7,-3 -7,-7 V 164 c 0,-4 3,-7 7,-7 h 112 c 4,0 7,3 7,7 z"
   id="path1833" />
  <polygon
   class="fil3"
   points="850,173 871,173 871,353 850,353 "
   id="polygon1835" />
 </g>
</svg>
