<?xml version="1.0" encoding="UTF-8" standalone="no"?>
<!-- Created with Inkscape (http://www.inkscape.org/) -->

<svg
   width="877.88751mm"
   height="128.58749mm"
   viewBox="0 0 877.88751 128.58749"
   version="1.1"
   id="svg4933"
   xmlns="http://www.w3.org/2000/svg"
   xmlns:svg="http://www.w3.org/2000/svg">
  <defs
     id="defs4930" />
  <g
     id="layer1"
     transform="translate(296.51323,-95.131296)">
    <path
       class="fil10"
       d="m -216.34448,179.79796 h 41.01042 v 2.91042 h -41.01042 z m 31.48542,-26.45833 -11.1125,-5.55625 -10.84792,5.55625 z m -28.575,0 17.4625,-8.99583 17.72708,8.99583 v 3.175 h -35.18958 z m 0,21.96041 h 35.18958 v 2.91042 h -35.18958 z"
       id="path4355"
       style="clip-rule:evenodd;fill:#449bb3;fill-rule:evenodd;stroke-width:0.264583;image-rendering:optimizeQuality;shape-rendering:geometricPrecision;text-rendering:geometricPrecision" />
    <polygon
       class="fil10"
       points="1006,6476 1017,6476 1017,6537 1006,6537 "
       id="polygon4357"
       style="clip-rule:evenodd;fill:#449bb3;fill-rule:evenodd;image-rendering:optimizeQuality;shape-rendering:geometricPrecision;text-rendering:geometricPrecision"
       transform="matrix(0.26458333,0,0,0.26458333,-476.42989,-1555.6041)" />
    <polygon
       class="fil10"
       points="1039,6476 1050,6476 1050,6537 1039,6537 "
       id="polygon4359"
       style="clip-rule:evenodd;fill:#449bb3;fill-rule:evenodd;image-rendering:optimizeQuality;shape-rendering:geometricPrecision;text-rendering:geometricPrecision"
       transform="matrix(0.26458333,0,0,0.26458333,-476.42989,-1555.6041)" />
    <polygon
       class="fil10"
       points="1072,6476 1083,6476 1083,6537 1072,6537 "
       id="polygon4361"
       style="clip-rule:evenodd;fill:#449bb3;fill-rule:evenodd;image-rendering:optimizeQuality;shape-rendering:geometricPrecision;text-rendering:geometricPrecision"
       transform="matrix(0.26458333,0,0,0.26458333,-476.42989,-1555.6041)" />
    <polygon
       class="fil10"
       points="1105,6476 1116,6476 1116,6537 1105,6537 "
       id="polygon4363"
       style="clip-rule:evenodd;fill:#449bb3;fill-rule:evenodd;image-rendering:optimizeQuality;shape-rendering:geometricPrecision;text-rendering:geometricPrecision"
       transform="matrix(0.26458333,0,0,0.26458333,-476.42989,-1555.6041)" />
    <path
       class="fil2"
       d="m -165.01531,135.87713 -0.26458,20.37292 h -2.91042 v -17.4625 h -55.29792 v 17.4625 h -3.175 l 0.26459,-20.37292 z m -0.26458,30.95625 v 5.55625 c 0,16.93333 -13.75834,30.69166 -30.69167,30.69166 -16.93333,0 -30.69167,-13.75833 -30.69167,-30.69166 v -5.55625 h 3.175 l -0.26458,5.55625 c 0,15.34583 12.43542,27.78125 27.78125,27.78125 15.34583,0 27.78125,-12.43542 27.78125,-27.78125 v -5.55625 z"
       id="path4365"
       style="clip-rule:evenodd;fill:#449bb3;fill-rule:nonzero;stroke-width:0.264583;image-rendering:optimizeQuality;shape-rendering:geometricPrecision;text-rendering:geometricPrecision" />
    <path
       class="fil11"
       d="m -211.84656,109.68338 v 2.91042 h 8.73125 v -8.73125 h 2.91042 v 2.91041 h 2.91041 V 95.131296 h 2.91042 v 11.641664 h 2.91042 v -2.91041 h 2.91041 v 8.73125 h 8.73125 v -2.91042 h 2.91042 v 11.64167 h 11.90625 v 8.73125 h -61.38333 v -8.73125 h 11.64166 v -11.64167 z m -11.90625,17.4625 h 8.99583 v -2.91042 h -8.99583 z m 46.83125,0 h 8.99583 v -2.91042 h -8.99583 z m -2.91042,-11.64167 h -2.91041 v 11.64167 h 2.91041 z m -5.82083,0 h -2.91042 v 11.64167 h 2.91042 z m -5.82083,-5.82083 h -8.73125 v 17.4625 h 8.73125 z m -11.64167,5.82083 h -2.91042 v 11.64167 h 2.91042 z m -5.82083,0 h -2.91042 v 11.64167 h 2.91042 z"
       id="path4367"
       style="clip-rule:evenodd;fill:#264796;fill-rule:nonzero;stroke-width:0.264583;image-rendering:optimizeQuality;shape-rendering:geometricPrecision;text-rendering:geometricPrecision" />
    <path
       class="fil11"
       d="m -118.44864,176.62296 v 8.99583 c 0,3.175 2.64583,5.82084 5.82083,5.82084 v 20.6375 h -20.37292 v -3.175 c 0,-4.7625 3.96875,-8.73125 8.73125,-8.73125 v -2.91042 c -5.55625,0 -10.05416,-3.70417 -11.37708,-8.73125 h -0.26458 c -1.85209,0 -2.91042,1.05833 -2.91042,2.91042 v 5.82083 h -26.19375 v -2.91042 c 0,-4.7625 3.70417,-8.73125 8.73125,-8.73125 h 5.82083 v -2.91041 c 0,-4.7625 3.96875,-8.73125 8.73125,-8.73125 h 4.23334 c -2.11667,-3.43959 -5.82084,-5.82084 -10.05417,-5.82084 h -19.57917 c -3.70416,0 -6.87916,-3.175 -6.87916,-6.87916 0,-6.35 7.67291,-9.26042 11.64166,-4.7625 h 4.7625 c 1.05834,-2.64583 2.38125,-4.7625 4.23334,-6.87917 -1.85209,-2.11666 -2.91042,-4.7625 -2.91042,-7.67291 0,-3.70417 1.32292,-6.61459 3.70417,-8.99584 h -6.61459 v -2.91041 c 0,-2.11667 1.05834,-4.23334 2.64584,-5.55625 -1.5875,-1.32292 -2.64584,-3.70417 -2.64584,-6.08542 v -5.82083 h 11.64167 v -5.82084 h 17.4625 c 11.37708,0 20.37292,9.26042 20.37292,20.37292 0,9.26042 -5.82084,17.19792 -14.55209,19.57917 v 22.75416 c 0,2.64583 1.85209,4.49792 4.49792,4.49792 2.38125,0 4.23333,-1.85209 4.23333,-4.49792 v -12.96458 c 0,-5.02708 3.96875,-8.73125 8.73125,-8.73125 h 5.82084 v 2.91042 c 0,4.7625 -3.70417,8.73125 -8.73125,8.73125 h -2.91042 v 10.05416 c 0,3.70417 -2.38125,6.61458 -5.82083,7.14375 z m -5.82084,26.45833 c -3.175,0 -5.82083,2.64584 -5.82083,5.82084 h 14.55208 v -15.08125 c -3.43958,-1.05834 -5.82083,-4.23334 -5.82083,-8.20209 v -8.99583 c -3.43958,-0.52917 -5.82083,-3.43958 -5.82083,-7.14375 v -22.75416 c -2.64584,-1.32292 -5.55625,-1.85209 -8.73125,-1.85209 -6.08542,0 -11.37709,2.38125 -15.08125,6.61459 -2.11667,2.11666 -3.70417,5.02708 -4.49792,7.9375 h -8.20208 c -2.64584,-3.70417 -7.40834,-1.85209 -7.40834,1.85208 0,2.11667 1.85209,3.96875 3.96875,3.96875 h 19.57917 c 0,-6.35 5.29167,-11.64167 11.64167,-11.64167 v 2.91042 c -4.7625,0 -8.73125,3.96875 -8.73125,8.73125 v 0.26458 c 6.61458,1.32292 11.64166,7.14375 11.64166,14.2875 v 5.82083 c 0,4.7625 3.96875,8.73125 8.73125,8.73125 h 2.91042 v 8.73125 z m -17.4625,-11.64166 c 0,-3.175 2.64584,-5.82084 5.82084,-5.82084 v -5.82083 c 0,-1.05833 -0.26459,-1.85208 -0.52917,-2.91042 h -5.29167 c -3.175,0 -5.82083,2.64584 -5.82083,5.82084 v 5.82083 h -8.73125 c -3.43958,0 -5.82083,2.64583 -5.82083,5.82083 h 20.37291 z m 11.64167,-81.75625 h -14.55208 v 2.91042 h 17.4625 v 2.91041 c 0,3.175 -2.64584,5.82084 -5.82084,5.82084 0,6.61458 -5.29166,11.64166 -11.90625,11.64166 -4.7625,0.26459 -8.46666,3.96875 -8.46666,8.99584 0,2.11666 0.79375,4.23333 2.11666,5.55625 3.96875,-3.43959 9.525,-5.55625 15.34584,-5.55625 3.43958,0 7.14375,0.79375 10.31875,2.11666 7.40833,-1.85208 12.96458,-8.73125 12.96458,-16.93333 0,-9.525 -7.67292,-17.4625 -17.4625,-17.4625 z m -5.82083,8.73125 h 2.91041 c 1.5875,0 2.91042,-1.32292 2.91042,-2.91042 h -26.19375 v 2.91042 c 0,2.38125 1.85208,4.49792 3.96875,4.49792 h 1.85208 v 2.91041 h -1.85208 c -2.11667,0 -3.96875,2.11667 -3.96875,4.23334 0.79375,0 11.64167,0 11.64167,0 4.7625,0 8.73125,-3.70417 8.73125,-8.73125 z m 32.01458,32.27917 h -2.91042 c -3.175,0 -5.82083,2.64583 -5.82083,5.82083 h 2.91042 c 3.175,0 5.82083,-2.64583 5.82083,-5.82083 z m -37.83542,-32.27917 h -5.82083 v 2.91042 h 5.82083 z"
       id="path4369"
       style="clip-rule:evenodd;fill:#264796;fill-rule:nonzero;stroke-width:0.264583;image-rendering:optimizeQuality;shape-rendering:geometricPrecision;text-rendering:geometricPrecision" />
    <path
       class="fil12"
       d="m -247.03614,112.5938 c 6.61458,0 11.90625,5.29166 11.90625,11.64166 v 2.91042 c -1.5875,-0.79375 -2.91042,-1.32292 -4.49792,-1.32292 -2.38125,0 -4.23333,1.85209 -4.49792,4.49792 v 0.26458 c 8.73125,2.11667 11.64167,12.7 5.82084,19.05 1.85208,2.11667 3.175,4.23334 4.23333,6.87917 h 4.7625 c 3.96875,-4.49792 11.64167,-1.5875 11.64167,4.7625 v 1.05833 h -1.5875 c -2.38125,0 -4.23334,1.85208 -4.23334,4.23333 v 0 1.5875 h -20.6375 c -4.23333,0 -7.9375,2.38125 -10.05416,5.82084 h 4.23333 c 5.02708,0 8.99583,3.96875 8.99583,8.73125 v 2.91041 h 5.82084 c 4.7625,0 8.73125,3.96875 8.73125,8.73125 v 2.91042 h -26.45834 v -2.91042 -2.91041 c 0,-1.85209 -0.79375,-2.91042 -2.91041,-2.91042 h -0.26459 c -1.32291,5.02708 -5.82083,8.73125 -11.37708,8.73125 v 2.91042 c 4.7625,0 8.73125,3.96875 8.73125,8.73125 v 3.175 h -20.37292 v -20.6375 c 3.175,0 5.82084,-2.64584 5.82084,-5.82084 v -8.99583 c -3.43959,-0.52917 -5.82084,-3.43958 -5.82084,-7.14375 v -4.23333 h -2.91041 c -4.7625,0 -8.73125,-3.96875 -8.73125,-8.73125 v -2.91042 h 5.82083 c 4.7625,0 8.73125,3.96875 8.73125,8.73125 v 7.14375 c 0,2.64583 1.85208,4.49792 4.49792,4.49792 2.38125,0 4.23333,-1.85209 4.23333,-4.49792 V 150.6938 h -17.4625 c -6.35,-0.26459 -11.64167,-5.29167 -11.64167,-11.64167 h 3.96875 c -2.38125,-2.38125 -3.96875,-5.29167 -3.96875,-8.99583 h 3.96875 c -2.38125,-2.11667 -3.96875,-5.02709 -3.96875,-8.73125 h 14.55209 c 6.35,0 11.64166,5.29166 11.64166,11.64166 v 2.91042 c 0,2.38125 1.32292,4.23333 2.91042,5.29167 v -20.6375 c -1.5875,-1.05834 -2.91042,-2.91042 -2.91042,-5.02709 v -2.91041 z m -17.4625,29.36875 h 8.73125 c 6.08541,0 11.37708,2.11666 15.61041,5.82083 1.32292,-1.85208 1.85209,-3.70417 2.11667,-5.82083 0,-4.49792 -2.91042,-8.46667 -7.9375,-8.73125 -0.26458,0 -0.52917,-0.26459 -1.05833,-0.26459 h -5.82084 c -6.35,0 -11.64166,-5.02708 -11.64166,-11.64166 z m 38.1,23.28333 c 0.52916,-2.64583 2.64583,-5.02708 5.29166,-5.55625 -1.05833,-2.64583 -4.7625,-3.175 -6.87916,-0.26458 h -8.20209 c 0,-0.26459 0,-0.26459 0,-0.26459 -2.64583,-8.46666 -10.31875,-14.2875 -19.57916,-14.2875 h -8.73125 c -4.7625,0 -8.73125,-3.96875 -8.73125,-8.99583 v -2.91042 c 0,-4.7625 -3.96875,-8.73125 -8.73125,-8.73125 h -11.1125 c 1.05833,3.43959 4.23333,5.82084 8.20208,5.82084 h 5.82083 v 2.91041 h -14.02291 c 1.05833,3.43959 4.23333,6.08542 8.20208,6.08542 h 5.82083 v 2.91042 h -5.82083 -8.20208 c 1.05833,3.175 4.23333,5.82083 8.20208,5.82083 h 23.28333 v 2.91042 h -2.91041 v 18.78541 c 0,3.70417 -2.38125,6.61458 -5.82084,7.14375 v 8.99583 c 0,3.96875 -2.38125,7.14375 -5.82083,8.20209 v 15.08125 h 14.55208 c 0,-3.175 -2.64583,-5.82084 -5.82083,-5.82084 h -2.91042 v -8.73125 h 2.91042 c 4.7625,0 8.73125,-3.96875 8.73125,-8.73125 v -5.82083 c 0,-7.14375 5.02708,-12.96458 11.64167,-14.2875 v -0.26458 c 0,-4.7625 -3.70417,-8.73125 -8.73125,-8.73125 v -2.91042 c 6.61458,0 11.64166,5.29167 11.64166,11.64167 z m -23.54792,29.10416 h 20.6375 c 0,-3.175 -2.64583,-5.82083 -5.82083,-5.82083 h -8.99584 v -5.82083 c 0,-3.175 -2.38125,-5.82084 -5.82083,-5.82084 h -5.29167 c -0.26458,1.05834 -0.52916,1.85209 -0.52916,2.91042 v 5.82083 c 3.175,0 5.82083,2.64584 5.82083,5.82084 z m -20.37292,-87.57708 h 23.28334 v 2.91042 h -23.28334 z m 23.28334,23.28334 c 0.26458,-3.96875 3.43958,-7.14375 7.40833,-7.14375 0.52917,0 1.05833,0.26458 1.32292,0.26458 -0.52917,-4.23333 -4.23334,-7.67292 -8.73125,-7.67292 h -20.37292 c 0,1.5875 1.32292,2.91042 2.91042,2.91042 h 2.91041 v 2.91042 c 0,5.02708 3.96875,8.73125 8.73125,8.73125 z m -40.74584,26.45833 h 2.91042 c 3.175,0 5.82083,2.64583 5.82083,5.82083 h -2.91041 c -3.175,0 -5.82084,-2.64583 -5.82084,-5.82083 z m 34.925,-38.1 h 5.82084 v 2.91042 h -5.82084 z"
       id="path4371"
       style="clip-rule:evenodd;fill:#264796;fill-rule:evenodd;stroke-width:0.264583;image-rendering:optimizeQuality;shape-rendering:geometricPrecision;text-rendering:geometricPrecision" />
    <path
       class="fil12"
       d="m -213.16948,212.07713 h 2.11667 v 9.525 h 0.79375 v 1.85208 h -0.79375 -3.96875 v -1.85208 h 1.32292 v -6.87917 l -1.5875,0.79375 -1.05834,-1.5875 z m 37.04167,1.85208 v -1.85208 h -7.9375 v 3.175 h 2.11667 v -1.32292 h 2.91041 l -2.64583,2.91042 0.79375,1.5875 h 1.05833 c 1.32292,-0.26459 1.85209,1.05833 1.5875,1.85208 -0.26458,1.85208 -2.91041,1.85208 -3.96875,1.05833 v -1.5875 h -2.11666 v 2.91042 c 2.91041,1.85208 8.99583,1.32292 8.99583,-2.64583 0,-2.11667 -1.85208,-3.43959 -3.70417,-3.43959 z m -19.84375,5.02708 3.175,-7.40833 1.85208,1.05833 -2.38125,5.82084 h 2.91042 v -3.96875 h 2.64583 v 3.96875 h 1.32292 v 1.85208 h -1.32292 v 1.32292 h 0.79375 v 1.85208 h -0.79375 -3.96875 v -1.85208 h 1.32292 v -1.32292 h -5.55625 z m -8.73125,-3.175 c 0,-2.91041 4.49792,-3.43958 3.96875,1.85209 -1.05833,0.26458 -3.96875,1.05833 -3.96875,-1.85209 z m -0.26458,4.49792 v 1.5875 c 1.5875,0.52917 3.96875,-0.26458 4.23333,-2.38125 -3.96875,1.32292 -6.61458,-1.05833 -6.61458,-3.70417 0,-1.85208 1.32291,-3.96875 4.49791,-3.96875 3.43959,0 4.7625,3.175 4.49792,6.08542 0,3.70417 -2.11667,5.82083 -5.29167,5.82083 -0.79375,0 -2.38125,0 -3.175,-0.79375 v -2.64583 z"
       id="path4373"
       style="clip-rule:evenodd;fill:#264796;fill-rule:evenodd;stroke-width:0.264583;image-rendering:optimizeQuality;shape-rendering:geometricPrecision;text-rendering:geometricPrecision" />
    <polygon
       class="fil10"
       points="1527,6681 1516,6681 1516,6284 1527,6284 "
       id="polygon4375"
       style="clip-rule:evenodd;fill:#449bb3;fill-rule:evenodd;image-rendering:optimizeQuality;shape-rendering:geometricPrecision;text-rendering:geometricPrecision"
       transform="matrix(0.26458333,0,0,0.26458333,-476.42989,-1555.6041)" />
    <path
       class="fil11"
       d="m 166.24302,127.67505 h -3.96875 v -2.38125 h 1.32292 v -6.87917 h -1.32292 v -2.38125 h 4.49792 v 6.87917 l 5.02708,-6.87917 h 4.23333 v 2.38125 h -1.32291 v 6.87917 h 1.32291 v 2.38125 h -5.55625 v -2.38125 h 1.05834 v -4.7625 z M 22.57427,117.88546 c -1.852083,0 -3.175,1.85209 -3.175,3.70417 0,2.11667 1.322917,3.70417 3.175,3.70417 2.116667,0 3.439584,-1.5875 3.439584,-3.70417 0,-2.11667 -1.322917,-3.70417 -3.439584,-3.70417 z m 0,10.05417 c -3.439583,0 -6.35,-2.64583 -6.35,-6.35 0,-3.70417 2.910417,-6.08542 6.35,-6.08542 3.704167,0 6.614584,2.38125 6.614584,6.08542 0,3.70417 -2.910417,6.35 -6.614584,6.35 z m 128.05833,-0.26458 h -4.23333 v -2.38125 h 1.32292 v -6.87917 h -1.32292 v -2.38125 h 4.49792 v 6.87917 l 5.29166,-6.87917 h 3.96875 v 2.38125 h -1.05833 v 6.87917 h 1.05833 v 2.38125 h -5.55625 v -2.38125 h 1.32292 v -4.7625 z m -17.72708,-2.38125 v -6.87917 h -1.32292 v -2.38125 h 4.23334 v 4.49792 h 2.11666 l 1.32292,-2.11667 h -0.79375 v -2.38125 h 5.55625 v 2.38125 h -1.32292 l -2.38125,3.175 c 0,2.11667 1.5875,3.43958 3.96875,3.70417 v 2.38125 c -3.96875,0 -6.35,-2.11667 -6.87916,-4.7625 h -1.5875 v 2.38125 h 1.32291 v 2.38125 h -5.55625 v -2.38125 z m -6.35,-4.7625 v -1.05834 c -1.85208,-2.64583 -5.82083,-1.5875 -5.82083,2.38125 0,1.85209 1.05833,3.70417 3.175,3.70417 1.85208,0 2.91041,-0.79375 3.43958,-2.64583 l 2.38125,1.32291 c -2.64583,6.08542 -12.17083,4.7625 -12.17083,-2.38125 0,-3.70416 2.91041,-6.35 6.35,-6.35 1.05833,0 1.85208,0.26459 2.64583,1.05834 v -0.52917 h 2.64583 v 4.49792 z m -22.225,7.14375 v -2.38125 h 1.32292 v -6.87917 h -1.32292 v -2.38125 h 4.23333 v 2.64583 h 2.38125 c 7.14375,0 7.14375,8.99584 0,8.99584 z m 4.23333,-6.35 v 3.96875 h 2.11667 c 3.175,0 3.175,-3.96875 0,-3.96875 z m -20.10833,6.35 v -2.38125 c 1.852083,-0.26459 3.439583,-1.32292 3.439583,-4.49792 v -2.38125 h -1.5875 v -2.38125 h 10.583337 v 9.26042 h 1.32291 v 2.38125 h -5.556247 v -2.38125 h 1.058333 v -6.87917 h -2.645833 v 2.64583 c 0,3.175 -2.38125,6.61459 -6.614583,6.61459 z m -30.427083,5.82083 v -2.38125 h 1.322916 v -12.7 h -1.322916 v -2.38125 h 3.96875 l 0.264583,1.05833 c 0.79375,-0.79375 2.38125,-1.5875 3.704166,-1.5875 3.704167,0 6.35,2.64584 6.35,6.35 0,3.70417 -2.645833,6.35 -6.35,6.35 -1.322916,0 -2.645833,-0.79375 -3.439583,-1.5875 v 4.49792 h 1.322917 v 2.38125 z m 4.497916,-13.22917 v 3.175 c 1.5875,2.91042 6.614583,2.91042 6.614583,-1.5875 0,-4.49791 -5.027083,-4.7625 -6.614583,-1.5875 z m -12.170833,0.52917 2.645833,-5.82083 H 51.94302 v -2.64584 h 5.820833 v 2.64584 h -1.322916 l -4.497917,8.73125 c -2.116667,3.96875 -5.55625,5.29166 -9.260417,3.70416 l -0.264583,-4.23333 h 2.645833 v 2.11667 c 1.5875,0.26458 2.645834,-0.26459 3.439584,-1.85209 l -5.55625,-8.46666 h -1.5875 v -2.64584 h 6.614583 v 2.64584 h -0.79375 z m -10.847917,2.11667 h -7.143749 v -2.38125 h 7.143749 z m -69.056249,-8.20209 c -2.910416,0 -4.7625,2.64584 -4.497916,5.29167 0,2.64583 1.5875,5.29167 4.497916,5.29167 2.645834,0.26458 4.233334,-2.38125 4.497917,-5.29167 0,-2.64583 -1.852083,-5.29167 -4.497917,-5.29167 z m -10.318749,3.96875 h 2.381249 c 0.529167,-3.96875 3.704167,-6.61458 7.9375,-6.61458 4.497917,0 7.9375,3.175 7.9375,7.9375 0,4.7625 -3.439583,8.20208 -7.9375,8.20208 -4.497916,0 -7.672916,-2.91041 -7.9375,-7.14375 h -2.381249 v 4.23334 h 1.322916 v 2.38125 h -6.085416 v -2.38125 h 1.322916 v -10.31875 h -1.322916 v -2.64584 h 6.085416 v 2.64584 h -1.322916 z m 19.843749,-0.26458 h 1.322917 l 2.116667,3.175 c 0,1.85208 -1.058334,3.43958 -3.704167,3.70417 v 2.38125 c 3.96875,0 6.085417,-2.11667 6.35,-4.7625 h 1.5875 v 2.38125 h -1.058334 v 2.38125 h 5.2916671 v -2.38125 h -1.0583333 v -2.38125 h 1.5875 c 0.5291666,2.64583 2.6458333,4.7625 6.3499999,4.7625 v -2.38125 c -2.38125,-0.26459 -3.4395833,-1.85209 -3.4395833,-3.70417 l 1.8520833,-3.175 h 1.5875 v -2.38125 h -5.2916666 v 2.38125 h 0.5291666 l -1.3229166,2.11667 h -1.8520833 v -4.49792 h -4.2333338 v 2.38125 h 1.058334 v 2.11667 h -1.852083 l -1.852084,-2.91042 v -1.5875 h -3.96875 z m 22.4895833,6.87917 v -6.87917 H 1.1430206 v -2.38125 h 4.4979167 v 4.49792 h 4.7624997 v -2.11667 H 9.3451039 v -2.38125 H 14.63677 v 2.38125 h -1.322916 v 6.87917 h 1.322916 v 2.38125 h -4.233333 v -4.7625 H 5.6409373 v 2.38125 h 0.79375 v 2.38125 H 1.1430206 v -2.38125 z m 84.4020827,2.38125 h -3.704167 l -0.264583,-1.32292 c -2.910417,2.64583 -8.73125,2.38125 -8.466667,-2.38125 0,-1.85208 1.322917,-3.43958 5.291667,-3.43958 h 2.910416 c -0.264583,-3.175 -3.96875,-2.91042 -5.027083,-1.5875 v 1.05833 H 74.96177 v -3.96875 h 2.645833 v 0.26458 c 2.910417,-1.85208 8.202083,-1.05833 8.202083,3.96875 v 5.02709 h 1.058334 z m -4.233334,-4.7625 h -2.38125 c -1.852083,0 -2.910416,0.52916 -2.910416,1.32291 0.264583,2.11667 3.96875,1.32292 5.291666,-0.52916 z m 84.402084,-11.64167 -2.11667,1.32292 c 1.32292,3.175 6.61459,3.175 7.9375,0 l -2.11666,-1.32292 c -0.26459,1.5875 -3.175,1.5875 -3.70417,0 z"
       id="path4377"
       style="clip-rule:evenodd;fill:#264796;fill-rule:nonzero;stroke-width:0.264583;image-rendering:optimizeQuality;shape-rendering:geometricPrecision;text-rendering:geometricPrecision" />
    <path
       class="fil11"
       d="m 371.82427,127.67505 v -2.38125 h 1.32291 v -6.87917 h -1.32291 v -2.38125 h 4.49791 v 2.64583 h 2.38125 c 6.87917,0 6.87917,8.99584 0,8.99584 z m -14.2875,-2.38125 v -6.87917 h -1.32292 v -2.38125 h 4.23333 v 4.49792 h 4.7625 v -2.11667 h -0.79375 v -2.38125 h 5.29167 v 2.38125 h -1.32292 v 6.87917 h 1.32292 v 2.38125 h -4.49792 v -4.7625 h -4.7625 v 2.38125 h 1.05834 v 2.38125 h -5.29167 v -2.38125 z m -16.13959,0 v -6.87917 h -1.32291 v -2.38125 h 4.49791 v 4.49792 h 4.7625 v -2.11667 h -1.05833 v -2.38125 h 5.29167 v 2.38125 h -1.32292 v 6.87917 h 1.32292 v 2.38125 h -4.23334 v -4.7625 h -4.7625 v 2.38125 h 0.79375 v 2.38125 h -5.29166 v -2.38125 z m -29.10416,2.38125 v -2.38125 h 1.32291 v -6.87917 h -1.32291 v -2.38125 c 2.11666,0 5.02708,0 7.14375,0 2.64583,0 3.70416,1.05833 3.96875,2.38125 0.26458,1.32292 -0.26459,2.38125 -1.05834,2.64583 1.32292,0.52917 2.11667,1.85209 2.11667,2.91042 0,1.85208 -1.32292,3.70417 -4.7625,3.70417 z m 4.49791,-9.26042 v 2.11667 h 2.64584 c 1.32291,0 1.85208,-1.85209 -0.26459,-2.11667 z m 0,4.23333 v 2.64584 h 2.91042 c 2.38125,0 2.11667,-2.64584 0,-2.64584 z m -14.2875,2.64584 v -6.87917 h -1.5875 v 2.38125 h -2.64583 v -4.7625 h 12.17083 v 4.7625 h -2.64583 v -2.38125 h -1.5875 v 6.87917 h 1.32292 v 2.38125 h -6.61459 v -2.38125 z m -62.97083,0 c 1.05833,-1.05834 2.11667,-2.11667 2.11667,-4.7625 v -2.11667 h -1.5875 v -2.38125 h 11.1125 v 9.26042 h 1.85208 l -0.52917,5.29166 h -2.91041 v -2.91041 h -8.46667 l -0.26458,2.91041 h -2.64584 c 0,-1.5875 0,-3.70416 0,-5.29166 z m 8.46667,0 v -6.87917 h -3.175 v 2.11667 c 0,1.5875 -0.79375,4.23333 -1.5875,4.7625 z m -63.5,2.38125 v -2.38125 h 1.32291 v -6.87917 h -1.32291 v -2.38125 h 10.58333 v 4.49792 h -2.38125 v -2.11667 h -3.70417 v 6.87917 h 1.85209 v 2.38125 z m 41.275,-9.26042 h -1.5875 v -2.38125 h 3.96875 l 3.43958,7.67292 2.11667,-5.29167 h -1.32292 v -2.38125 h 5.55625 v 2.38125 h -1.05833 l -4.7625,10.31875 c -1.85209,4.23333 -5.02709,4.7625 -7.40834,4.49792 l -0.26458,-2.64584 c 2.38125,0 4.49792,-0.52916 5.55625,-3.43958 z m 109.80208,2.11667 c 0,-1.85209 -1.85208,-2.64584 -2.91042,-2.38125 -1.32291,0 -2.91041,0.52916 -3.175,2.38125 z m 2.91042,2.11666 h -8.99584 c 0.52917,3.70417 5.02709,3.43959 6.87917,1.05834 l 1.85208,1.5875 c -3.70416,4.7625 -11.90625,3.175 -11.90625,-3.43959 0,-7.40833 9.78959,-8.46666 11.90625,-2.64583 0.52917,1.32292 0.52917,2.38125 0.26459,3.43958 z m 57.15,5.02709 h -3.96875 v -2.38125 h 1.05833 v -6.87917 h -1.05833 v -2.38125 h 4.23333 v 6.87917 l 5.29167,-6.87917 h 4.23333 v 2.38125 h -1.32292 v 6.87917 h 1.32292 v 2.38125 h -5.82083 v -2.38125 h 1.32291 v -4.7625 z m 0.79375,-16.40417 -2.11667,1.32292 c 1.05833,3.175 6.35,3.175 7.9375,0 l -2.11667,-1.32292 c -0.26458,1.5875 -3.43958,1.5875 -3.70416,0 z m -193.675,6.87917 c -1.85209,0 -3.175,1.5875 -3.175,3.70416 0,1.85209 1.32291,3.70417 3.175,3.70417 2.11666,0 3.43958,-1.5875 3.43958,-3.70417 0,-2.11666 -1.32292,-3.70416 -3.43958,-3.70416 z m 0,10.05416 c -3.70417,0 -6.35,-2.64583 -6.35,-6.35 0,-3.70416 2.64583,-6.35 6.35,-6.35 3.70416,0 6.35,2.64584 6.35,6.35 0,3.70417 -2.64584,6.35 -6.35,6.35 z m 17.19791,-7.67291 v -1.05834 c -2.11666,-2.64583 -6.08541,-1.5875 -6.08541,2.38125 0,1.85209 1.32291,3.43959 3.175,3.70417 1.85208,0 2.91041,-1.05833 3.70416,-2.64583 l 2.11667,1.32291 c -2.38125,5.82084 -12.17083,4.7625 -12.17083,-2.38125 0,-3.70416 2.91041,-6.35 6.61458,-6.35 1.05833,0 1.5875,0.26459 2.64583,1.05834 v -0.79375 h 2.38125 v 4.7625 z m 47.09584,7.40833 h -3.70417 v -1.32292 c -3.175,2.64584 -8.73125,2.38125 -8.73125,-2.38125 0,-2.11666 1.5875,-3.43958 5.29167,-3.43958 h 2.91041 c 0,-3.43958 -3.70416,-2.91042 -5.02708,-1.5875 v 1.05833 h -2.64583 v -4.23333 h 2.64583 v 0.52917 c 2.91042,-1.85209 8.20208,-1.05834 8.20208,3.96875 v 4.7625 h 1.05834 z m -4.23334,-5.02708 h -2.38125 c -1.85208,0 -2.91041,0.52916 -2.64583,1.5875 0,2.11666 3.70417,1.32291 5.02708,-0.52917 z m 5.55625,10.58333 v -2.38125 h 1.32292 v -12.7 h -1.32292 v -2.38125 h 3.96875 l 0.26459,1.05833 c 0.79375,-0.79375 2.38125,-1.5875 3.70416,-1.5875 3.70417,0 6.35,2.64584 6.35,6.35 0,3.70417 -2.64583,6.35 -6.35,6.35 -1.32291,0 -2.64583,-0.79375 -3.43958,-1.5875 v 4.49792 h 1.32292 v 2.38125 z m 4.49792,-13.22917 v 3.175 c 1.5875,2.91042 6.61458,2.91042 6.61458,-1.5875 0,-4.49791 -5.02708,-4.7625 -6.61458,-1.5875 z m 20.6375,0.26459 v -1.05834 c -2.11667,-2.64583 -6.08542,-1.5875 -6.08542,2.38125 0,1.85209 1.32292,3.43959 3.175,3.70417 1.85209,0 2.91042,-1.05833 3.70417,-2.64583 l 2.11667,1.32291 c -2.38125,5.82084 -12.17084,4.7625 -12.17084,-2.38125 0,-3.70416 2.91042,-6.35 6.61459,-6.35 1.05833,0 1.5875,0.26459 2.64583,1.05834 v -0.79375 h 2.38125 v 4.7625 z m 94.72083,-2.11667 v 6.87917 h 1.32292 v 2.38125 h -4.49792 v -9.26042 h -0.79375 v -2.38125 h 5.29167 v 2.38125 z m -11.90625,2.91042 v 3.96875 h 2.11667 c 3.175,0 3.175,-3.96875 0,-3.96875 z"
       id="path4379"
       style="clip-rule:evenodd;fill:#264796;fill-rule:nonzero;stroke-width:0.264583;image-rendering:optimizeQuality;shape-rendering:geometricPrecision;text-rendering:geometricPrecision" />
    <path
       class="fil11"
       d="m 573.70135,125.2938 v -6.87917 h -1.85209 v 2.38125 h -2.38125 v -4.7625 h 11.90625 v 4.7625 h -2.38125 v -2.38125 h -1.85208 v 6.87917 h 1.5875 v 2.38125 h -6.61458 v -2.38125 z m -157.1625,-6.87917 h -1.5875 v -2.38125 h 3.96875 l 3.70417,7.67292 1.85208,-5.29167 h -1.05833 v -2.38125 h 5.29166 v 2.38125 h -1.05833 l -4.7625,10.31875 c -1.85208,4.23333 -5.02708,4.7625 -7.40833,4.49792 v -2.64584 c 2.11666,0 4.23333,-0.52916 5.29166,-3.43958 z m 15.61042,6.87917 v -6.87917 h -1.32292 v -2.38125 h 4.23333 v 4.49792 h 5.02709 v -2.11667 h -1.05834 v -2.38125 h 5.29167 v 2.38125 h -1.32292 v 6.87917 h 1.32292 v 2.38125 h -4.23333 v -4.7625 h -5.02709 v 2.38125 h 1.05834 v 2.38125 h -5.29167 v -2.38125 z m 32.27916,2.38125 v -2.38125 h 1.32292 v -6.87917 h -1.32292 v -2.38125 c 2.11667,0 5.02708,0 7.14375,0 2.38125,0 3.70417,1.05833 3.70417,2.38125 0.26458,1.32292 -0.26459,2.38125 -0.79375,2.64583 1.32291,0.52917 2.11666,1.5875 2.11666,2.91042 0,1.85208 -1.5875,3.70417 -4.7625,3.70417 z m 4.23333,-9.26042 v 2.11667 h 2.64584 c 1.32291,0 2.11666,-1.85209 -0.26459,-2.11667 z m 0,4.23333 v 2.64584 h 2.91042 c 2.38125,0 2.11667,-2.64584 0,-2.64584 z m -17.19791,5.02709 h -3.96875 v -2.38125 h 1.32292 v -6.87917 h -1.32292 v -2.38125 h 4.49791 v 6.87917 l 5.02709,-6.87917 h 4.23333 v 2.38125 h -1.32292 v 6.87917 h 1.32292 v 2.38125 h -5.55625 v -2.38125 h 1.05833 v -4.7625 z m 36.5125,-7.14375 c -0.26459,-1.85209 -1.85209,-2.38125 -3.175,-2.38125 -1.05834,0 -2.91042,0.52916 -2.91042,2.38125 z m 2.91041,2.11666 h -8.99583 c 0.26458,3.70417 4.7625,3.43959 6.61458,1.05834 l 1.85209,1.5875 c -3.70417,4.7625 -11.90625,3.175 -11.90625,-3.43959 0,-7.40833 9.78958,-8.46666 11.90625,-2.64583 0.52916,1.32292 0.52916,2.38125 0.52916,3.43958 z m 2.11667,10.84792 v -2.38125 h 1.32292 v -12.7 h -1.32292 v -2.38125 h 3.70417 l 0.26458,1.05833 c 1.05833,-1.05833 2.64583,-1.5875 3.70417,-1.5875 3.70416,0 6.61458,2.64584 6.61458,6.35 0,3.70417 -2.91042,6.08542 -6.61458,6.08542 -1.32292,0 -2.38125,-0.52917 -3.43959,-1.32292 v 4.49792 h 1.32292 v 2.38125 z m 4.23333,-13.49375 v 3.43958 c 1.5875,2.91042 6.87917,2.91042 6.87917,-1.5875 0,-4.49791 -5.02708,-4.7625 -6.87917,-1.85208 z m 20.90209,0.52917 v -1.05834 c -1.85209,-2.64583 -6.08542,-1.5875 -5.82084,2.38125 0,1.85209 1.05834,3.43959 2.91042,3.70417 1.85208,0 2.91042,-1.05833 3.70417,-2.64583 l 2.11666,1.32291 c -2.38125,5.82084 -12.17083,4.7625 -11.90625,-2.38125 0,-3.70416 2.91042,-6.35 6.35,-6.35 1.05834,0 1.5875,0.26459 2.64584,1.05834 v -0.79375 h 2.38125 v 4.7625 z m 9.78958,7.14375 h -3.96875 v -2.38125 h 1.32292 v -6.87917 h -1.32292 v -2.38125 h 4.23333 v 6.87917 l 5.29167,-6.87917 h 4.23333 v 2.38125 h -1.32291 v 6.87917 h 1.32291 v 2.38125 h -5.82083 v -2.38125 h 1.32292 v -4.7625 z m 16.66875,-2.38125 v -6.87917 h -1.5875 v 2.38125 h -2.64583 v -4.7625 h 12.17083 v 4.7625 h -2.64583 v -2.38125 h -1.5875 v 6.87917 h 1.5875 v 2.38125 h -6.61459 v -2.38125 z m 19.31458,-4.7625 c -0.26458,-1.85209 -1.85208,-2.38125 -3.175,-2.38125 -1.05833,0 -2.64583,0.52916 -2.91041,2.38125 z m 2.91042,2.11666 h -8.99583 c 0.52916,3.70417 5.02708,3.43959 6.61458,1.05834 l 1.85208,1.5875 c -3.70416,4.7625 -11.64166,3.175 -11.64166,-3.43959 0,-7.40833 9.525,-8.46666 11.90625,-2.64583 0.26458,1.32292 0.26458,2.38125 0.26458,3.43958 z"
       id="path4381"
       style="clip-rule:evenodd;fill:#264796;fill-rule:nonzero;stroke-width:0.264583;image-rendering:optimizeQuality;shape-rendering:geometricPrecision;text-rendering:geometricPrecision" />
    <path
       class="fil11"
       d="m 133.96385,158.6313 h -3.70416 v -1.85209 h 1.32291 v -7.67291 h -1.32291 v -2.11667 h 3.96875 v 7.9375 l 5.82083,-7.9375 h 3.70417 v 2.11667 h -1.32292 v 7.67291 h 1.32292 v 1.85209 h -5.02709 v -1.85209 h 1.32292 v -6.08541 z m -40.216664,0 v -1.85209 h 1.058333 v -7.67291 h -1.058333 v -2.11667 h 3.704167 v 4.7625 h 5.556247 v -2.64583 h -1.05833 v -2.11667 h 4.7625 v 2.11667 h -1.32292 v 7.67291 h 1.32292 v 1.85209 h -3.70417 v -4.7625 h -5.556247 v 2.91041 h 1.058333 v 1.85209 z m -31.485416,0 h -3.175 v -1.05834 c -3.175,2.64584 -8.995833,2.38125 -8.995833,-2.38125 0,-2.11666 1.5875,-3.96875 5.291666,-3.96875 h 3.175 c 0,-3.175 -4.233333,-3.175 -5.291666,-1.85208 l -0.264584,1.05833 H 51.14927 v -3.43958 h 1.852083 v 0.52917 c 3.175,-2.11667 8.202084,-1.05834 8.202084,3.96875 v 5.29166 h 1.058333 z m -3.704167,-5.55625 h -3.175 c -1.852083,0 -2.910416,1.32291 -2.645833,2.38125 0.264583,2.38125 4.497917,1.85208 6.085417,0 z m -87.577082,5.55625 v -1.85209 h -1.5875 v -11.37708 h 1.5875 v -1.85208 h -5.291667 v 1.85208 h 1.058334 v 4.49792 h -7.14375 v -4.49792 h 1.058333 v -1.85208 h -5.291666 v 1.85208 h 1.5875 v 11.37708 h -1.5875 v 1.85209 h 5.291666 v -1.85209 h -1.058333 v -4.7625 h 7.14375 v 4.7625 h -1.058334 v 1.85209 z M 122.58677,146.98963 h 1.05833 2.64584 1.32291 v 2.11667 h -1.32291 v 7.67291 h 1.32291 v 1.85209 h -1.32291 -2.64584 v 0 0 0 0 -0.26459 0 0 0 0 0 -0.26458 0 0 0 0 0 0 0 -0.26458 0 0 0 0 0 0 0 0 0 0 0 0 0 -0.26459 0 0 0 0 0 0 0 0 0 0 0 0 -0.26458 0 0 0 0 0 0 0 -0.26458 0 0 0 0 0 -0.26459 0 0 0 0 -7.67291 h -1.05833 z m -12.43542,11.64167 v -1.85209 h 1.05834 v -7.67291 h -1.05834 v -2.11667 h 3.70417 v 3.175 h 2.64583 c 6.87917,0 6.87917,8.46667 0,8.46667 z m 3.70417,-6.61459 v 4.7625 h 2.91042 c 3.175,0 3.175,-4.7625 0,-4.7625 z m -79.375,6.61459 v -1.85209 h 1.322917 V 149.1063 H 34.48052 v -2.11667 h 3.96875 v 4.7625 h 5.55625 v -2.64583 h -1.058333 v -2.11667 h 4.7625 v 2.11667 H 46.38677 v 7.67291 h 1.322917 v 1.85209 H 44.00552 v -4.7625 h -5.55625 v 2.91041 h 1.058333 v 1.85209 z m -8.73125,-10.05417 c -2.38125,0 -3.96875,1.85208 -3.96875,4.23333 0,2.11667 1.5875,4.23334 3.96875,4.23334 2.38125,0 3.96875,-2.11667 3.704167,-4.23334 0.264583,-2.38125 -1.322917,-4.23333 -3.704167,-4.23333 z m 0,10.31875 c -3.704166,0 -6.614583,-2.38125 -6.614583,-6.08542 0,-3.96875 2.910417,-6.35 6.614583,-6.35 3.704167,0 6.35,2.38125 6.35,6.35 0,3.70417 -2.645833,6.08542 -6.35,6.08542 z M 7.2284372,158.6313 H 3.788854 v -1.85209 H 5.1117706 V 149.1063 H 3.788854 v -2.11667 h 3.7041666 v 7.9375 l 6.0854164,-7.9375 h 3.439583 v 2.11667 h -1.058333 v 7.67291 h 1.058333 v 1.85209 h -5.027083 v -1.85209 h 1.322917 v -6.08541 z m -19.8437502,0 v -1.85209 h 1.322917 v -7.67291 h -1.322917 v -2.11667 h 3.9687504 v 9.78958 h 5.2916666 v -7.67291 h -1.0583333 v -2.11667 h 4.76249996 v 2.11667 h -1.05833332 v 7.67291 H 1.1430206 l -0.52916661,4.7625 H -1.5028127 v -2.91041 z m -2.381249,0 h -3.175 v -1.05834 c -2.910417,2.64584 -8.995834,2.38125 -8.995834,-2.38125 0.264584,-2.11666 1.5875,-3.96875 5.55625,-3.96875 h 3.175 c -0.264583,-3.175 -4.497916,-3.175 -5.55625,-1.85208 v 1.05833 h -2.116666 v -3.43958 h 2.116666 v 0.52917 c 2.910417,-2.11667 7.9375,-1.05834 7.9375,3.96875 v 5.29166 h 1.058334 z m -3.439584,-5.55625 h -3.439583 c -1.852083,0 -2.645833,1.32291 -2.645833,2.38125 0.264583,2.38125 4.7625,1.85208 6.085416,0 z m 98.689582,5.55625 v -1.85209 h 1.322917 v -7.67291 h -1.322917 v -2.11667 h 3.96875 v 3.175 h 2.645834 c 6.879166,0 6.879166,8.46667 0,8.46667 z m 3.96875,-6.61459 v 4.7625 h 2.645834 c 3.439583,0 3.439583,-4.7625 0,-4.7625 z m -19.843749,6.61459 v -1.85209 c 2.116666,-0.26458 3.704166,-1.5875 3.704166,-4.7625 L 67.81802,149.1063 h -1.5875 v -2.11667 h 10.31875 v 9.78958 h 1.322916 v 1.85209 h -5.027083 v -1.85209 h 1.322917 v -7.67291 h -3.704167 v 2.91041 c 0,3.43959 -1.5875,6.61459 -6.085416,6.61459 z m 70.908333,-16.40417 -2.38125,1.05833 c 1.32292,3.175 6.61458,3.175 8.20208,0 l -2.11666,-1.05833 c -0.52917,1.85208 -3.43959,1.85208 -3.70417,0 z"
       id="path4383"
       style="clip-rule:evenodd;fill:#264796;fill-rule:nonzero;stroke-width:0.264583;image-rendering:optimizeQuality;shape-rendering:geometricPrecision;text-rendering:geometricPrecision" />
    <path
       class="fil11"
       d="m 332.13677,158.6313 v -1.85209 h 1.05833 v -7.67291 h -1.05833 v -2.11667 h 3.70416 v 3.175 h 2.64584 c 6.87916,0 6.87916,8.46667 0,8.46667 z m 22.48958,-6.87917 v -1.85208 c -0.52917,-0.79375 -1.5875,-1.32292 -2.91042,-1.32292 -2.38125,0 -3.70416,2.38125 -3.70416,4.23333 0,2.11667 1.32291,4.23334 3.70416,4.23334 1.32292,0 3.175,-0.79375 3.96875,-2.64584 l 1.85209,1.05834 c -2.64584,5.82083 -11.90625,4.7625 -11.90625,-2.64584 0,-3.43958 2.64583,-6.35 6.08541,-6.35 1.05834,0 2.11667,0.26459 2.91042,1.05834 v -0.52917 h 2.11667 v 4.7625 z m -43.65625,0 c -0.52917,-4.23333 -6.87917,-4.49792 -7.40833,0 z m -7.40833,1.85208 c 0.26458,3.96875 5.29166,4.7625 7.67291,1.5875 l 1.5875,1.32292 c -3.70416,4.7625 -11.90625,2.91042 -11.90625,-3.70417 0,-8.46666 12.96459,-8.46666 12.43542,0.79375 z m -111.38959,-1.85208 v -1.85208 c -0.52916,-0.79375 -1.5875,-1.32292 -2.91041,-1.32292 -2.38125,0 -3.70417,2.38125 -3.70417,4.23333 0,2.11667 1.32292,4.23334 3.70417,4.23334 1.32291,0 3.175,-0.79375 3.96875,-2.64584 l 1.85208,1.05834 c -2.64583,5.82083 -12.17083,4.7625 -11.90625,-2.64584 0,-3.43958 2.64583,-6.35 6.08542,-6.35 1.05833,0 2.11666,0.26459 2.91041,1.05834 v -0.52917 h 2.11667 v 4.7625 z m 168.01042,6.87917 v -1.85209 h 1.32292 v -7.67291 h -1.32292 v -2.11667 h 3.70417 v 4.7625 h 2.64583 l 1.5875,-2.64583 h -0.52917 v -2.11667 h 5.02709 v 2.11667 h -1.5875 l -2.38125,3.43958 c 0,2.11667 1.5875,3.96875 4.23333,4.23333 v 2.11667 c -3.96875,0 -6.35,-2.64583 -6.61458,-5.29167 h -2.38125 v 3.175 h 1.05833 v 1.85209 z m -66.14583,0 h -2.64584 -1.32291 v -1.85209 h 1.32291 v -7.67291 h -2.64583 v 2.64583 h -1.85208 v -4.7625 h 11.90625 v 4.7625 h -2.11667 v -2.64583 h -2.64583 v 7.67291 h 1.5875 v 1.85209 z m -35.98334,0 v -1.85209 h 1.32292 v -7.67291 h -1.32292 v -2.11667 c 2.11667,0 4.7625,0 6.87917,0 2.64583,0 3.70417,1.32292 3.96875,2.64583 0.26458,1.05834 -0.26458,2.11667 -1.05833,2.64584 1.5875,0.52916 2.11666,1.5875 2.11666,2.64583 0.26459,1.85208 -1.32291,3.96875 -4.7625,3.70417 z m 3.70417,-9.525 v 2.64583 h 3.43958 c 1.32292,0 2.11667,-2.64583 -0.26458,-2.64583 z m 0,4.49791 v 3.175 h 3.96875 c 2.11667,0 1.85208,-3.175 0,-3.175 z m -33.60208,3.175 c 1.05833,-0.79375 2.38125,-2.38125 2.38125,-5.02708 v -2.64583 h -1.85209 v -2.11667 h 10.84792 v 9.78958 h 1.85208 l -0.52916,4.7625 h -2.11667 v -2.91041 h -9.525 l -0.26458,2.91041 h -2.11667 c 0,-1.5875 0,-3.175 0,-4.7625 z m 8.73125,0 v -7.67291 h -3.96875 v 2.91041 c 0,1.5875 -1.05834,4.23334 -1.85209,4.7625 z m -14.02292,-5.02708 c -0.52917,-4.23333 -6.87917,-4.49792 -7.40833,0 z m -7.40833,1.85208 c 0.26458,3.96875 5.29166,4.7625 7.67291,1.5875 l 1.5875,1.32292 c -3.70416,4.7625 -11.90625,2.91042 -11.90625,-3.70417 0,-8.46666 12.96459,-8.46666 12.43542,0.79375 z m -36.77708,-1.85208 v -1.85208 c -0.79375,-0.79375 -1.5875,-1.32292 -2.91042,-1.32292 -2.38125,0 -3.70417,2.38125 -3.70417,4.23333 0,2.11667 1.32292,4.23334 3.70417,4.23334 1.32292,0 2.91042,-0.79375 3.70417,-2.64584 l 1.85208,1.05834 c -2.38125,5.82083 -11.90625,4.7625 -11.90625,-2.64584 0,-3.43958 2.91042,-6.35 6.35,-6.35 1.05833,0 1.85208,0.26459 2.91042,1.05834 v -0.52917 h 2.11666 v 4.7625 z m 216.42916,6.87917 h -3.43958 v -1.85209 h 1.32291 v -7.67291 h -1.32291 v -2.11667 h 3.70416 v 7.9375 l 6.08542,-7.9375 h 3.43958 v 2.11667 h -1.05833 v 7.67291 h 1.05833 v 1.85209 h -5.02708 v -1.85209 h 1.32292 v -6.08541 z m 1.32292,-16.40417 -2.11667,1.05833 c 1.05833,3.175 6.61458,3.175 7.9375,0 l -2.11667,-1.05833 c -0.26458,1.85208 -3.175,1.85208 -3.70416,0 z m -17.4625,16.40417 h -3.43959 v -1.85209 h 1.05834 v -7.67291 h -1.05834 v -2.11667 h 3.70417 v 7.9375 l 6.08542,-7.9375 h 3.43958 v 2.11667 h -1.05833 v 7.67291 h 1.05833 v 1.85209 h -5.02708 v -1.85209 h 1.32291 v -6.08541 z m -63.5,0 v -1.85209 c 2.11666,-0.26458 3.43958,-1.5875 3.43958,-4.7625 v -2.91041 h -1.5875 v -2.11667 h 10.31875 v 9.78958 h 1.32292 v 1.85209 h -5.02709 v -1.85209 h 1.32292 v -7.67291 h -3.70417 v 2.91041 c 0,3.43959 -1.5875,6.61459 -6.08541,6.61459 z m -118.53334,0 v -1.85209 c 2.11667,-0.26458 3.43959,-1.5875 3.43959,-4.7625 v -2.91041 h -1.5875 v -2.11667 h 10.31875 v 9.78958 h 1.32291 v 1.85209 h -5.02708 v -1.85209 h 1.05833 v -7.67291 h -3.43958 v 2.91041 c 0,3.43959 -1.85208,6.61459 -6.08542,6.61459 z m -39.68749,0 h -3.70417 v -1.85209 h 1.32292 v -7.67291 h -1.32292 v -2.11667 h 3.96875 v 7.9375 l 6.08542,-7.9375 h 3.43958 v 2.11667 h -1.32292 v 7.67291 h 1.32292 v 1.85209 h -5.02708 v -1.85209 h 1.32291 v -6.08541 z m 127.79374,0.26458 h -3.175 v -1.32292 c -3.175,2.64584 -9.26041,2.38125 -8.99583,-2.38125 0,-1.85208 1.5875,-3.70416 5.29167,-3.70416 h 3.175 c 0,-3.175 -4.23334,-3.175 -5.55625,-1.85209 v 1.05834 h -2.11667 v -3.70417 h 2.11667 v 0.52917 c 3.175,-1.85209 8.20208,-1.05834 8.20208,3.96875 v 5.29166 h 1.05833 z m -3.70416,-5.55625 h -3.175 c -1.85209,0 -2.91042,1.05833 -2.91042,2.11667 0.26458,2.38125 4.7625,2.11666 6.08542,0.26458 z m -32.01459,-4.7625 c -2.64583,0 -3.96875,2.11667 -3.96875,4.23333 0,2.38125 1.32292,4.23334 3.96875,4.23334 2.38125,0 3.70417,-1.85209 3.70417,-4.23334 0,-2.11666 -1.32292,-4.23333 -3.70417,-4.23333 z m 0,10.58333 c -3.70416,0 -6.61458,-2.38125 -6.61458,-6.35 0,-3.70416 2.91042,-6.35 6.61458,-6.35 3.43959,0 6.35,2.64584 6.35,6.35 0,3.96875 -2.91041,6.35 -6.35,6.35 z m 86.51875,-7.14375 v 4.7625 h 2.91042 c 3.175,0 3.175,-4.7625 0,-4.7625 z"
       id="path4385"
       style="clip-rule:evenodd;fill:#264796;fill-rule:nonzero;stroke-width:0.264583;image-rendering:optimizeQuality;shape-rendering:geometricPrecision;text-rendering:geometricPrecision" />
    <polygon
       class="fil11"
       points="3953,6453 3953,6435 3998,6435 3998,6453 3991,6453 3991,6443 3980,6443 3980,6471 3986,6471 3986,6479 3980,6479 3971,6479 3965,6479 3965,6471 3971,6471 3971,6443 3961,6443 3961,6453 "
       id="polygon4387"
       style="clip-rule:evenodd;fill:#264796;fill-rule:nonzero;image-rendering:optimizeQuality;shape-rendering:geometricPrecision;text-rendering:geometricPrecision"
       transform="matrix(0.26458333,0,0,0.26458333,-476.42989,-1555.6041)" />
    <path
       class="fil11"
       d="m 564.9701,151.75213 c -0.52917,-4.23333 -7.14375,-4.49792 -7.40834,0 z m -7.67292,1.85208 c 0.52917,3.96875 5.29167,4.49792 7.67292,1.5875 l 1.5875,1.32292 c -3.70417,4.7625 -11.90625,2.91042 -11.64167,-3.70417 0,-8.46666 12.96458,-8.46666 12.17083,0.79375 z"
       id="path4389"
       style="clip-rule:evenodd;fill:#264796;fill-rule:nonzero;stroke-width:0.264583;image-rendering:optimizeQuality;shape-rendering:geometricPrecision;text-rendering:geometricPrecision" />
    <polygon
       class="fil11"
       points="3843,6453 3843,6435 3888,6435 3888,6453 3881,6453 3881,6443 3871,6443 3871,6471 3877,6471 3877,6479 3871,6479 3861,6479 3855,6479 3855,6471 3861,6471 3861,6443 3851,6443 3851,6453 "
       id="polygon4391"
       style="clip-rule:evenodd;fill:#264796;fill-rule:nonzero;image-rendering:optimizeQuality;shape-rendering:geometricPrecision;text-rendering:geometricPrecision"
       transform="matrix(0.26458333,0,0,0.26458333,-476.42989,-1555.6041)" />
    <polygon
       class="fil11"
       points="3796,6465 3819,6435 3832,6435 3832,6443 3827,6443 3827,6472 3832,6472 3832,6479 3813,6479 3813,6472 3818,6472 3818,6449 3795,6479 3781,6479 3781,6472 3786,6472 3786,6443 3781,6443 3781,6435 3796,6435 "
       id="polygon4393"
       style="clip-rule:evenodd;fill:#264796;fill-rule:nonzero;image-rendering:optimizeQuality;shape-rendering:geometricPrecision;text-rendering:geometricPrecision"
       transform="matrix(0.26458333,0,0,0.26458333,-476.42989,-1555.6041)" />
    <path
       class="fil11"
       d="m 518.40343,151.75213 v -1.85208 c -0.79375,-0.79375 -1.85208,-1.32292 -2.91042,-1.32292 -2.64583,0 -3.70416,2.38125 -3.70416,4.23333 0,2.11667 1.05833,4.23334 3.43958,4.23334 1.5875,0 3.175,-0.79375 3.96875,-2.64584 l 1.85208,1.05834 c -2.38125,5.82083 -11.90625,4.7625 -11.90625,-2.64584 0,-3.43958 2.64584,-6.35 6.35,-6.35 1.05834,0 1.85209,0.26459 2.91042,1.05834 v -0.52917 h 1.85208 v 4.7625 z"
       id="path4395"
       style="clip-rule:evenodd;fill:#264796;fill-rule:nonzero;stroke-width:0.264583;image-rendering:optimizeQuality;shape-rendering:geometricPrecision;text-rendering:geometricPrecision" />
    <path
       class="fil11"
       d="m 494.32635,149.1063 h -1.32292 v -2.11667 h 3.96875 v 1.05833 0 0 0 0 0 0 0 0 0 0 c 0.52917,-0.79375 2.38125,-1.5875 3.70417,-1.5875 3.70416,0 6.35,2.64584 6.35,6.35 0,3.70417 -2.64584,6.35 -6.35,6.35 -1.32292,0 -2.91042,-0.52916 -3.70417,-1.85208 v 5.29167 h 1.32292 v 1.85208 h -5.29167 v -1.85208 h 1.32292 z m 2.64583,1.5875 v 4.23333 c 0.52917,1.32292 2.11667,2.11667 3.70417,2.11667 2.38125,0 3.96875,-1.85209 3.96875,-4.23334 0,-2.38125 -1.5875,-4.23333 -3.96875,-4.23333 -1.5875,0 -3.175,1.05833 -3.70417,2.11667 z"
       id="path4397"
       style="clip-rule:evenodd;fill:#264796;fill-rule:nonzero;stroke-width:0.264583;image-rendering:optimizeQuality;shape-rendering:geometricPrecision;text-rendering:geometricPrecision" />
    <path
       class="fil11"
       d="m 488.50551,151.75213 c -0.52916,-4.23333 -6.87916,-4.49792 -7.40833,0 z m -7.40833,1.85208 c 0.26458,3.96875 5.29167,4.49792 7.67292,1.5875 l 1.5875,1.32292 c -3.70417,4.7625 -11.90625,2.91042 -11.90625,-3.70417 0,-8.46666 12.96458,-8.46666 12.43541,0.79375 z"
       id="path4399"
       style="clip-rule:evenodd;fill:#264796;fill-rule:nonzero;stroke-width:0.264583;image-rendering:optimizeQuality;shape-rendering:geometricPrecision;text-rendering:geometricPrecision" />
    <path
       class="fil11"
       d="m 464.42843,158.6313 v -1.85209 h 1.32292 v -7.67291 h -1.32292 v -2.11667 c 2.11667,0 5.02708,0 7.14375,0 2.38125,0 3.70417,1.32292 3.70417,2.64583 0.26458,1.05834 -0.26459,2.11667 -0.79375,2.64584 1.32291,0.26458 1.85208,1.5875 2.11666,2.64583 0,1.85208 -1.5875,3.96875 -4.7625,3.70417 z m 3.96875,-9.525 v 2.64583 h 3.175 c 1.5875,0 2.11667,-2.64583 -0.26458,-2.64583 z m 0,4.49791 v 3.175 h 3.70417 c 2.38125,0 2.11666,-3.175 0,-3.175 z"
       id="path4401"
       style="clip-rule:evenodd;fill:#264796;fill-rule:nonzero;stroke-width:0.264583;image-rendering:optimizeQuality;shape-rendering:geometricPrecision;text-rendering:geometricPrecision" />
    <polygon
       class="fil11"
       points="3507,6465 3529,6435 3543,6435 3543,6443 3538,6443 3538,6472 3543,6472 3543,6479 3524,6479 3524,6472 3528,6472 3528,6449 3506,6479 3492,6479 3492,6472 3497,6472 3497,6443 3492,6443 3492,6435 3507,6435 "
       id="polygon4403"
       style="clip-rule:evenodd;fill:#264796;fill-rule:nonzero;image-rendering:optimizeQuality;shape-rendering:geometricPrecision;text-rendering:geometricPrecision"
       transform="matrix(0.26458333,0,0,0.26458333,-476.42989,-1555.6041)" />
    <polygon
       class="fil11"
       points="3465,6453 3465,6443 3461,6443 3461,6435 3479,6435 3479,6443 3474,6443 3474,6472 3479,6472 3479,6479 3465,6479 3465,6461 3444,6461 3444,6472 3448,6472 3448,6479 3429,6479 3429,6472 3434,6472 3434,6443 3429,6443 3429,6435 3444,6435 3444,6453 "
       id="polygon4405"
       style="clip-rule:evenodd;fill:#264796;fill-rule:nonzero;image-rendering:optimizeQuality;shape-rendering:geometricPrecision;text-rendering:geometricPrecision"
       transform="matrix(0.26458333,0,0,0.26458333,-476.42989,-1555.6041)" />
    <path
       class="fil11"
       d="m 416.53885,149.1063 h -1.5875 v -2.11667 h 3.43958 l 3.70417,9.26042 2.91042,-7.14375 h -1.5875 v -2.11667 h 5.02708 v 2.11667 h -0.79375 l -4.49792,10.84791 c -1.85208,3.96875 -5.02708,4.49792 -7.40833,4.23333 v -1.85208 c 2.11667,0 3.96875,-0.52916 5.02708,-3.175 z"
       id="path4407"
       style="clip-rule:evenodd;fill:#264796;fill-rule:nonzero;stroke-width:0.264583;image-rendering:optimizeQuality;shape-rendering:geometricPrecision;text-rendering:geometricPrecision" />
    <path
       class="fil10"
       d="m -44.894479,201.49379 h 1.852084 l 4.762499,-13.22916 h 3.704167 l 4.7625,13.22916 h 1.5875 v 2.11667 h -5.55625 v -2.11667 h 1.322917 l -0.79375,-2.11666 h -6.614583 l -0.79375,2.11666 h 1.322916 v 2.11667 h -5.55625 z m 10.847917,-3.96875 -2.38125,-7.14375 -2.645834,7.14375 z"
       id="path4409"
       style="clip-rule:evenodd;fill:#449bb3;fill-rule:evenodd;stroke-width:0.264583;image-rendering:optimizeQuality;shape-rendering:geometricPrecision;text-rendering:geometricPrecision" />
    <path
       class="fil2"
       d="m -25.844479,193.82088 h -1.322917 v -2.11667 h 3.96875 v 1.05833 0 0 0 0 0 0 0 0.26459 0 0 c 0.529167,-1.05834 2.38125,-1.5875 3.704167,-1.5875 3.704167,0 6.35,2.38125 6.35,6.35 0,3.70416 -2.645833,6.08541 -6.35,6.08541 -1.322917,0 -2.910417,-0.26458 -3.704167,-1.5875 v 5.02709 h 1.322917 v 2.11666 h -5.291667 v -2.11666 h 1.322917 z m 2.645833,1.85208 v 4.23333 c 0.529167,1.05834 2.116667,2.11667 3.704167,2.11667 2.38125,0 3.96875,-2.11667 3.96875,-4.23333 0,-2.38125 -1.5875,-4.49792 -3.96875,-4.49792 -1.5875,0 -3.175,1.05833 -3.704167,2.38125 z"
       id="path4411"
       style="clip-rule:evenodd;fill:#449bb3;fill-rule:nonzero;stroke-width:0.264583;image-rendering:optimizeQuality;shape-rendering:geometricPrecision;text-rendering:geometricPrecision" />
    <polygon
       class="fil2"
       points="1832,6635 1855,6605 1869,6605 1869,6612 1864,6612 1864,6641 1869,6641 1869,6649 1849,6649 1849,6641 1854,6641 1854,6618 1832,6649 1818,6649 1818,6641 1823,6641 1823,6612 1818,6612 1818,6605 1832,6605 "
       id="polygon4413"
       style="clip-rule:evenodd;fill:#449bb3;fill-rule:nonzero;image-rendering:optimizeQuality;shape-rendering:geometricPrecision;text-rendering:geometricPrecision"
       transform="matrix(0.26458333,0,0,0.26458333,-476.42989,-1555.6041)" />
    <polygon
       class="fil2"
       points="1877,6622 1877,6605 1922,6605 1922,6622 1915,6622 1915,6612 1905,6612 1905,6641 1910,6641 1910,6649 1905,6649 1895,6649 1889,6649 1889,6641 1895,6641 1895,6612 1885,6612 1885,6622 "
       id="polygon4415"
       style="clip-rule:evenodd;fill:#449bb3;fill-rule:nonzero;image-rendering:optimizeQuality;shape-rendering:geometricPrecision;text-rendering:geometricPrecision"
       transform="matrix(0.26458333,0,0,0.26458333,-476.42989,-1555.6041)" />
    <path
       class="fil2"
       d="m 44.00552,196.46671 c -0.264583,-4.23333 -6.879166,-4.23333 -7.14375,0 z m -7.408333,2.11667 c 0.529167,3.96875 5.291666,4.49791 7.672916,1.5875 l 1.5875,1.05833 c -3.704166,4.7625 -11.906249,3.175 -11.906249,-3.43958 0,-8.46667 13.229166,-8.73125 12.435416,0.79375 z"
       id="path4417"
       style="clip-rule:evenodd;fill:#449bb3;fill-rule:nonzero;stroke-width:0.264583;image-rendering:optimizeQuality;shape-rendering:geometricPrecision;text-rendering:geometricPrecision" />
    <path
       class="fil2"
       d="m 48.76802,203.61046 v -2.11667 h 1.058333 v -7.67291 H 48.76802 v -1.85209 h 3.704167 v 4.49792 h 2.38125 l 1.852083,-2.64583 h -0.529167 v -1.85209 h 4.7625 v 1.85209 h -1.322916 l -2.645834,3.70416 c 0,2.11667 1.5875,3.96875 4.233334,3.96875 v 2.11667 c -3.96875,0 -6.085417,-2.38125 -6.614584,-5.02708 h -2.116666 v 2.91041 h 1.058333 v 2.11667 z"
       id="path4419"
       style="clip-rule:evenodd;fill:#449bb3;fill-rule:nonzero;stroke-width:0.264583;image-rendering:optimizeQuality;shape-rendering:geometricPrecision;text-rendering:geometricPrecision" />
    <polygon
       class="fil2"
       points="2038,6622 2038,6605 2084,6605 2084,6622 2076,6622 2076,6612 2066,6612 2066,6641 2072,6641 2072,6649 2066,6649 2056,6649 2050,6649 2050,6641 2056,6641 2056,6612 2046,6612 2046,6622 "
       id="polygon4421"
       style="clip-rule:evenodd;fill:#449bb3;fill-rule:nonzero;image-rendering:optimizeQuality;shape-rendering:geometricPrecision;text-rendering:geometricPrecision"
       transform="matrix(0.26458333,0,0,0.26458333,-476.42989,-1555.6041)" />
    <path
       class="fil2"
       d="m 78.13677,193.82088 h -1.5875 v -1.85209 h 3.439583 l 3.704167,8.99584 2.910416,-7.14375 h -1.5875 v -1.85209 h 5.027084 v 1.85209 h -0.79375 l -4.497917,10.84791 c -1.852083,4.23334 -5.027083,4.7625 -7.672917,4.49792 v -2.11667 c 2.38125,0 4.233334,-0.26458 5.291667,-2.91041 z"
       id="path4423"
       style="clip-rule:evenodd;fill:#449bb3;fill-rule:nonzero;stroke-width:0.264583;image-rendering:optimizeQuality;shape-rendering:geometricPrecision;text-rendering:geometricPrecision" />
    <path
       class="fil2"
       d="m 93.218019,193.82088 h -1.322916 v -2.11667 h 3.704166 v 1.05833 0 0 0 0 0 0 0 0.26459 0 0 c 0.79375,-1.05834 2.38125,-1.5875 3.704167,-1.5875 3.704164,0 6.614584,2.38125 6.614584,6.35 0,3.70416 -2.91042,6.08541 -6.614584,6.08541 -1.322917,0 -2.910417,-0.26458 -3.704167,-1.5875 v 5.02709 h 1.322917 v 2.11666 h -5.027083 v -2.11666 h 1.322916 z m 2.38125,1.85208 v 4.23333 c 0.79375,1.05834 2.116667,2.11667 3.704167,2.11667 2.381254,0 3.968754,-2.11667 3.968754,-4.23333 0,-2.38125 -1.5875,-4.49792 -3.968754,-4.49792 -1.5875,0 -2.910417,1.05833 -3.704167,2.38125 z"
       id="path4425"
       style="clip-rule:evenodd;fill:#449bb3;fill-rule:nonzero;stroke-width:0.264583;image-rendering:optimizeQuality;shape-rendering:geometricPrecision;text-rendering:geometricPrecision" />
    <polygon
       class="fil2"
       points="2243,6622 2243,6612 2240,6612 2240,6605 2258,6605 2258,6612 2253,6612 2253,6641 2258,6641 2258,6649 2243,6649 2243,6630 2223,6630 2223,6641 2226,6641 2226,6649 2208,6649 2208,6641 2213,6641 2213,6612 2208,6612 2208,6605 2223,6605 2223,6622 "
       id="polygon4427"
       style="clip-rule:evenodd;fill:#449bb3;fill-rule:nonzero;image-rendering:optimizeQuality;shape-rendering:geometricPrecision;text-rendering:geometricPrecision"
       transform="matrix(0.26458333,0,0,0.26458333,-476.42989,-1555.6041)" />
    <path
       class="fil2"
       d="m 129.20135,193.55629 c -2.38125,0 -3.96875,1.85209 -3.96875,4.23334 0,2.38125 1.5875,4.23333 3.96875,4.23333 2.38125,0 3.96875,-1.85208 3.96875,-4.23333 0,-2.38125 -1.5875,-4.23334 -3.96875,-4.23334 z m 0,10.58334 c -3.70416,0 -6.35,-2.64584 -6.35,-6.35 0,-3.70417 2.64584,-6.35 6.35,-6.35 3.70417,0 6.61459,2.64583 6.61459,6.35 0,3.70416 -2.91042,6.35 -6.61459,6.35 z"
       id="path4429"
       style="clip-rule:evenodd;fill:#449bb3;fill-rule:nonzero;stroke-width:0.264583;image-rendering:optimizeQuality;shape-rendering:geometricPrecision;text-rendering:geometricPrecision" />
    <polygon
       class="fil10"
       points="1783,6621 1789,6612 1789,6605 1807,6605 1807,6612 1799,6612 1789,6626 1800,6641 1808,6641 1808,6649 1805,6649 1795,6649 1782,6632 1776,6641 1776,6649 1757,6649 1757,6641 1766,6641 1776,6626 1766,6612 1758,6612 1758,6605 1761,6605 1772,6605 "
       id="polygon4431"
       style="clip-rule:evenodd;fill:#449bb3;fill-rule:evenodd;image-rendering:optimizeQuality;shape-rendering:geometricPrecision;text-rendering:geometricPrecision"
       transform="matrix(0.26458333,0,0,0.26458333,-476.42989,-1555.6041)" />
    <path
       class="fil2"
       d="m 157.77635,196.46671 v -1.5875 c -0.52916,-1.05833 -1.5875,-1.5875 -2.91041,-1.32292 -2.38125,0 -3.70417,2.11667 -3.70417,4.23334 0,1.85208 1.32292,3.96875 3.70417,4.23333 1.32291,0 3.175,-0.79375 3.96875,-2.64583 l 1.85208,0.79375 c -2.64583,6.08541 -11.90625,4.7625 -11.90625,-2.38125 0,-3.70417 2.64583,-6.35 6.08542,-6.35 1.05833,0 2.11666,0.26458 2.91041,0.79375 v -0.52917 h 2.11667 v 4.7625 z"
       id="path4433"
       style="clip-rule:evenodd;fill:#449bb3;fill-rule:nonzero;stroke-width:0.264583;image-rendering:optimizeQuality;shape-rendering:geometricPrecision;text-rendering:geometricPrecision" />
    <polygon
       class="fil2"
       points="2415,6622 2415,6605 2460,6605 2460,6622 2453,6622 2453,6612 2442,6612 2442,6641 2448,6641 2448,6649 2442,6649 2433,6649 2427,6649 2427,6641 2433,6641 2433,6612 2423,6612 2423,6622 "
       id="polygon4435"
       style="clip-rule:evenodd;fill:#449bb3;fill-rule:nonzero;image-rendering:optimizeQuality;shape-rendering:geometricPrecision;text-rendering:geometricPrecision"
       transform="matrix(0.26458333,0,0,0.26458333,-476.42989,-1555.6041)" />
    <path
       class="fil2"
       d="m 178.41385,193.82088 h -1.32291 v -2.11667 h 3.70416 v 1.05833 0 0 0 0 0 0 0 0.26459 0 0 c 0.79375,-1.05834 2.38125,-1.5875 3.96875,-1.5875 3.43958,0 6.35,2.38125 6.35,6.35 0,3.70416 -2.91042,6.08541 -6.35,6.08541 -1.5875,0 -3.175,-0.26458 -3.96875,-1.5875 v 5.02709 h 1.32292 v 2.11666 h -5.02708 v -2.11666 h 1.32291 z m 2.38125,1.85208 v 4.23333 c 0.79375,1.05834 2.38125,2.11667 3.96875,2.11667 2.38125,0 3.70417,-2.11667 3.70417,-4.23333 0,-2.38125 -1.32292,-4.49792 -3.70417,-4.49792 -1.5875,0 -3.175,1.05833 -3.96875,2.38125 z"
       id="path4437"
       style="clip-rule:evenodd;fill:#449bb3;fill-rule:nonzero;stroke-width:0.264583;image-rendering:optimizeQuality;shape-rendering:geometricPrecision;text-rendering:geometricPrecision" />
    <path
       class="fil2"
       d="m 199.8451,193.55629 c -2.38125,0 -3.96875,1.85209 -3.96875,4.23334 0,2.38125 1.5875,4.23333 3.96875,4.23333 2.38125,0 3.96875,-1.85208 3.96875,-4.23333 0,-2.38125 -1.5875,-4.23334 -3.96875,-4.23334 z m 0,10.58334 c -3.70417,0 -6.35,-2.64584 -6.35,-6.35 0,-3.70417 2.64583,-6.35 6.35,-6.35 3.70417,0 6.35,2.64583 6.35,6.35 0,3.70416 -2.64583,6.35 -6.35,6.35 z"
       id="path4439"
       style="clip-rule:evenodd;fill:#449bb3;fill-rule:nonzero;stroke-width:0.264583;image-rendering:optimizeQuality;shape-rendering:geometricPrecision;text-rendering:geometricPrecision" />
    <polygon
       class="fil2"
       points="2603,6635 2626,6605 2639,6605 2639,6612 2635,6612 2635,6641 2639,6641 2639,6649 2620,6649 2620,6641 2625,6641 2625,6618 2602,6649 2589,6649 2589,6641 2594,6641 2594,6612 2589,6612 2589,6605 2603,6605 "
       id="polygon4441"
       style="clip-rule:evenodd;fill:#449bb3;fill-rule:nonzero;image-rendering:optimizeQuality;shape-rendering:geometricPrecision;text-rendering:geometricPrecision"
       transform="matrix(0.26458333,0,0,0.26458333,-476.42989,-1555.6041)" />
    <polygon
       class="fil2"
       points="2649,6622 2649,6605 2694,6605 2694,6622 2686,6622 2686,6612 2676,6612 2676,6641 2682,6641 2682,6649 2676,6649 2666,6649 2660,6649 2660,6641 2666,6641 2666,6612 2656,6612 2656,6622 "
       id="polygon4443"
       style="clip-rule:evenodd;fill:#449bb3;fill-rule:nonzero;image-rendering:optimizeQuality;shape-rendering:geometricPrecision;text-rendering:geometricPrecision"
       transform="matrix(0.26458333,0,0,0.26458333,-476.42989,-1555.6041)" />
    <path
       class="fil2"
       d="m 248.26385,196.46671 c -0.52917,-4.23333 -6.87917,-4.23333 -7.40833,0 z m -7.40833,2.11667 c 0.26458,3.96875 5.29166,4.49791 7.67291,1.5875 l 1.5875,1.05833 c -3.70416,4.7625 -11.90625,3.175 -11.90625,-3.43958 0,-8.46667 12.96459,-8.73125 12.43542,0.79375 z"
       id="path4445"
       style="clip-rule:evenodd;fill:#449bb3;fill-rule:nonzero;stroke-width:0.264583;image-rendering:optimizeQuality;shape-rendering:geometricPrecision;text-rendering:geometricPrecision" />
    <path
       class="fil2"
       d="m 252.2326,203.61046 v -2.11667 c 1.85208,-0.26458 3.43958,-1.32291 3.43958,-4.49791 v -3.175 h -1.5875 v -1.85209 h 10.31875 v 9.525 h 1.32292 v 2.11667 h -5.02708 v -2.11667 h 1.05833 v -7.67291 h -3.70417 v 3.175 c 0,3.43958 -1.5875,6.61458 -5.82083,6.61458 z"
       id="path4447"
       style="clip-rule:evenodd;fill:#449bb3;fill-rule:nonzero;stroke-width:0.264583;image-rendering:optimizeQuality;shape-rendering:geometricPrecision;text-rendering:geometricPrecision" />
    <path
       class="fil2"
       d="m 268.1076,203.61046 v -2.11667 h 1.32292 v -7.67291 h -1.32292 v -1.85209 h 3.70417 v 2.91042 h 2.64583 c 6.87917,0 6.87917,8.73125 0,8.73125 z m 3.70417,-6.61458 v 4.49791 h 2.91041 c 3.175,0 3.175,-4.49791 0,-4.49791 z"
       id="path4449"
       style="clip-rule:evenodd;fill:#449bb3;fill-rule:nonzero;stroke-width:0.264583;image-rendering:optimizeQuality;shape-rendering:geometricPrecision;text-rendering:geometricPrecision" />
    <polygon
       class="fil2"
       points="2900,6622 2900,6612 2896,6612 2896,6605 2914,6605 2914,6612 2909,6612 2909,6641 2914,6641 2914,6649 2900,6649 2900,6630 2879,6630 2879,6641 2883,6641 2883,6649 2864,6649 2864,6641 2869,6641 2869,6612 2864,6612 2864,6605 2879,6605 2879,6622 "
       id="polygon4451"
       style="clip-rule:evenodd;fill:#449bb3;fill-rule:nonzero;image-rendering:optimizeQuality;shape-rendering:geometricPrecision;text-rendering:geometricPrecision"
       transform="matrix(0.26458333,0,0,0.26458333,-476.42989,-1555.6041)" />
    <path
       class="fil2"
       d="m 309.91177,191.96879 h 1.05833 2.91042 1.05833 v 2.11667 h -1.05833 v 7.40833 h 1.05833 v 2.11667 h -1.05833 -2.91042 v 0 0 -0.26458 0 0 0 0 -0.26459 0 0 0 0 0 0 -0.26458 0 0 0 0 0 0 0 0 0 0 -0.26458 0 0 0 0 0 0 0 0 0 0 0 0 0 -0.26459 0 0 0 0 0 0 0 0 0 0 -0.26458 0 0 0 0 0 -0.26458 0 0 0 0 0 -0.26459 0 -7.40833 h -1.05833 z m -12.43542,11.64167 v -2.11667 h 1.32292 v -7.67291 h -1.32292 v -1.85209 h 3.96875 v 2.91042 h 2.64583 c 6.87917,0 6.87917,8.73125 0,8.73125 z m 3.96875,-6.61458 v 4.49791 h 2.64583 c 3.175,0 3.43959,-4.49791 0,-4.49791 z"
       id="path4453"
       style="clip-rule:evenodd;fill:#449bb3;fill-rule:nonzero;stroke-width:0.264583;image-rendering:optimizeQuality;shape-rendering:geometricPrecision;text-rendering:geometricPrecision" />
    <path
       class="fil2"
       d="m 321.55343,203.61046 h -3.70416 v -2.11667 h 1.32291 v -7.67291 h -1.32291 v -1.85209 h 3.96875 v 7.9375 l 5.82083,-7.9375 h 3.70417 v 1.85209 h -1.32292 v 7.67291 h 1.32292 v 2.11667 h -5.02709 v -2.11667 h 1.05834 v -6.08541 z m 1.32292,-16.40417 -2.38125,0.79375 c 1.32292,3.175 6.61458,3.175 8.20208,0.26459 l -2.38125,-1.05834 c -0.26458,1.5875 -3.175,1.5875 -3.43958,0 z"
       id="path4455"
       style="clip-rule:evenodd;fill:#449bb3;fill-rule:nonzero;stroke-width:0.264583;image-rendering:optimizeQuality;shape-rendering:geometricPrecision;text-rendering:geometricPrecision" />
    <polygon
       class="fil2"
       points="3105,6635 3128,6605 3141,6605 3141,6612 3137,6612 3137,6641 3141,6641 3141,6649 3122,6649 3122,6641 3127,6641 3127,6618 3104,6649 3091,6649 3091,6641 3096,6641 3096,6612 3091,6612 3091,6605 3105,6605 "
       id="polygon4457"
       style="clip-rule:evenodd;fill:#449bb3;fill-rule:nonzero;image-rendering:optimizeQuality;shape-rendering:geometricPrecision;text-rendering:geometricPrecision"
       transform="matrix(0.26458333,0,0,0.26458333,-476.42989,-1555.6041)" />
    <polygon
       class="fil2"
       points="3187,6622 3187,6612 3183,6612 3183,6605 3202,6605 3202,6612 3197,6612 3197,6641 3202,6641 3202,6649 3187,6649 3187,6630 3166,6630 3166,6641 3170,6641 3170,6649 3152,6649 3152,6641 3157,6641 3157,6612 3152,6612 3152,6605 3166,6605 3166,6622 "
       id="polygon4459"
       style="clip-rule:evenodd;fill:#449bb3;fill-rule:nonzero;image-rendering:optimizeQuality;shape-rendering:geometricPrecision;text-rendering:geometricPrecision"
       transform="matrix(0.26458333,0,0,0.26458333,-476.42989,-1555.6041)" />
    <path
       class="fil2"
       d="m 381.87843,196.46671 v -1.5875 c -0.79375,-1.05833 -1.85208,-1.5875 -2.91041,-1.32292 -2.64584,0 -3.70417,2.11667 -3.70417,4.23334 0,1.85208 1.05833,3.96875 3.43958,4.23333 1.5875,0 3.175,-0.79375 3.96875,-2.64583 l 1.85209,0.79375 c -2.38125,6.08541 -11.90625,4.7625 -11.90625,-2.38125 0,-3.70417 2.64583,-6.35 6.35,-6.35 1.05833,0 1.85208,0.26458 2.91041,0.79375 v -0.52917 h 1.85209 v 4.7625 z"
       id="path4461"
       style="clip-rule:evenodd;fill:#449bb3;fill-rule:nonzero;stroke-width:0.264583;image-rendering:optimizeQuality;shape-rendering:geometricPrecision;text-rendering:geometricPrecision" />
    <polygon
       class="fil2"
       points="3260,6622 3260,6605 3305,6605 3305,6622 3297,6622 3297,6612 3287,6612 3287,6641 3293,6641 3293,6649 3287,6649 3278,6649 3272,6649 3272,6641 3278,6641 3278,6612 3267,6612 3267,6622 "
       id="polygon4463"
       style="clip-rule:evenodd;fill:#449bb3;fill-rule:nonzero;image-rendering:optimizeQuality;shape-rendering:geometricPrecision;text-rendering:geometricPrecision"
       transform="matrix(0.26458333,0,0,0.26458333,-476.42989,-1555.6041)" />
    <polygon
       class="fil2"
       points="3328,6635 3351,6605 3365,6605 3365,6612 3360,6612 3360,6641 3365,6641 3365,6649 3346,6649 3346,6641 3350,6641 3350,6618 3328,6649 3314,6649 3314,6641 3319,6641 3319,6612 3314,6612 3314,6605 3328,6605 "
       id="polygon4465"
       style="clip-rule:evenodd;fill:#449bb3;fill-rule:nonzero;image-rendering:optimizeQuality;shape-rendering:geometricPrecision;text-rendering:geometricPrecision"
       transform="matrix(0.26458333,0,0,0.26458333,-476.42989,-1555.6041)" />
    <polygon
       class="fil2"
       points="3374,6622 3374,6605 3419,6605 3419,6622 3411,6622 3411,6612 3401,6612 3401,6641 3407,6641 3407,6649 3401,6649 3391,6649 3385,6649 3385,6641 3391,6641 3391,6612 3381,6612 3381,6622 "
       id="polygon4467"
       style="clip-rule:evenodd;fill:#449bb3;fill-rule:nonzero;image-rendering:optimizeQuality;shape-rendering:geometricPrecision;text-rendering:geometricPrecision"
       transform="matrix(0.26458333,0,0,0.26458333,-476.42989,-1555.6041)" />
    <path
       class="fil2"
       d="m 431.35552,193.82088 h -1.5875 v -1.85209 h 3.43958 l 3.70417,8.99584 2.91041,-7.14375 h -1.5875 v -1.85209 h 5.02709 v 1.85209 h -1.05834 l -4.49791,10.84791 c -1.5875,4.23334 -5.02709,4.7625 -7.40834,4.49792 v -2.11667 c 2.11667,0 4.23334,-0.26458 5.29167,-2.91041 z"
       id="path4469"
       style="clip-rule:evenodd;fill:#449bb3;fill-rule:nonzero;stroke-width:0.264583;image-rendering:optimizeQuality;shape-rendering:geometricPrecision;text-rendering:geometricPrecision" />
    <polygon
       class="fil2"
       points="3483,6622 3483,6605 3528,6605 3528,6622 3520,6622 3520,6612 3510,6612 3510,6641 3516,6641 3516,6649 3510,6649 3500,6649 3494,6649 3494,6641 3500,6641 3500,6612 3490,6612 3490,6622 "
       id="polygon4471"
       style="clip-rule:evenodd;fill:#449bb3;fill-rule:nonzero;image-rendering:optimizeQuality;shape-rendering:geometricPrecision;text-rendering:geometricPrecision"
       transform="matrix(0.26458333,0,0,0.26458333,-476.42989,-1555.6041)" />
    <polygon
       class="fil2"
       points="2330,6623 2351,6623 2351,6631 2330,6631 "
       id="polygon4473"
       style="clip-rule:evenodd;fill:#449bb3;fill-rule:nonzero;image-rendering:optimizeQuality;shape-rendering:geometricPrecision;text-rendering:geometricPrecision"
       transform="matrix(0.26458333,0,0,0.26458333,-476.42989,-1555.6041)" />
  </g>
</svg>
